<?xml version="1.0" encoding="UTF-8"?>
<svg width="25px" height="25px" viewBox="0 0 25 25" version="1.1" xmlns="http://www.w3.org/2000/svg" xmlns:xlink="http://www.w3.org/1999/xlink">
    <!-- Generator: Sketch 64 (93537) - https://sketch.com -->
    <title>Group</title>
    <desc>Created with Sketch.</desc>
    <g id="Page-1" stroke="none" stroke-width="1" fill="none" fill-rule="evenodd">
        <g id="All-excercise--option-1" transform="translate(-49.000000, -752.000000)" fill="#4A4E64" fill-rule="nonzero">
            <g id="Nav" transform="translate(39.000000, 752.000000)">
                <g id="Today-">
                    <g id="noun_day_2080542" transform="translate(10.000000, 0.000000)">
                        <g id="Group">
                            <path d="M22.0789474,2.44791667 L20.3421053,2.44791667 L20.3421053,1.92708333 C20.3421053,0.9375 19.5263158,0.15625 18.5526316,0.15625 L18.1578947,0.15625 C17.1578947,0.15625 16.3684211,0.963541667 16.3684211,1.92708333 L16.3684211,2.44791667 L14.3947368,2.44791667 L14.3947368,1.92708333 C14.3947368,0.9375 13.5789474,0.15625 12.6052632,0.15625 L12.2105263,0.15625 C11.2105263,0.15625 10.4210526,0.963541667 10.4210526,1.92708333 L10.4210526,2.44791667 L8.44736842,2.44791667 L8.44736842,1.92708333 C8.44736842,0.9375 7.63157895,0.15625 6.65789474,0.15625 L6.26315789,0.15625 C5.26315789,0.15625 4.47368421,0.963541667 4.47368421,1.92708333 L4.47368421,2.44791667 L2.73684211,2.44791667 C1.26315789,2.44791667 0.0789473684,3.61979167 0.0789473684,5.078125 L0.0789473684,22.265625 C0.0789473684,23.6979167 1.26315789,24.8958333 2.73684211,24.8958333 L22.1315789,24.8958333 C23.5789474,24.8958333 24.7894737,23.7239583 24.7894737,22.265625 L24.7894737,5.078125 C24.7105263,3.61979167 23.5263158,2.44791667 22.0789474,2.44791667 Z M17.5526316,1.90104167 C17.5526316,1.58854167 17.8157895,1.328125 18.1315789,1.328125 L18.5263158,1.328125 C18.8421053,1.328125 19.1052632,1.58854167 19.1052632,1.90104167 L19.1052632,4.16666667 C19.1052632,4.47916667 18.8421053,4.73958333 18.5263158,4.73958333 L18.1315789,4.73958333 C17.8157895,4.73958333 17.5526316,4.47916667 17.5526316,4.16666667 L17.5526316,1.90104167 Z M11.6052632,1.90104167 C11.6052632,1.58854167 11.8684211,1.328125 12.1842105,1.328125 L12.5789474,1.328125 C12.8947368,1.328125 13.1578947,1.58854167 13.1578947,1.90104167 L13.1578947,4.16666667 C13.1578947,4.47916667 12.8947368,4.73958333 12.5789474,4.73958333 L12.1842105,4.73958333 C11.8684211,4.73958333 11.6052632,4.47916667 11.6052632,4.16666667 L11.6052632,1.90104167 Z M5.63157895,1.90104167 C5.63157895,1.58854167 5.89473684,1.328125 6.21052632,1.328125 L6.57894737,1.328125 C6.89473684,1.328125 7.15789474,1.58854167 7.15789474,1.90104167 L7.15789474,4.16666667 C7.15789474,4.47916667 6.89473684,4.73958333 6.57894737,4.73958333 L6.18421053,4.73958333 C5.86842105,4.73958333 5.60526316,4.47916667 5.60526316,4.16666667 L5.60526316,1.90104167 L5.63157895,1.90104167 Z M2.65789474,3.64583333 L4.39473684,3.64583333 L4.39473684,4.16666667 C4.39473684,5.15625 5.21052632,5.9375 6.18421053,5.9375 L6.57894737,5.9375 C7.57894737,5.9375 8.36842105,5.13020833 8.36842105,4.16666667 L8.36842105,3.64583333 L10.3421053,3.64583333 L10.3421053,4.16666667 C10.3421053,5.15625 11.1578947,5.9375 12.1315789,5.9375 L12.5263158,5.9375 C13.5263158,5.9375 14.3157895,5.13020833 14.3157895,4.16666667 L14.3157895,3.64583333 L16.2894737,3.64583333 L16.2894737,4.16666667 C16.2894737,5.15625 17.1052632,5.9375 18.0789474,5.9375 L18.4736842,5.9375 C19.4736842,5.9375 20.2631579,5.13020833 20.2631579,4.16666667 L20.2631579,3.64583333 L22,3.64583333 C22.7894737,3.64583333 23.4210526,4.27083333 23.4210526,5.05208333 L23.4210526,7.65625 L1.23684211,7.65625 L1.23684211,5.05208333 C1.23684211,4.296875 1.86842105,3.64583333 2.65789474,3.64583333 Z M22.0789474,23.6458333 L2.65789474,23.6458333 C1.86842105,23.6458333 1.23684211,23.0208333 1.23684211,22.2395833 L1.23684211,8.88020833 L23.5,8.88020833 L23.5,22.2395833 C23.5,23.0208333 22.8421053,23.6458333 22.0789474,23.6458333 Z" id="Shape"></path>
                            <path d="M18.3421053,17.34375 C17.2105263,17.34375 16.3157895,18.2552083 16.3157895,19.3489583 C16.3157895,20.4427083 17.2368421,21.3541667 18.3421053,21.3541667 C19.4473684,21.3541667 20.3684211,20.4427083 20.3684211,19.3489583 C20.3684211,18.2552083 19.4473684,17.34375 18.3421053,17.34375 Z M18.3421053,20.15625 C17.8947368,20.15625 17.5263158,19.7916667 17.5263158,19.3489583 C17.5263158,18.90625 17.8947368,18.5416667 18.3421053,18.5416667 C18.7894737,18.5416667 19.1578947,18.90625 19.1578947,19.3489583 C19.1315789,19.7916667 18.7894737,20.15625 18.3421053,20.15625 Z" id="Shape"></path>
                            <path d="M7.81578947,12.578125 L5.02631579,12.578125 C4.68421053,12.578125 4.42105263,12.8385417 4.42105263,13.1770833 C4.42105263,13.515625 4.68421053,13.7760417 5.02631579,13.7760417 L7.84210526,13.7760417 C8.18421053,13.7760417 8.44736842,13.515625 8.44736842,13.1770833 C8.44736842,12.8645833 8.15789474,12.578125 7.81578947,12.578125 Z" id="Path"></path>
                            <path d="M13.7631579,18.75 L10.9736842,18.75 C10.6315789,18.75 10.3684211,19.0104167 10.3684211,19.3489583 C10.3684211,19.6875 10.6315789,19.9479167 10.9736842,19.9479167 L13.7894737,19.9479167 C14.1315789,19.9479167 14.3947368,19.6875 14.3947368,19.3489583 C14.3684211,19.0364583 14.1052632,18.75 13.7631579,18.75 Z" id="Path"></path>
                            <path d="M16.9210526,13.8020833 L19.7368421,13.8020833 C20.0789474,13.8020833 20.3421053,13.5416667 20.3421053,13.203125 C20.3421053,12.8645833 20.0789474,12.6041667 19.7368421,12.6041667 L16.9210526,12.6041667 C16.5789474,12.6041667 16.3157895,12.8645833 16.3157895,13.203125 C16.3157895,13.515625 16.5789474,13.8020833 16.9210526,13.8020833 Z" id="Path"></path>
                            <path d="M13.7631579,12.578125 L10.9736842,12.578125 C10.6315789,12.578125 10.3684211,12.8385417 10.3684211,13.1770833 C10.3684211,13.515625 10.6315789,13.7760417 10.9736842,13.7760417 L13.7894737,13.7760417 C14.1315789,13.7760417 14.3947368,13.515625 14.3947368,13.1770833 C14.3684211,12.8645833 14.1052632,12.578125 13.7631579,12.578125 Z" id="Path"></path>
                            <path d="M7.81578947,18.75 L5.02631579,18.75 C4.68421053,18.75 4.42105263,19.0104167 4.42105263,19.3489583 C4.42105263,19.6875 4.68421053,19.9479167 5.02631579,19.9479167 L7.84210526,19.9479167 C8.18421053,19.9479167 8.44736842,19.6875 8.44736842,19.3489583 C8.44736842,19.0364583 8.15789474,18.75 7.81578947,18.75 Z" id="Path"></path>
                        </g>
                    </g>
                </g>
            </g>
        </g>
    </g>
</svg>