<?xml version="1.0" encoding="UTF-8"?>
<svg width="104px" height="72px" viewBox="0 0 104 72" version="1.1" xmlns="http://www.w3.org/2000/svg" xmlns:xlink="http://www.w3.org/1999/xlink">
    <!-- Generator: Sketch 64 (93537) - https://sketch.com -->
    <title>Excrecises illustration </title>
    <desc>Created with Sketch.</desc>
    <defs>
        <linearGradient x1="49.9993511%" y1="99.9992914%" x2="49.9993511%" y2="0.00518749242%" id="linearGradient-1">
            <stop stop-color="#808080" stop-opacity="0.25" offset="0%"></stop>
            <stop stop-color="#808080" stop-opacity="0.12" offset="54%"></stop>
            <stop stop-color="#808080" stop-opacity="0.1" offset="100%"></stop>
        </linearGradient>
    </defs>
    <g id="Page-1" stroke="none" stroke-width="1" fill="none" fill-rule="evenodd">
        <g id="All-excercise--option-1" transform="translate(-225.000000, -351.000000)">
            <g id="Kegel-Excises-" transform="translate(197.000000, 306.000000)">
                <g id="Excrecises-illustration-" transform="translate(28.000000, 45.000000)">
                    <path d="M102,21.2113937 C101.01179,18.8557542 99.6760714,16.6704701 98.0398316,14.7324151 L43.0973005,14.1769129 L88.3334825,7.65375732 C85.4115092,6.45842527 82.3004417,5.82471953 79.155339,5.78422468 C70.2688578,-1.51201626 57.769663,-1.94704525 48.4223813,4.71457755 C44.7845303,2.79504397 40.7518966,1.79785267 36.6617979,1.80641567 C24.4544826,1.80641567 14.2821775,10.4876643 12,22 L102,21.2113937 Z" id="Path" fill="#C263FF" fill-rule="nonzero" opacity="0.1"></path>
                    <path d="M104,29.860004 C104.0027,26.8244925 103.42061,23.8167 102.285338,21 L6.90757354,30.9787006 C5.92671802,32.7512146 5.17614489,34.6409417 4.67394089,36.6023445 L34.2090564,40.98939 L4,44.1882774 C4.90867404,56.8604411 15.8081779,66.8674747 29.1237827,66.8674747 C35.8255976,66.8674747 41.9149057,64.331214 46.4280173,60.1955096 C50.9539659,64.4089013 57.1019572,67 63.8762093,67 C73.9275562,67 82.6016797,61.2959269 86.6416574,53.0482813 C94.7463696,50.4891715 101.037401,44.0466124 103.196763,35.992728 L65.8439333,30.2228492 L103.994489,30.2228492 C103.994489,30.1022054 104,29.9815617 104,29.860004 Z" id="Path" fill="#C263FF" fill-rule="nonzero" opacity="0.1"></path>
                    <ellipse id="Oval" fill="#FFB463" fill-rule="nonzero" cx="44" cy="67.5" rx="38" ry="3.5"></ellipse>
                    <path d="M74.4110786,60.5017316 C74.2970908,60.6052221 73.8748804,60.8058483 73.3058537,61.0464183 L73.2018969,61.0899932 C73.2697826,61.0369376 73.3145249,60.9598839 73.3268274,60.874842 C73.3268274,60.0033433 66.6617379,61.7454329 65.3704851,61.7454329 C64.7786609,61.7454329 64.1248273,61.5711331 63.5913648,61.3823084 C62.6564695,61.0486961 61.6901169,60.8099405 60.7070197,60.6696767 L60.7070197,60.6696767 C60.2827002,60.4078064 59.8395255,60.1775033 59.3811147,59.980648 L59.3811147,59.9742933 C59.4075598,59.9225481 59.4321812,59.869895 59.4531549,59.817242 C59.4531549,59.8090717 59.4595382,59.7999935 59.4631858,59.7909154 L59.4960143,59.7073968 C59.5060452,59.6801625 59.5160761,59.6529281 59.5242832,59.6256938 C59.9154891,58.4773127 59.6884255,57.1909442 59.2744222,56.0407475 C59.0692443,55.4733655 58.8184713,54.8723945 58.9598161,54.2868563 C58.9866634,54.1783022 59.024551,54.0727537 59.0728919,53.9718458 L59.0728919,53.9718458 L59.0728919,53.9718458 C59.0938656,53.9282709 59.1166632,53.8810647 59.1403726,53.8429366 C59.1513154,53.822057 59.1640821,53.8002695 59.1768487,53.7793898 C59.2096771,53.7240134 59.2434175,53.6686369 59.2789817,53.6141682 C59.3026911,53.5787636 59.3264006,53.5424511 59.3510219,53.5070465 C59.4175907,53.4099107 59.4859834,53.3118671 59.5507284,53.2129157 L59.5589355,53.2011141 C59.5808211,53.1684329 59.6017949,53.1348439 59.6218567,53.1012549 C59.6419186,53.0676659 59.6546852,53.0486019 59.6701875,53.0222753 L59.692985,52.9823316 C59.6970069,52.9774607 59.7006643,52.9723026 59.7039279,52.9668988 C59.7139588,52.9478348 59.7258135,52.9269552 59.7358444,52.9069833 L59.7476991,52.8833802 C59.7739962,52.8334689 59.797736,52.7822632 59.8188275,52.7299601 C59.8279465,52.7054492 59.8379774,52.6818461 59.8452726,52.658243 C59.8525678,52.63464 59.8516559,52.6355478 59.8553035,52.624654 C59.8644226,52.5956041 59.8735416,52.5674619 59.8817487,52.5338729 L59.8872201,52.5129933 L59.8926915,52.4912058 C59.897251,52.4730496 59.9027224,52.4548933 59.90637,52.4367371 C59.9065351,52.4391552 59.9065351,52.4415816 59.90637,52.4439996 C60.0148863,51.990094 59.9647318,51.4917057 59.8753654,51.0232751 C59.7880152,50.5742352 59.6697979,50.1316957 59.5215475,49.6987786 C59.3674361,49.244873 59.1777606,48.7673644 59.2653031,48.2934869 C59.2954772,48.1508483 59.3407158,48.0117854 59.4002646,47.8786172 C59.4002646,47.8786172 59.4002646,47.8786172 59.4002646,47.8786172 C59.4394764,47.7878361 59.4805119,47.697055 59.5178999,47.600827 C59.5397856,47.5463583 59.5598474,47.4909818 59.5789973,47.4356054 L59.5954116,47.3856758 C59.6045306,47.3584414 59.6109139,47.3312071 59.6182091,47.3039727 L59.6236805,47.278554 C59.6236805,47.274015 59.6236805,47.2694759 59.6236805,47.2658447 L59.6236805,47.2658447 C59.6820336,46.9794737 59.696789,46.6859941 59.6674518,46.3952538 C59.6200329,45.7116719 59.4577144,45.0217355 59.0774514,44.45163 C58.8597051,44.1223886 58.5669452,43.8489824 58.2229995,43.653664 C58.1097354,43.5905117 57.9902579,43.5391022 57.8664459,43.5002439 C57.8764769,43.4820877 57.8883316,43.4648393 57.8983625,43.4475909 C57.9310578,43.3908513 57.9553233,43.3296953 57.9704027,43.2660286 C57.9925481,43.1155377 57.9807101,42.9620247 57.9357505,42.8166621 C57.7834629,42.1748396 57.6266158,41.5221234 57.3147454,40.9402164 C57.002875,40.3583095 56.5095362,39.8408571 55.8757645,39.6429543 C55.5593346,39.543095 55.2173715,39.5258466 54.9137082,39.3896749 C54.7851301,39.331575 54.6656709,39.2535033 54.5407404,39.1863252 C54.2043122,39.0033131 53.8296021,38.9010409 53.4464584,38.8876554 C53.3716824,38.8831163 53.2987303,38.8876554 53.2248663,38.8876554 L53.1783593,38.8876554 C53.1181738,38.8876554 53.0589001,38.8976413 52.9959789,38.9049038 C52.9202911,38.9148897 52.8436913,38.92306 52.772563,38.9366772 C52.633954,38.9639115 52.5181424,39.0174724 52.4816664,39.1745237 C52.4816664,39.1745237 52.4816664,39.1808784 52.4816664,39.1845096 C52.4816664,39.1881409 52.4816664,39.2062971 52.4752831,39.2171908 C52.4351594,39.2108361 52.3941238,39.2044815 52.3530882,39.1999424 C52.2041055,39.1835331 52.0543243,39.1753503 51.9044326,39.1754315 C49.941,39.1804907 48.284897,40.6323488 48.031586,42.5706453 C47.9475707,42.5824368 47.86291,42.5891065 47.7780774,42.5906171 C47.4331116,42.5905973 47.0894655,42.5482154 46.7549237,42.4644314 L46.1694828,42.2973941 L46.1694828,42.2973941 C46.1694828,42.2973941 46.1749542,42.2828691 46.1877208,42.2538192 L46.2944133,42.173024 L46.2150779,42.1884568 C46.3463917,41.8879713 46.7148,41.0437069 46.919066,40.6388231 C47.168927,40.1413426 48.959902,39.5194919 48.959902,39.5194919 C51.4220366,39.3951218 53.3370302,37.6130885 53.3370302,37.6130885 C53.3370302,37.6130885 58.4546225,38.4419201 61.6189214,38.1904564 C64.7832204,37.9389927 65.8674715,38.937585 65.8674715,38.937585 C65.8674715,38.937585 67.9511669,44.6195751 71.4090981,43.0772039 C74.0107537,41.9179291 69.369174,38.6080495 66.9134227,37.0411674 C67.0547675,37.120147 67.1942885,37.20185 67.3310737,37.2889999 C67.467859,37.3761498 67.625618,37.4778246 67.7815532,37.5794995 C67.4897446,37.3843201 67.2116146,37.2027578 66.9562821,37.0402596 C66.1024223,36.4952823 65.1563699,36.1089623 64.1640391,35.9000488 L55.1252694,34 L55.0960886,34 L55.0805862,34 C52.7030572,34.2566751 50.368755,34.8177997 48.1355428,35.6694647 C45.4554637,36.6907523 42.3385837,38.1060299 42.0413038,38.3928983 C41.2388303,39.1736159 40.0415033,39.9270992 40.0415033,39.9270992 C39.1587825,40.0532849 37.9897245,40.8666837 37.2009295,41.49035 L37.0714395,41.5929327 C37.056849,41.523939 37.0522895,41.4821797 37.0522895,41.4821797 C37.0522895,41.4821797 35.9425052,42.1512365 35.9270028,42.5243469 C35.9115005,42.8974573 33.661839,44.7030937 33.661839,44.7030937 C33.661839,44.7030937 32.3961194,46.6975549 31.7085455,46.7937829 C31.0209717,46.8900109 30.0206155,49.0487858 30.0206155,49.0487858 L28.8351433,51.3664277 C28.8351433,51.3664277 28.2104906,52.0018956 28.2880022,52.3931622 C28.3655139,52.7844288 27.8037824,53.2483203 27.8037824,53.2483203 C27.8037824,53.2483203 26.8973521,54.0254067 26.9128545,54.2904875 C26.9283568,54.5555684 26.444137,54.8351742 26.444137,54.8351742 C26.444137,54.8351742 25.7729773,56.0325772 25.5696233,56.6707684 C25.5541039,56.7195029 25.5541039,56.7718228 25.5696233,56.8205573 L25.5577685,56.8260041 C25.5577685,56.8260041 24.9914776,58.0969398 25.0106275,58.5989594 C25.0215703,58.9802401 24.8054496,59.3878473 24.7033166,59.5585158 L24.6613692,59.5739486 L24.6951095,59.5739486 C24.6695763,59.6166157 24.6522502,59.6420344 24.6513382,59.64385 L24.6513382,59.64385 C24.6513382,59.64385 22.1308419,57.9190088 18.4440233,58.7260529 C14.7572048,59.5330971 15.0034182,61.6818861 15.0034182,61.6818861 C15.0034182,61.6818861 15.1493225,64.3254322 16.211688,65.2323356 C17.2740535,66.139239 17.9443012,66.1809983 18.5443325,66.8663957 C19.1443639,67.5517932 22.2730986,67.864988 22.2730986,67.864988 C22.2730986,67.864988 28.4594398,68.1754594 31.7924405,67.864988 C35.1254412,67.5545166 36.6328147,67.5536088 36.6328147,67.5536088 C36.6328147,67.5536088 40.2941001,67.0997032 41.9391708,67.3874793 C43.5842414,67.6752555 45.9177979,67.5953681 45.9177979,67.5953681 C45.9597921,67.5171358 45.9904913,67.4333974 46.0089881,67.3466278 L46.0427284,67.3466278 C46.0840941,67.2713148 46.1147823,67.1906612 46.1339186,67.1069657 C46.9266287,66.9347799 47.730955,66.820695 48.5404272,66.7656287 C50.2475072,66.6830179 51.7466736,66.0194079 51.7466736,66.0194079 C51.7466736,66.0194079 53.0297193,66.0303016 54.9556557,67.3566138 C56.8815921,68.6829259 62.6220133,67.9267192 62.6220133,67.9267192 L65.7890479,67.6779789 C65.7890479,67.6779789 67.8709195,67.34572 68.5384316,68.2172187 C69.2059436,69.0887175 70.8291287,69.4200686 71.3707983,68.2172187 C71.9124679,67.0143689 74.4539379,64.692188 74.4539379,64.692188 C74.4539379,64.692188 76.7874944,63.3640602 77.8279742,59.9234559 C78.8684541,56.4828515 74.8679413,60.0886775 74.4110786,60.5017316 Z M56.2213753,46.7847048 C56.3973723,46.5976957 56.5414528,46.3816366 56.7183617,46.1946275 C56.9572799,45.9431638 57.2545599,45.7516156 57.4907424,45.4983363 C57.6156017,45.3664799 57.7145744,45.2125288 57.782551,45.0444307 L57.7880224,45.0544167 L57.8372651,45.1842337 C57.8436484,45.2051133 57.8482079,45.2250852 57.8536793,45.2459648 C57.8591507,45.2668445 57.8646221,45.2940788 57.8691816,45.3185897 C57.8737411,45.3431006 57.874653,45.345824 57.8764769,45.3594412 C57.8819483,45.3966615 57.8855959,45.4347895 57.8874197,45.4729176 C57.8874197,45.4883504 57.8874197,45.5037832 57.8874197,45.519216 C57.8874197,45.5346488 57.8874197,45.5691456 57.8874197,45.5945643 C57.8874197,45.619983 57.8874197,45.6354158 57.8874197,45.6553877 C57.8874197,45.6929105 57.8837721,45.7301308 57.8764769,45.7670484 C57.8764769,45.7897437 57.8700935,45.812439 57.8664459,45.8351343 C57.8627983,45.8578295 57.8600626,45.8741701 57.856415,45.8932342 C57.8527674,45.9122982 57.8500317,45.9295466 57.8454722,45.9477029 C57.8454722,45.9477029 57.8454722,45.9477029 57.8454722,45.9531497 C57.8363532,45.9930934 57.8272342,46.0330371 57.8172032,46.0729808 L57.8172032,46.0729808 C57.7897969,46.1796009 57.7559959,46.2844898 57.7159822,46.3870835 C57.6475895,46.5686457 57.5673422,46.7502079 57.4971257,46.9317702 L57.4971257,46.9317702 C57.4779758,46.980792 57.4597378,47.0307216 57.4424116,47.0797434 C57.4351164,47.1015309 57.4278212,47.1224105 57.4196141,47.144198 C57.411407,47.1659854 57.4041118,47.1941276 57.3959047,47.2186385 L57.3959047,47.2295322 C57.3685908,47.3189956 57.3463659,47.409921 57.3293358,47.5018756 C57.3289008,47.5088287 57.3289008,47.5158021 57.3293358,47.5227552 C57.3293358,47.5291099 57.3293358,47.5363724 57.3293358,47.5427271 L57.3211287,47.6044582 C57.3211287,47.6044582 57.3211287,47.6044582 57.3211287,47.6117207 C57.3211287,47.6189832 57.3211287,47.6371394 57.3211287,47.648941 C57.3211287,47.6843456 57.3211287,47.7188425 57.3147454,47.7542471 C57.3147454,47.7724033 57.3147454,47.7896517 57.3147454,47.8069001 C57.3147454,47.8495673 57.3147454,47.8922344 57.3211287,47.9339937 C57.3211287,47.9503343 57.3211287,47.9675827 57.327512,47.9839233 C57.3338953,48.0002639 57.327512,48.023867 57.3338953,48.0438389 C57.3343196,48.0468502 57.3343196,48.0499057 57.3338953,48.052917 C57.3338953,48.071981 57.3402786,48.0901372 57.3439263,48.1082934 C57.3475739,48.1264497 57.3539572,48.1618543 57.3594286,48.1890886 L57.3676357,48.2235855 C57.3676357,48.2417417 57.3749309,48.2608057 57.3804023,48.2789619 C57.3858737,48.2971182 57.3867856,48.3043807 57.3904332,48.31709 C57.3940808,48.3297994 57.3904332,48.3361541 57.3977285,48.3452322 L57.411407,48.394254 C57.411407,48.4078711 57.4196141,48.4214883 57.4232617,48.4341977 L57.4506188,48.5249788 C57.4597378,48.5513053 57.4679449,48.5776318 57.476152,48.6039583 C57.6138492,49.0251827 57.7789034,49.4409602 57.7123345,49.860369 L57.7123345,49.860369 C57.7077165,49.8942668 57.7013245,49.9279016 57.6931846,49.9611361 C57.6065539,50.3070121 57.3612524,50.5866179 57.133277,50.8607769 C56.7968419,51.2613496 56.4809223,51.6785652 56.186723,52.1108329 C56.06398,52.2811354 55.9565672,52.4618852 55.8657336,52.6509806 L55.8657336,52.6509806 C55.843848,52.6990945 55.8237861,52.7481164 55.8055481,52.7971382 L55.7827505,52.8579615 C55.6259034,53.3481795 55.7097984,53.8801569 55.7946053,54.3876233 L56.1429517,56.4701422 C56.1538945,56.5345968 56.1648374,56.5990514 56.1748683,56.6644138 L56.1858111,56.7361308 L56.1940182,56.7924151 C56.2067848,56.8831962 56.2177277,56.9794242 56.2250229,57.0729288 C56.2250229,57.0820069 56.2250229,57.0919928 56.2250229,57.1010709 C56.2250229,57.139199 56.2250229,57.1764193 56.2304943,57.2145473 C56.2304943,57.2272567 56.2304943,57.239966 56.2304943,57.2526754 C56.2304943,57.2898957 56.2304943,57.3262081 56.2304943,57.3634284 C56.2304943,57.3743221 56.2304943,57.3852158 56.2304943,57.3961096 C56.2304943,57.4433157 56.2304943,57.4868907 56.2204634,57.5368203 C56.2204634,57.5368203 56.2204634,57.5440828 56.2204634,57.547714 C56.2149919,57.595828 56.2076967,57.643942 56.1985777,57.6911482 L56.1985777,57.6911482 C56.1876423,57.7480114 56.1730213,57.8041103 56.1548064,57.8590933 C56.0645848,58.1062762 55.9396275,58.3394819 55.7836624,58.5517532 L55.7836624,58.5517532 L55.5547751,58.4700502 C55.5547751,58.4700502 53.6397815,56.01896 52.847339,54.9032601 C52.0548964,53.7875601 52.3056693,53.2446891 52.3056693,53.2446891 C52.4305999,51.2956185 50.9305216,49.8022691 50.1809384,49.4318821 C49.9009845,49.292987 49.6447402,48.9934093 49.433179,48.672952 C49.5021232,48.6707927 49.5711193,48.6750476 49.6392688,48.6856614 L49.5854666,48.5549365 C49.6037046,48.5549365 49.6210307,48.5549365 49.6392688,48.5612912 L48.7693145,46.4533537 C48.9791808,46.3615924 49.2007169,46.298973 49.4277076,46.2672524 C49.4970121,46.2563587 49.5672285,46.2463727 49.636533,46.2382024 C50.1535942,46.6121429 50.7552534,46.8534731 51.3882962,46.9408483 C51.427508,46.9462951 51.4667198,46.9481108 51.5059315,46.9526498 C51.4959006,46.966267 51.4867816,46.980792 51.4785745,46.9944091 L51.4676317,47.0161966 C51.4629173,47.0249265 51.4589517,47.0340369 51.4557769,47.0434309 C51.4517734,47.0537241 51.4487211,47.0643593 51.4466579,47.0752043 C51.4466579,47.0824668 51.4466579,47.0879137 51.4466579,47.0951762 C51.4439375,47.1135357 51.4439375,47.1321932 51.4466579,47.1505527 C51.8178019,47.182326 52.2272458,47.2313479 52.4698116,47.5136771 C52.5161395,47.5810163 52.5749439,47.6389408 52.643073,47.6843456 C52.7028581,47.7073321 52.7669919,47.71694 52.8309247,47.7124878 L53.2348972,47.7124878 C53.707441,47.7210801 54.1796783,47.6830692 54.6446972,47.5990114 C55.2201072,47.4764569 55.8037243,47.2240854 56.2213753,46.7847048 Z M48.5559295,46.576816 C48.6138464,46.5288484 48.6775669,46.4882868 48.7456051,46.4560771 C48.7255432,46.4678787 48.6589744,46.509638 48.5559295,46.576816 Z M51.2059235,60.3374178 C49.3465483,59.2199022 48.2066712,59.6738078 48.2066712,59.6738078 L47.9987576,59.6738078 C47.0868559,59.6738078 39.9576084,59.3034208 39.9576084,59.3034208 L39.8335897,59.3034208 C39.8748488,59.2997888 39.9163493,59.2997888 39.9576084,59.3034208 C39.9576084,59.3034208 39.8928633,58.8831043 39.747871,58.6552437 C39.7350677,58.6353495 39.7210593,58.6162501 39.7059235,58.5980516 C39.7907303,58.2349271 39.9621679,57.3870314 39.9266037,56.7134356 C39.8791848,55.8274119 39.9266037,55.0185521 39.9266037,55.0185521 C41.8643948,55.6821621 44.5390025,54.345864 44.5773024,54.3249844 C46.6746763,53.7394462 47.4953878,54.1997064 47.4953878,54.1997064 C47.6622659,54.9459272 49.5371358,58.0978476 49.5371358,58.0978476 C49.5371358,58.0978476 51.2451277,59.3833082 51.9080802,60.3791771 C52.0049229,60.5212844 52.1144947,60.6543683 52.2354529,60.7767984 C52.1314961,60.7413937 52.0320988,60.7059891 51.938173,60.6705845 C51.6849455,60.5806297 51.4399573,60.4691635 51.2059235,60.3374178 Z" id="Shape" fill="url(#linearGradient-1)" fill-rule="nonzero"></path>
                    <path d="M71.2488246,42.7911008 C67.8721927,44.2841315 65.8380662,38.7837741 65.8380662,38.7837741 C65.8380662,38.7837741 64.7816239,37.8196926 61.6892447,38.0609364 C58.5968654,38.3021801 53.5943807,37.4980343 53.5943807,37.4980343 C53.5943807,37.4980343 51.7232015,39.2260543 49.3233487,39.3439957 C49.3233487,39.3439957 47.57438,39.9462116 47.3317695,40.4286991 C47.1335168,40.82005 46.7732221,41.6375983 46.6446747,41.9279843 C46.6372372,41.9496369 46.6284701,41.9708222 46.6184221,41.9914224 C46.6057484,42.0191208 46.6003168,42.0343102 46.6003168,42.0343102 L46.4998326,42.080772 L46.4998326,42.080772 L44.4847166,43.0359185 L41.7191373,43.799857 L39.9692635,44 L37,41.9690851 C37,41.9690851 37.3430948,41.6527877 37.8473264,41.2542888 C38.6177054,40.6511794 39.7592424,39.8631165 40.621053,39.7416011 C40.621053,39.7416011 41.7906531,39.0116154 42.5737058,38.2566119 C42.8642953,37.9751608 45.9077904,36.6054325 48.5240012,35.6163331 C50.7046405,34.7920497 52.983883,34.248791 55.3053282,34 L64.1307397,35.8397069 C65.1004035,36.0414516 66.0250858,36.4146894 66.8601084,36.9413867 C69.2545297,38.4630093 73.7926144,41.6670836 71.2488246,42.7911008 Z" id="Path" fill="#FFC1C7" fill-rule="nonzero"></path>
                    <g id="Group" opacity="0.1" transform="translate(37.000000, 34.000000)" fill="#000000" fill-rule="nonzero">
                        <path d="M0.376524217,8.16371681 C0.376524217,8.16371681 0.722051282,7.84955752 1.22985755,7.45575221 C2.00569801,6.85840708 3.15532764,6.07787611 4.02324786,5.95752212 C4.02324786,5.95752212 5.2011396,5.23451327 5.98974359,4.48672566 C6.28239316,4.20707965 9.34746439,2.85132743 11.9822222,1.87168142 C14.1785236,1.05727953 16.4739711,0.521581604 18.8116239,0.277876106 L27.6996011,2.09911504 C28.6759549,2.2990814 29.6069189,2.66906588 30.4474074,3.19115044 C30.5890218,3.27905605 30.7367142,3.3719764 30.8904843,3.4699115 C30.6033048,3.28230088 30.3298006,3.1079646 30.0790883,2.95221239 C29.23847,2.43056039 28.3075331,2.06088651 27.3312821,1.86106195 L18.4433048,0.0389380531 C16.105383,0.285244153 13.8099684,0.823313951 11.6139031,1.63982301 C8.97823362,2.61946903 5.91316239,3.97610619 5.6214245,4.25486726 C4.83190883,5.00265487 3.65492877,5.72566372 3.65492877,5.72566372 C2.78700855,5.8460177 1.63646724,6.62654867 0.861538462,7.22389381 C0.353732194,7.6159292 0.00820512821,7.93185841 0.00820512821,7.93185841 L2.99851852,9.94336283 L3.01037037,9.94336283 L0.376524217,8.16371681 Z" id="Path"></path>
                        <path d="M29.4217664,5.00530973 C29.3098021,4.91688309 29.1873817,4.84172197 29.057094,4.78141593 C29.1391453,4.9920354 30.1766382,7.60088496 31.9462108,8.60265487 C30.3325356,7.42654867 29.4217664,5.00530973 29.4217664,5.00530973 Z" id="Path"></path>
                    </g>
                    <path d="M59.9163173,51.448449 C59.9038806,51.4982309 59.8888391,51.5473783 59.8712502,51.5957039 C59.8632383,51.6207276 59.8522219,51.6457513 59.8432085,51.6698126 C59.8177397,51.7299359 59.7889904,51.7887269 59.7570803,51.8459411 C59.7440609,51.8719272 59.7290385,51.8979134 59.7160191,51.9229371 C59.7128097,51.9286662 59.7091257,51.9341377 59.7050028,51.9392988 C59.6909819,51.9643225 59.676961,51.9874213 59.6619387,52.0105201 C59.5617896,52.1741367 59.4456167,52.3300537 59.3344512,52.4917454 C59.2973961,52.5437177 59.2603409,52.5966525 59.2252888,52.6505497 C59.2190047,52.6615651 59.2119794,52.6721746 59.2042575,52.6823106 C59.1852291,52.7121466 59.1651993,52.7439074 59.1471725,52.7785557 C59.1291457,52.8132039 59.1151248,52.830528 59.1011039,52.8565142 C59.0870831,52.8825003 59.0850801,52.8834628 59.0780696,52.8969371 L59.0350056,52.9768205 C58.9847777,53.0771085 58.9448625,53.1818713 58.9158282,53.2896169 C58.7615986,53.900773 59.0340041,54.5273283 59.2553335,55.118273 C59.7019983,56.3174864 59.948365,57.6591425 59.5257359,58.856431 C59.515721,58.884342 59.5057061,58.9132155 59.4946897,58.9420891 C59.4836733,58.9709626 59.464645,59.0181227 59.4486212,59.0556582 C59.4245854,59.1134053 59.3975451,59.1701898 59.3675004,59.2269744 C59.1391606,59.6543025 58.7475778,60.0383203 58.2658608,59.9969349 C57.6038755,59.9411127 57.282397,59.1615278 56.6794997,58.8958914 C56.1557201,58.6649033 55.4937349,58.8535436 55,58.5686582 C55.041148,58.438906 55.0972453,58.3139756 55.1672489,58.1961899 C55.2563816,58.038348 55.367547,57.8872432 55.4676961,57.737101 C55.6357036,57.5153324 55.7705467,57.2720334 55.8682923,57.0143006 C55.887497,56.9568367 55.9032134,56.8983496 55.9153624,56.8391346 C55.9159285,56.8346596 55.9159285,56.8301352 55.9153624,56.8256603 C55.9203698,56.7958243 55.9263788,56.7679132 55.9303848,56.7380773 C55.9343907,56.7082413 55.9383967,56.6812927 55.9414011,56.6504943 C55.94193,56.6453738 55.94193,56.6402156 55.9414011,56.6350951 C55.9414011,56.6014093 55.9414011,56.5677235 55.9484116,56.5330753 C55.9494162,56.2078985 55.915859,55.8834734 55.8482625,55.56485 C55.72341,54.8410872 55.5978899,54.1173244 55.4717021,53.3935616 C55.3795649,52.8642138 55.2894308,52.3098422 55.4596842,51.798781 C55.4727036,51.7622079 55.4867244,51.7256347 55.5007453,51.6900241 C55.5147662,51.6544134 55.5317915,51.6178403 55.5488168,51.5831921 C55.6471734,51.386243 55.7631127,51.1978598 55.8953326,51.0201585 C56.2131389,50.5710149 56.5539796,50.136308 56.9178545,49.716038 C57.1642211,49.4273028 57.4286147,49.1385676 57.5187488,48.7786111 C57.5284939,48.7438222 57.535854,48.7084564 57.5407816,48.6727416 C57.5988681,48.3252969 57.496716,47.9788147 57.3765372,47.63137 C57.361181,47.5909471 57.3471601,47.5505242 57.3344745,47.5101013 C57.2924119,47.3907574 57.2503493,47.2704511 57.2142957,47.1482199 C57.2022778,47.1087594 57.1912614,47.0683365 57.180245,47.0279135 C57.1588974,46.9469911 57.14185,46.8650768 57.129169,46.7824886 C57.1158268,46.7009571 57.1084644,46.6186251 57.1071362,46.5361013 C57.1071362,46.4976033 57.1071362,46.4581428 57.1071362,46.4196448 C57.1071362,46.3811468 57.1071362,46.3618977 57.1151481,46.3320618 C57.12316,46.3022258 57.1241615,46.2704649 57.129169,46.2358167 C57.1341764,46.2011685 57.1371809,46.1896191 57.1421884,46.1665203 C57.1471958,46.1434215 57.1572107,46.0962614 57.1672256,46.0625756 C57.1729024,46.0348218 57.1805994,46.0074852 57.1902599,45.9807673 C57.1952674,45.958631 57.2022778,45.9364946 57.2082867,45.9153207 L57.2343255,45.8383246 L57.2753866,45.7266804 C57.288406,45.6901073 57.3034283,45.6525717 57.3184507,45.6159986 C57.3935625,45.4235084 57.4796907,45.2310183 57.5548025,45.0462278 C57.5970336,44.9393573 57.63347,44.8304541 57.6639649,44.7199571 C57.6639649,44.7199571 57.6639649,44.7199571 57.6639649,44.7199571 C57.6639649,44.6997456 57.6749813,44.6776093 57.6799888,44.6564353 C57.6861605,44.6352065 57.6911748,44.6136825 57.6950112,44.5919512 C57.7019827,44.5653247 57.7073331,44.5383303 57.711035,44.5111053 C57.7180454,44.4754946 57.7250559,44.4379591 57.7290618,44.4013859 C57.7330678,44.3648128 57.7370738,44.3272773 57.7400782,44.2897417 C57.7430827,44.2522061 57.7400782,44.215633 57.7400782,44.1790599 C57.7418002,44.0486733 57.7225447,43.918814 57.6829933,43.7940796 C57.6681095,43.7431582 57.6486751,43.693568 57.6249068,43.6458623 L57.6249068,43.6458623 C57.6075246,43.6129043 57.5884735,43.5807842 57.5678219,43.5496172 C57.4396311,43.3494275 57.2403344,43.1963978 57.1241615,42.9875461 C57.0556192,42.8593529 57.0212102,42.7168311 57.0240125,42.5727299 C57.0236538,42.5334536 57.0263318,42.4942059 57.0320244,42.4553109 C57.0380663,42.4155094 57.047444,42.3762421 57.0600661,42.3378919 C57.0641956,42.3224419 57.0695526,42.3073191 57.07609,42.2926568 C57.0834342,42.2766159 57.0904447,42.2612167 57.0971213,42.2464591 C57.1069409,42.2272205 57.1179779,42.2085782 57.1301705,42.190637 C57.1401854,42.1781251 57.1491988,42.1646508 57.1592137,42.1531014 C57.2653717,42.0241331 57.4356251,41.9606113 57.6689724,42.026058 L57.7260574,42.0443445 C57.8594884,42.085504 57.9883164,42.1393468 58.1106297,42.2050738 C58.4821666,42.4086425 58.7985185,42.6935375 59.0340041,43.036631 C59.4446152,43.6314255 59.6198761,44.3513385 59.6709521,45.0635519 C59.7019825,45.3669764 59.6861207,45.6731435 59.623882,45.9721053 C59.623882,45.9846171 59.6168716,45.9990539 59.6148686,46.0115657 C59.6068567,46.0404393 59.5998462,46.0693128 59.5898313,46.0972238 C59.5290376,46.2719253 59.4588386,46.4434727 59.3795183,46.6111724 C59.3795183,46.6111724 59.3795183,46.6111724 59.3795183,46.6111724 C59.3152358,46.7502593 59.2662312,46.8954129 59.2333007,47.0442752 C59.1391606,47.5389748 59.3444661,48.0327119 59.5107136,48.509125 C59.6682026,48.9614011 59.7933466,49.4234914 59.8852711,49.8921664 C60.001444,50.4090024 60.0575274,50.950862 59.9163173,51.448449 Z" id="Path" fill="#965D7B" fill-rule="nonzero"></path>
                    <g id="Group" opacity="0.1" transform="translate(55.000000, 43.000000)" fill="#000000" fill-rule="nonzero">
                        <path d="M4.443,4.27467742 C4.52270199,4.11488171 4.59313302,3.95135737 4.654,3.78478495 C4.667,3.74548387 4.679,3.7061828 4.689,3.66596774 C4.58692139,3.86161292 4.50458029,4.06536019 4.443,4.27467742 Z" id="Path"></path>
                        <path d="M2.641,1.36548387 C2.863,1.69451613 2.841,2.09666667 2.731,2.48327957 C2.739,2.46317204 2.748,2.44397849 2.756,2.42387097 C2.947,1.96688172 3.056,1.41849462 2.776,0.996236559 C2.647,0.806129032 2.447,0.659892473 2.332,0.462473118 C2.25873803,0.331839864 2.22425683,0.185925032 2.232,0.0393010753 C2.063,0.231236559 2.051,0.574892473 2.202,0.832634409 C2.312,1.03005376 2.512,1.17537634 2.641,1.36548387 Z" id="Path"></path>
                        <path d="M4.106,10.2493548 C4.101,10.2694624 4.097,10.2895699 4.093,10.3105914 C4.313,9.88376344 4.701,9.52182796 4.893,9.07946237 C4.93340812,8.986714 4.96518737,8.89101655 4.988,8.7933871 C4.731,9.29698925 4.244,9.70553763 4.106,10.2493548 Z" id="Path"></path>
                        <path d="M4.633,15.725 C4.427,16.1893011 3.998,16.661828 3.451,16.617957 C2.79,16.5658602 2.47,15.8255376 1.867,15.5723656 C1.355,15.3575806 0.711,15.5239247 0.222,15.2780645 C0.152514134,15.3901066 0.096520452,15.5087024 0.055,15.6317742 C0.548,15.9059677 1.209,15.723172 1.732,15.9416129 C2.332,16.1947849 2.655,16.9360215 3.316,16.9881183 C3.863,17.0310753 4.292,16.5585484 4.498,16.0942473 C4.55320128,15.9689301 4.60028273,15.8407514 4.639,15.7103763 L4.633,15.725 Z" id="Path"></path>
                        <path d="M0.911,12.7792473 C0.984,13.1795699 1.056,13.5954301 0.97,13.9893548 C1.00355245,13.9234258 1.032608,13.8556618 1.057,13.7864516 C1.211,13.345 1.129,12.8669892 1.046,12.41 C0.921333333,11.7226882 0.796,11.0350717 0.67,10.3471505 C0.589,9.90021505 0.509,9.43317204 0.612,8.9972043 C0.577785596,9.06403479 0.548063727,9.13271073 0.523,9.20284946 C0.353,9.68817204 0.444,10.2137097 0.535,10.7163978 C0.661,11.4049283 0.786333333,12.0925448 0.911,12.7792473 Z" id="Path"></path>
                        <path d="M2.717,5.96553763 C2.91,5.25811828 2.317,4.5644086 2.306,3.83596774 C2.30765111,3.66653262 2.33422252,3.49806977 2.385,3.33510753 C2.25430814,3.61050528 2.18202763,3.90608217 2.172,4.20612903 C2.179,4.90075269 2.72,5.5633871 2.603,6.23790323 C2.65198204,6.15127942 2.69021932,6.05992399 2.717,5.96553763 Z" id="Path"></path>
                    </g>
                    <path d="M77.8282376,59.3968874 C76.7901703,62.6574368 74.4635315,63.91479 74.4635315,63.91479 C74.4635315,63.91479 71.9298339,66.1155953 71.3890776,67.2575308 C70.8483213,68.3994663 69.2297498,68.082942 68.5660522,67.2575308 C67.9023547,66.4321195 65.8243714,66.7477694 65.8243714,66.7477694 L62.6667242,66.9829766 C62.6667242,66.9829766 56.9448752,67.7008396 55.0240347,66.4434864 C53.1031943,65.1861332 51.8257153,65.1765151 51.8257153,65.1765151 C51.8257153,65.1765151 50.3300849,65.8043173 48.6283201,65.8838855 C47.8198954,65.9348266 47.0165743,66.0423781 46.2249587,66.205656 C45.7840343,66.2930937 45.3985721,66.3805313 45.1221855,66.442612 C44.8457989,66.5046927 44.6812611,66.5510347 44.6812611,66.5510347 L40.4513449,66.1479472 L36.4562187,65.7658447 L34.2968908,65.4895418 L33.7302521,64.3231237 L33.184874,63.2021732 L33,62.8191964 L33.2588235,58.8136783 L40.0714289,58.8136783 C40.0714289,58.8136783 47.1761352,59.1634289 48.0884882,59.1634289 L48.295547,59.1634289 C48.295547,59.1634289 49.4315975,58.7332357 51.2858833,59.7912311 C51.5223034,59.916653 51.7697188,60.0225535 52.0253791,60.1077553 C54.97227,61.1491376 63.2518503,62.5026722 63.2518503,62.5026722 L68.6131951,62.1878967 C68.6131951,62.1878967 71.627565,61.1491376 73.3274811,60.4645009 C73.8941197,60.2354143 74.3156324,60.0456746 74.4284055,59.9486188 C74.8785736,59.5542751 78.8663049,56.1354636 77.8282376,59.3968874 Z" id="Path" fill="#FFC1C7" fill-rule="nonzero"></path>
                    <path d="M35.5747547,62.2062529 L35.8998038,63.3859076 L34.7882276,64 L33.7233486,63.8805413 L33.1831262,62.6840877 L33,62.275315 L33.2563767,58 L40,58 C38.592675,58.1287914 35.5747547,62.2062529 35.5747547,62.2062529 Z" id="Path" fill="#000000" fill-rule="nonzero" opacity="0.1"></path>
                    <path d="M35.4838319,62.1996253 L35.8062856,63.3836386 L34.7044932,64 L31.9186751,63.6843256 L30.4181301,62.437552 C27.9656655,58.3337843 25,58.3159867 25,58.3159867 C25,58.3159867 25.3678697,57.7623855 25.3524282,57.2574938 C25.3369868,56.752602 25.8919704,55.4580558 25.8919704,55.4580558 L25.944653,55.4318276 C26.131767,55.3381557 26.7666828,55.0140508 26.8066489,55 C26.8066489,55 39.4023253,57.0991882 39.6475718,57.1788093 C39.7108717,57.2059022 39.7627251,57.2553912 39.7938113,57.3183805 C39.9364176,57.5488135 40,57.9740841 40,57.9740841 C38.6702192,57.847627 35.4838319,62.1996253 35.4838319,62.1996253 Z" id="Path" fill="#565988" fill-rule="nonzero"></path>
                    <path d="M50,45.7393775 C49.6195991,45.7319409 49.2392018,45.754369 48.8628336,45.8064245 C48.2363651,45.9013352 47.6360383,46.123374 47.902124,46.639723 C48.4053528,47.6175643 45.2169921,49.3390178 45.2169921,49.3390178 L40.769159,52 L38,48.0868933 L39.4275266,44.9173987 L43.4122773,43.039212 L45.595114,42.0622414 C45.595114,42.0622414 46.4596592,42.3556809 47.2196374,42.3391368 C47.5706839,42.3321709 47.9002567,42.2590287 48.1121917,42.0622414 C48.782541,41.4361792 50,45.7393775 50,45.7393775 Z" id="Path" fill="#FFC1C7" fill-rule="nonzero"></path>
                    <path d="M50,45.9295433 C49.7292765,45.9217285 49.4585555,45.9452971 49.1907019,46 C48.4430284,45.2768427 47.9985882,44.0968114 48,42.8386001 C47.9996872,42.6774038 48.0067889,42.5163417 48.0212729,42.3563836 C48.2711055,42.3490634 48.5056557,42.2722016 48.6564855,42.0654067 C49.1335594,41.4075061 50,45.9295433 50,45.9295433 Z" id="Path" fill="#000000" fill-rule="nonzero" opacity="0.1"></path>
                    <path d="M56,41.9995279 C56.0002509,43.0602679 55.5792755,44.0776625 54.8296833,44.8278965 C54.0800911,45.5781305 53.0632849,45.9997487 52.0029505,46 C51.8177023,46 51.6326792,45.9870895 51.4492507,45.9611786 C49.3669607,45.6724598 47.8638669,43.8198507 48.0097778,41.7219228 C48.1556887,39.623995 49.9007563,37.9974683 52.0029505,38 C52.1559961,38.0004165 52.3089121,38.0089502 52.4610542,38.0255681 C54.4779721,38.259644 55.9995936,39.9683063 56,41.9995279 Z" id="Path" fill="#FFC1C7" fill-rule="nonzero"></path>
                    <path d="M72.999166,60.3900645 C72.999166,60.8150129 70.4046639,61.6783874 68.1671449,62.3443513 C66.597701,62.7999222 64.9476043,63.0085178 63.2941436,62.9603678 C63.16048,62.9543761 63.0265128,62.9647847 62.8961803,62.9912876 C62.2823879,63.1332013 54.3030873,61.4944546 54.3030873,61.4944546 C54.3030873,61.4944546 52.6738967,60.8364189 52,60 C54.9032196,60.9442416 63.0601011,62.1715178 63.0601011,62.1715178 L68.3419938,61.8861047 C68.3419938,61.8861047 71.3116924,60.9442416 72.9864166,60.3234681 C72.9975875,60.3442327 73.0019975,60.3672683 72.999166,60.3900645 Z" id="Path" fill="#000000" fill-rule="nonzero" opacity="0.1"></path>
                    <path d="M48.9503865,46 C48.9503865,46 49.5229097,47.4899451 50.2592709,47.8540939 C50.9956322,48.2182426 52.4674445,49.6766402 52.3454762,51.5803087 C52.3454762,51.5803087 52.099719,52.1076033 52.8770398,53.2027535 C53.6543606,54.2979037 55.5357682,56.6856017 55.5357682,56.6856017 C55.5357682,56.6856017 59.3795922,58.0223159 60.6065575,58.8326369 L60.6111086,58.8326369 C61.5758726,58.9698525 62.524037,59.2039084 63.4409568,59.5311895 C63.9652387,59.7114612 64.6069379,59.8854233 65.187653,59.8854233 C66.4555779,59.8854233 73,58.1845604 73,59.0345412 C73,59.5185705 70.4068069,60.5001496 68.1695065,61.2572905 C66.6009126,61.7739481 64.9520181,62.0101781 63.2998739,61.9549418 C63.1662866,61.9485741 63.032449,61.9604022 62.9021114,61.9900948 C62.2886287,62.1514379 54.3124436,60.2883304 54.3124436,60.2883304 C54.3124436,60.2883304 52.6312826,59.5194719 51.9768404,58.5433009 C51.3223982,57.56713 49.6466985,56.3196502 49.6466985,56.3196502 C49.6466985,56.3196502 47.8062504,53.2415119 47.6442327,52.5123131 C47.6442327,52.5123131 46.7039841,51.9859199 44.2491431,52.7953396 C41.7943022,53.6047593 43.7148488,50.9718919 43.7148488,50.9718919 L46.4554963,47.8171382 L48.9503865,46 Z" id="Path" fill="#FFC1C7" fill-rule="nonzero"></path>
                    <path d="M50,47.8506567 L49.166272,45.7540602 C48.3895314,46.2638506 47.6661571,46.8557435 47.0078134,47.5201949 C46.009826,48.5510521 45.3314786,49.1725039 44.8529064,49.2936732 C44.3743341,49.4148425 42.7388422,50.2758791 42.0604949,48.5060726 C41.3821475,46.7362661 41.6609447,45.5401779 42.299337,44.9627877 C42.9377294,44.3853975 47.2573103,41.6701031 47.2573103,41.6701031 L46.6899491,41.6251236 C46.6899491,41.6251236 42.740618,43.0543709 41.5037883,42.4017088 C41.5037883,42.4017088 39.3089262,42.7808219 38.830354,41.9555854 C38.3517817,41.1303488 37.8998461,41 37.8998461,41 L35,45.049075 L36.0379425,54 L38.7104889,54 L41.5828105,52.8452196 L45.4131644,52.5147578 C45.4131644,52.5147578 46.8497691,51.1121311 47.0495442,50.4521254 C47.2493193,49.7921198 48.7667219,47.6441181 50,47.8506567 Z" id="Path" fill="#000000" fill-rule="nonzero" opacity="0.1"></path>
                    <path d="M50,47.8524926 L49.166272,45.7558961 C48.3895314,46.2656865 47.6661571,46.8575794 47.0078134,47.5220308 C46.009826,48.553806 45.3314786,49.1743398 44.8529064,49.2955091 C44.3743341,49.4166784 42.7388422,50.277715 42.0604949,48.5079085 C41.3821475,46.738102 41.6609447,45.5420138 42.299337,44.9646236 C42.9377294,44.3872334 47.2573103,41.7940263 47.2573103,41.7940263 L46.6899491,41.6260415 C46.6899491,41.6260415 42.740618,43.0543709 41.5037883,42.4017088 C41.5037883,42.4017088 39.3089262,42.7808219 38.830354,41.9555854 C38.3517817,41.1303488 37.8998461,41 37.8998461,41 L35,45.049075 L36.0379425,54 L38.7104889,54 L41.5828105,52.8452196 L45.4131644,52.5147578 C45.4131644,52.5147578 46.8497691,51.113049 47.0495442,50.4530434 C47.2493193,49.7930377 48.7667219,47.6441181 50,47.8524926 Z" id="Path" fill="#565988" fill-rule="nonzero"></path>
                    <path d="M39,57.1523696 C38.9524457,57.3683905 38.9140364,57.5068878 38.9140364,57.5068878 C38.9140364,57.5068878 38.7448527,57.4476562 36.6652648,57.8300481 C34.5856769,58.2124399 32.5198067,57.8300481 32.5198067,57.8300481 C31.3119735,57.6966601 30.1165935,57.4756418 28.9440861,57.1689196 C27.1571403,56.6846146 24.8141746,56.1114624 25.011708,55.5139207 C25.0245111,55.4790786 25.0373141,55.4398813 25.0528608,55.401555 C25.2412491,55.3144498 25.8804892,55.0130658 25.9207275,55 C25.9207275,55 38.6021897,56.9520276 38.8491064,57.026067 C38.9136004,57.0496936 38.9671131,57.0944854 39,57.1523696 L39,57.1523696 Z" id="Path" fill="#000000" fill-rule="nonzero" opacity="0.1"></path>
                    <path d="M48.3009182,45.9704122 L49,47.6010108 C49,47.6010108 47.9244895,47.0118496 46.5496286,49.4276882 C45.1747677,51.8435268 44.9937234,52.1866647 44.9937234,52.1866647 C44.9937234,52.1866647 44.0275565,52.867391 44.2695464,53.7349471 C44.2695464,53.7349471 41.4068959,54.7523371 39.519375,54.0799348 C39.519375,54.0799348 39.0963409,55.3969923 39.1420501,56.2858212 C39.1702436,56.7604 39.1726374,57.2362366 39.1492202,57.711092 C39.1492202,57.711092 39.6869754,57.2902625 37.6470905,57.6962936 C35.6072056,58.1023246 33.5843496,57.9839374 33.5843496,57.9839374 C32.4713913,57.7965943 31.3696164,57.5443087 30.2843249,57.2282942 C28.5321391,56.7140498 25.8137863,56.8463105 26.010067,56.2109043 C26.2063477,55.575498 26.8561352,54.3722032 26.8561352,54.3722032 C26.8561352,54.3722032 27.3239823,54.0947332 27.3042646,53.8265122 C27.2845469,53.5582913 28.1655693,52.7823002 28.1655693,52.7823002 C28.1655693,52.7823002 28.7087021,52.3152258 28.6334163,51.924918 C28.5581306,51.5346102 29.162209,50.8964293 29.162209,50.8964293 L30.3103164,48.5749304 C30.3103164,48.5749304 31.2764834,46.4078899 31.9415074,46.314475 C32.6065313,46.2210601 33.8290283,44.226051 33.8290283,44.226051 C33.8290283,44.226051 36.003352,42.4187965 36.0185884,42.044212 C36.0338248,41.6696275 37.1057502,41 37.1057502,41 C37.1057502,41 37.2787282,42.5297845 38.719016,42.5926777 C40.1593038,42.6555709 42.0620611,42.5926777 42.0620611,42.5926777 L45.7985638,41.6862757 C45.7985638,41.6862757 44.1619953,43.2132855 43.7837741,43.3224237 C43.4055529,43.4315619 42.2690968,44.2732209 41.6901137,44.4323036 C41.1111305,44.5913864 39.9343428,45.4071482 39.980052,46.5725221 C40.0257612,47.737896 40.4183225,48.329832 40.4183225,48.329832 C40.4183225,48.329832 41.5960065,50.6420818 42.7736905,50.3646118 C42.7736905,50.3646118 44.0893983,50.4376789 44.6163985,49.6320911 C45.1433986,48.8265032 48.3009182,45.9704122 48.3009182,45.9704122 Z" id="Path" fill="#000000" fill-rule="nonzero" opacity="0.1"></path>
                    <path d="M47,41.4803124 L46.8938449,41.5369346 L46.7718596,41.6020176 L46.7718596,41.6020176 L44.6990409,42.2977546 L41.8542695,42.8542141 L40.0542881,43 L37,41.5206638 C37,41.5206638 37.3529193,41.2902701 37.8715895,41 C37.9553962,41.2603319 38.2971413,41.9918646 39.5207189,42.0276603 C41.0152714,42.0725675 42.9940404,42.0276603 42.9940404,42.0276603 L46.9217804,41.4881224 L47,41.4803124 Z" id="Path" fill="#000000" fill-rule="nonzero" opacity="0.1"></path>
                    <path d="M48.3046997,46.0142791 L49,47.7857797 C49,47.7857797 47.8099669,47.0669234 46.442543,49.5022705 C45.0751192,51.9376176 44.8959456,52.2825941 44.8959456,52.2825941 C44.8959456,52.2825941 44.054454,53.0946872 44.2951349,53.9692491 C44.2951349,53.9692491 41.6957816,55.3463577 39.8184709,54.6703904 C39.8184709,54.6703904 39.7739004,55.4880778 39.8184709,56.3831518 C39.8630414,57.2782257 39.5635275,58.4725901 39.5635275,58.4725901 C39.5635275,58.4725901 39.3977251,58.4101214 37.369766,58.8184989 C35.3418069,59.2268764 33.3298932,58.8184989 33.3298932,58.8184989 C32.1525464,58.6763042 30.9873361,58.4400352 29.8444778,58.1117634 C28.1026615,57.5933664 25.8188676,56.9798677 26.0114123,56.3402628 C26.203957,55.7006578 26.8529039,54.4857814 26.8529039,54.4857814 C26.8529039,54.4857814 27.3182202,54.2060708 27.3039576,53.9356838 C27.2896951,53.6652969 28.1597118,52.8830395 28.1597118,52.8830395 C28.1597118,52.8830395 28.700798,52.4168552 28.6250281,52.0196661 C28.5492582,51.622477 29.1509604,50.9819397 29.1509604,50.9819397 L30.2928573,48.6416941 C30.2928573,48.6416941 31.253798,46.4571542 31.9152246,46.362985 C32.5766513,46.2688157 33.7925353,44.2576964 33.7925353,44.2576964 C33.7925353,44.2576964 35.9586631,42.4302536 35.9729256,42.0526443 C35.9871882,41.675035 37.0550981,41 37.0550981,41 C37.0550981,41 37.2262489,42.5421379 38.6596371,42.605539 C40.0930254,42.66894 41.9854901,42.605539 41.9854901,42.605539 L45.8185556,41.8176874 C45.8185556,41.8176874 44.0713908,43.2311584 43.696107,43.3411779 C43.3208231,43.4511974 42.1887317,44.299653 41.6128804,44.4600204 C41.0370292,44.6203878 39.8657157,45.450196 39.9102862,46.6287101 C39.9548567,47.8072241 40.346186,48.4002106 40.346186,48.4002106 C40.346186,48.4002106 41.5174995,50.7255383 42.6897044,50.4430305 C42.6897044,50.4430305 43.9974038,50.5157553 44.5215532,49.7045945 C45.0457026,48.8934337 48.3046997,46.0142791 48.3046997,46.0142791 Z" id="Path" fill="#E8F4FF" fill-rule="nonzero"></path>
                    <path d="M37,51 C37,51 38.0903963,53.6254496 38.5910143,53.9105082 C39.0916323,54.1955668 38.991905,53.7084847 38.991905,53.7084847 C38.991905,53.7084847 37.1558652,51.5752534 37,51 Z" id="Path" fill="#000000" fill-rule="nonzero" opacity="0.1"></path>
                    <path d="M35,54 C35,54 36.1499645,56 37,56 L35,54 Z" id="Path" fill="#000000" fill-rule="nonzero" opacity="0.1"></path>
                    <path d="M30,50 C30,50 31.7615227,55.5600435 35,56 C35,56 30.7706662,52.8904769 30,50 Z" id="Path" fill="#000000" fill-rule="nonzero" opacity="0.1"></path>
                    <path d="M30,55 C30,55 33.1043409,57.3099048 35,56.9648645 C35,56.9648645 31.7622461,56.4463716 30,55 Z" id="Path" fill="#000000" fill-rule="nonzero" opacity="0.1"></path>
                    <path d="M29,59 C29,59 32.1033453,61.3107726 34,60.9646698 C34,60.9646698 30.7612505,60.4459821 29,59 Z" id="Path" fill="#000000" fill-rule="nonzero" opacity="0.1"></path>
                    <path d="M30,61 C30,61 33.1039634,63.3099048 35,62.9648645 C35,62.9648645 31.7616013,62.4463716 30,61 Z" id="Path" fill="#000000" fill-rule="nonzero" opacity="0.1"></path>
                    <path d="M30,58 C30,58 33.1039634,60.3137709 35,59.9639931 C35,59.9639931 31.7616013,59.4468082 30,58 Z" id="Path" fill="#000000" fill-rule="nonzero" opacity="0.1"></path>
                    <polygon id="Path" fill="#000000" fill-rule="nonzero" opacity="0.1" points="43 46 41 47.6651194 41.2753327 48"></polygon>
                    <path d="M56,41.9843173 C56.0002694,43.0490905 55.5483021,44.0703534 54.7435257,44.82344 C53.9387492,45.5765265 52.8470867,45.9997477 51.7086914,46 C51.5098055,46 51.3111611,45.9870405 51.1142288,45.961031 C51.1775635,45.8934305 51.2305707,45.8179423 51.271736,45.7367231 C51.3987579,45.4050135 50.8652659,45.059047 51.0329348,44.7415942 C51.1193097,44.5724128 51.3520139,44.5296422 51.5522004,44.5248899 C51.7523869,44.5201376 51.9749293,44.5248899 52.1202424,44.3956277 C52.2879113,44.244505 52.2645393,43.9954852 52.3072187,43.7816322 C52.3742863,43.4565758 52.6181683,43.1856955 52.8833901,42.9642389 C53.1486119,42.7427823 53.4453351,42.5517404 53.6739745,42.2989187 C54.024555,41.9092312 54.1891754,41.3997861 54.232871,40.8922418 C54.2613239,40.564334 54.232871,40.2155162 54.047927,39.9417844 C53.844692,39.6480931 53.4961438,39.4827135 53.1770648,39.3021266 C52.8802632,39.1485721 52.6218393,38.9376419 52.418998,38.6833789 C52.2889275,38.5046929 52.1588571,38.2262089 52.2005203,38 C54.3639974,38.2347552 55.996987,39.9471867 56,41.9843173 Z" id="Path" fill="#000000" fill-rule="nonzero" opacity="0.1"></path>
                    <path d="M56.9910399,42.4651955 C56.9770627,42.5311723 56.95459,42.5945494 56.92432,42.6533572 C56.9158744,42.6702917 56.9057398,42.6881671 56.8964497,42.7060424 L56.8449318,42.7935376 C56.7637317,42.9066549 56.7099364,43.041084 56.6886891,43.1839731 C56.6785544,43.3580227 56.7638545,43.5170193 56.8195951,43.6826016 L56.8288852,43.7117667 L56.8288852,43.7117667 C56.8365167,43.7351915 56.8430012,43.7590604 56.84831,43.7832681 C56.882738,43.9468635 56.8712406,44.11829 56.8153724,44.2743702 L56.8153724,44.2743702 C56.7542787,44.4485481 56.6639952,44.6081878 56.5493374,44.7447744 C56.3339758,45.0034968 56.0628736,45.1991849 55.8458229,45.4550848 C55.6836683,45.6432465 55.5527622,45.8662181 55.3922967,46.0562614 C55.0122468,46.5040863 54.480177,46.760927 53.938817,46.8832321 C53.5150289,46.9682858 53.0847984,47.0070428 52.6542485,46.9989515 L52.2868669,46.9989515 C52.2293399,47.0027716 52.1717454,46.9928271 52.1179558,46.9697865 C52.0559114,46.9234089 52.0023215,46.8643498 51.960024,46.7957369 C51.7387505,46.5134944 51.3688353,46.4598683 51.0310132,46.4278808 C51.0238847,46.3553673 51.0440678,46.2828074 51.0867538,46.2274886 C51.1413878,46.1553551 51.1879018,46.0760527 51.2252609,45.9913457 C51.3316749,45.6620627 50.8874388,45.3205492 51.027635,45.0044376 C51.0405885,44.9747391 51.0583383,44.9479502 51.0799974,44.9254096 C51.0941435,44.9095688 51.1097081,44.8953827 51.1264479,44.8830733 C51.2279672,44.8195441 51.3427742,44.7870844 51.4592027,44.7889924 C51.5216998,44.7889924 51.5867306,44.7889924 51.6500722,44.7805251 C51.7506002,44.7761166 51.8469186,44.7343905 51.9237081,44.6619833 L51.9237081,44.6619833 C52.0630598,44.5142763 52.043635,44.2668437 52.0791063,44.0561026 C52.134847,43.7324645 52.3375402,43.4652749 52.5579692,43.2470073 C52.7783981,43.0287397 53.0250082,42.8386964 53.2150332,42.5884414 C53.5064047,42.2036507 53.6432227,41.6974957 53.6795386,41.1969856 C53.7031861,40.8724067 53.6795386,40.5261892 53.5258295,40.2561771 C53.3788769,40.0021589 53.1373341,39.8450438 52.9017032,39.6916921 L52.8020456,39.6258355 C52.6190085,39.508275 52.4511055,39.3636443 52.3029135,39.195886 C52.2568549,39.1334025 52.2148046,39.0673825 52.1770747,38.9983162 C52.0715053,38.8252074 51.9667804,38.5589586 51.9929617,38.3397503 C51.993977,38.3251185 51.9962393,38.3106276 51.9997181,38.2964731 C52.0495469,38.0546853 52.2640639,38.0518629 52.4676017,38.021757 C52.5224978,38.0142305 52.5765494,38.0076449 52.6314455,38.0038816 C52.7124562,37.9987061 52.7936666,37.9987061 52.8746774,38.0038816 C53.2217255,38.0183619 53.5610674,38.1220426 53.8661853,38.306822 C53.9793557,38.375501 54.0874588,38.4554697 54.2040074,38.5147406 C54.4810215,38.6530395 54.7951961,38.6709148 55.0806558,38.7725222 C55.6583316,38.9738552 56.1067905,39.5007079 56.3914056,40.0952989 C56.6760207,40.6898899 56.817906,41.3531598 56.9572576,42.0079625 C56.9986104,42.1557419 57.010146,42.311873 56.9910399,42.4651955 L56.9910399,42.4651955 Z" id="Path" fill="#965D7B" fill-rule="nonzero"></path>
                    <path d="M46.9682201,65.7650633 C46.9490302,65.8436335 46.9180976,65.919251 46.8763446,65.9896617 C46.8763446,65.9896617 46.4665801,66.0034831 45.8657146,65.9991639 C45.0452669,65.993117 43.8729361,65.9533804 42.9257002,65.7961616 C42.3608633,65.7196403 41.7898834,65.6907307 41.219573,65.7097776 L37.248716,65.3322796 L35.1025054,65.0593062 L34,62.7995013 C34.6376156,62.8323272 35.1870308,62.8090035 35.1870308,62.8090035 C36.4062181,61.722293 37.5408799,61.8967887 38.1601205,62.3684452 C38.779361,62.8401017 39.936073,63.2158721 40.0178421,63.2158721 C40.0729674,63.2158721 41.8985326,63.2521533 43.0727009,63.2746132 C43.9822502,63.2873399 44.8742825,63.5117095 45.6691012,63.9276761 C47.0398829,64.6481185 47.0600955,65.4013868 46.9682201,65.7650633 Z" id="Path" fill="#000000" fill-rule="nonzero" opacity="0.1"></path>
                    <path d="M25.545396,57.8430266 L24.6368896,58.1928343 C24.6368896,58.1928343 22.1197436,56.3757774 18.4366348,57.2269763 C14.753526,58.0781751 15.0035736,60.3490104 15.0035736,60.3490104 C15.0035736,60.3490104 15.1489717,63.1319253 16.2075066,64.0870948 C17.2660415,65.0422643 17.9346874,65.0859902 18.53758,65.8069829 C19.1404726,66.5279755 22.2623634,66.8544627 22.2623634,66.8544627 C22.2623634,66.8544627 28.442244,67.1819216 31.7715817,66.8544627 C35.1009194,66.5270038 36.6039834,66.5270038 36.6039834,66.5270038 C36.6039834,66.5270038 40.2602353,66.0469898 41.9040668,66.3520999 C43.5478984,66.65721 45.8788979,66.5707298 45.8788979,66.5707298 C45.8788979,66.5707298 46.5660658,65.3774967 44.66663,64.2493667 C43.8656737,63.7809004 42.9663686,63.5284798 42.0494649,63.5147705 C40.8668323,63.4885349 39.026667,63.4486957 38.9701748,63.4486957 C38.8868256,63.4486957 37.7217889,63.0260113 37.0975959,62.4954696 C36.473403,61.9649278 35.3296667,61.7676751 34.101655,62.9900588 C34.101655,62.9900588 31.376136,63.1212367 31.0010646,62.4012158 C30.6259932,61.6811949 28.6913655,59.4210482 28.6913655,59.4210482 L25.545396,57.8430266 Z" id="Path" fill="#FFC1C7" fill-rule="nonzero"></path>
                    <path d="M30.1234858,61.7042638 C30.1234858,61.7042638 30.1046589,62.0506874 30.8834082,61.9936595 C31.6039653,61.9400361 28.7491217,59.3831408 28.7491217,59.3831408 L25.8395089,58 L25,58.30727 C25,58.30727 27.816334,57.9753163 30.1234858,61.7042638 Z" id="Path" fill="#000000" fill-rule="nonzero" opacity="0.1"></path>
                    <path d="M30.1236108,61.7042638 C30.1236108,61.7042638 30.1047866,62.0506874 30.8834249,61.9936595 C31.6038792,61.9408873 28.7494427,59.3831408 28.7494427,59.3831408 L25.8402448,58 L25,58.30727 C25,58.30727 27.8167881,57.9753163 30.1236108,61.7042638 Z" id="Path" fill="#565988" fill-rule="nonzero"></path>
                    <path d="M22,60.1194651 C22,60.1194651 22.9207795,59.8038061 24.2704935,60.1986993 C24.7524163,60.3378144 25.2487371,60.4533471 25.7555603,60.5443906 C26.5682835,60.6914626 27.3484062,60.909975 28.0756196,61.194239 C29.0154628,61.5603778 30.2908282,62 31,62" id="Path" stroke="#000000" opacity="0.1"></path>
                    <path d="M52.556753,46.9989856 C52.4977678,47.0033898 52.4386227,46.9934152 52.3836306,46.9697892 C52.3196516,46.9238796 52.2646414,46.8646665 52.2217612,46.7955523 C51.994971,46.5130061 51.611505,46.4593223 51.2695883,46.4282422 C51.2418887,46.2643654 51.4158767,46.145696 51.4678134,45.9912374 C51.5777461,45.6616001 51.1215687,45.3197192 51.2652603,45.0042092 C51.3397029,44.8375069 51.537928,44.795125 51.7084535,44.7904159 C51.878979,44.7857068 52.068548,44.7904159 52.1914648,44.6613865 C52.3342908,44.5125788 52.3143817,44.2648799 52.351603,44.0539121 C52.4078678,43.7308675 52.6156146,43.4624486 52.8415393,43.2439462 C53.0674639,43.0254438 53.3210882,42.835196 53.5158508,42.5846716 C53.8136212,42.1994669 53.9538504,41.6937092 53.9919373,41.1917187 C54.0161744,40.8658487 53.9919373,40.5202005 53.8335303,40.2451888 C53.660408,39.955108 53.3635031,39.7912312 53.091701,39.6113434 C52.8388756,39.4591842 52.6187416,39.2501707 52.4459547,38.9982181 C52.3316939,38.8155049 52.215702,38.5273077 52.2641762,38.2965616 C52.3126505,38.0658155 52.5359783,38.0516882 52.7445907,38.02155 C52.8060492,38.0121318 52.866642,38.0064808 52.928966,38.0027135 C52.7893642,37.9958003 52.6494742,38.0021028 52.5108756,38.02155 C52.3022631,38.0516882 52.0780697,38.0545137 52.030461,38.2965616 C51.9828524,38.5386096 52.0979788,38.8155049 52.2131051,38.9982181 C52.3858921,39.2501707 52.6060261,39.4591842 52.8588515,39.6113434 C53.1228631,39.7893476 53.4223647,39.9579335 53.5954871,40.2404797 C53.7573565,40.5154914 53.7781312,40.8611396 53.753894,41.1870096 C53.7158071,41.6890001 53.5807717,42.1947578 53.2778076,42.5799625 C53.0830449,42.8323705 52.8302863,43.0216765 52.6043616,43.2392371 C52.378437,43.4567977 52.1715558,43.7261584 52.1135598,44.049203 C52.0763385,44.2601708 52.0962475,44.5078697 51.9542872,44.6566774 C51.8313703,44.784765 51.6409358,44.7809977 51.4704102,44.7857068 C51.2998847,44.7904159 51.1016596,44.8327978 51.027217,44.9995001 C50.8869879,45.3150101 51.3397029,45.6587747 51.2306358,45.9865283 C51.1778335,46.1428705 51.0047111,46.2596563 51.0315451,46.4235331 C51.3777898,46.4546132 51.7603902,46.5054715 51.983718,46.7908432 C52.0261205,46.8603866 52.0812191,46.9196949 52.1455874,46.9650801 C52.2005248,46.9889249 52.2597158,46.9989072 52.3187098,46.9942765 C52.4442235,46.9942765 52.5706028,46.9942765 52.6969821,46.9942765 L52.556753,46.9989856 Z" id="Path" fill="#000000" fill-rule="nonzero" opacity="0.1"></path>
                    <path d="M57.8524137,44 L57.8524137,44 C57.8846581,43.8636121 57.9209331,43.7112413 57.956402,43.5492808 C58.0605994,43.1207616 58.1395651,42.6822312 58.1925926,42.2376132 C58.0941412,42.1648468 57.9904461,42.1052374 57.8830459,42.0596697 C57.8919131,42.0394246 57.9015865,42.0191795 57.9096476,42 L57.8370976,42.0394246 C57.8370976,42.0394246 57.8370976,42.0841769 57.8370976,42.158764 C57.8314548,42.3612147 57.8201693,42.7895578 57.8129143,43.1656899 C57.8129143,43.1720831 57.8129143,43.1774108 57.8129143,43.1827384 C57.8072715,43.4800213 57.804047,43.7432072 57.8129143,43.8369739 L57.8129143,43.8369739 L57.8524137,44 Z" id="Path" fill="#565988" fill-rule="nonzero"></path>
                    <ellipse id="Oval" fill="#6C63FF" fill-rule="nonzero" opacity="0.1" cx="84" cy="64.5" rx="4" ry="1"></ellipse>
                    <path d="M85.615809,63.4933941 C85.7830158,63.3642741 85.9392583,63.2123683 85.9876843,63.0270432 C86.0361104,62.8417181 85.940172,62.6191761 85.7272802,62.551578 C85.4888048,62.4756251 85.2338829,62.6138594 85.0410924,62.7520937 C84.848302,62.890328 84.6262732,63.0498291 84.3731786,63.0202074 C84.6368277,62.8204025 84.755091,62.5202876 84.6847499,62.2295376 C84.6728655,62.1698542 84.6412278,62.1140994 84.59338,62.0685174 C84.4608937,61.9507904 84.2205909,62.0016789 84.062521,62.0943414 C83.5581593,62.3890387 83.4174497,62.9586856 83.4147086,63.4713677 C83.3635415,63.2860426 83.4064853,63.0916032 83.4055716,62.9039995 C83.4046579,62.7163958 83.3416127,62.5037276 83.1488223,62.4019507 C83.0287635,62.3485031 82.8938783,62.3223055 82.7577592,62.3259978 C82.5311619,62.3191621 82.2789811,62.3373908 82.1236523,62.4779036 C81.9317755,62.6487977 81.9811153,62.9336211 82.1492358,63.1250225 C82.3173564,63.3164238 82.570451,63.4288341 82.8052715,63.5617517 C82.9930472,63.6550892 83.1532265,63.7822715 83.273999,63.933921 C83.2879228,63.9550414 83.2995427,63.9771561 83.3087196,64 L84.7304348,64 C85.0520496,63.8655953 85.3499536,63.6951364 85.615809,63.4933941 Z" id="Path" fill="#6C63FF" fill-rule="nonzero"></path>
                    <ellipse id="Oval" fill="#6C63FF" fill-rule="nonzero" opacity="0.1" cx="97" cy="66.5" rx="4" ry="1"></ellipse>
                    <path d="M98.6155455,65.493452 C98.782867,65.3643468 98.9392167,65.2124584 98.9876759,65.0271545 C99.0361351,64.8418506 98.940131,64.619334 98.7270932,64.5517436 C98.4884543,64.4757994 98.2333575,64.6132584 98.0404349,64.7522364 C97.8475122,64.8912143 97.6253312,65.0499377 97.372063,65.0203195 C97.6370488,64.8207798 97.7564618,64.5203417 97.686591,64.2289807 C97.6744911,64.1695843 97.6428468,64.1141253 97.5951584,64.0687384 C97.4625813,63.9510248 97.2221137,64.001148 97.0639354,64.0945594 C96.5592278,64.389223 96.4184217,64.9588047 96.4156788,65.4706688 C96.3644765,65.2861243 96.4074498,65.0909476 96.4065355,64.9041248 C96.4056212,64.717302 96.3425327,64.5038988 96.1496101,64.4021335 C96.0294998,64.3486243 95.8944998,64.3224253 95.7582788,64.3261893 C95.5315262,64.3193543 95.2791724,64.3383404 95.1237371,64.4780777 C94.9317287,64.6489522 94.9811023,64.9337431 95.1493382,65.1251225 C95.317574,65.316502 95.5708421,65.4288994 95.8058238,65.5618018 C95.9938998,65.6549413 96.1542348,65.7821454 96.2748727,65.9339285 C96.2891843,65.9548907 96.3008286,65.977034 96.309617,66 L97.7323072,66 C98.0529809,65.8651547 98.350111,65.6947469 98.6155455,65.493452 L98.6155455,65.493452 Z" id="Path" fill="#6C63FF" fill-rule="nonzero"></path>
                    <ellipse id="Oval" fill="#6C63FF" fill-rule="nonzero" opacity="0.1" cx="89" cy="71.5" rx="4" ry="1"></ellipse>
                    <path d="M90.6154373,70.4933941 C90.782775,70.3642741 90.9391398,70.2123683 90.9876037,70.0270432 C91.0360676,69.8417181 90.9409686,69.6199356 90.7279102,69.5523375 C90.4883338,69.4763846 90.2332124,69.6138594 90.0402711,69.7520937 C89.8473298,69.890328 89.6251272,70.0498291 89.3718347,70.0202074 C89.6366911,69.8208836 89.7561168,69.5206967 89.686393,69.2295376 C89.6744993,69.1698542 89.6428368,69.1140994 89.5949516,69.0685174 C89.4623616,68.9507904 89.2227852,69.0016789 89.0636772,69.0943414 C88.5589209,69.3890387 88.4181011,69.9586856 88.4153579,70.4713677 C88.3641507,70.2860426 88.4071282,70.0916032 88.4062138,69.9039995 C88.4052994,69.7163958 88.3422048,69.5037276 88.1492635,69.4019507 C88.029443,69.348498 87.8947441,69.3222958 87.7588089,69.3259978 C87.5311198,69.3191621 87.2787417,69.3381503 87.1242057,69.4779036 C86.9312644,69.6495572 86.9815572,69.9336211 87.1488949,70.1250225 C87.3162326,70.3164238 87.571354,70.4288341 87.805444,70.5617517 C87.993519,70.6549228 88.1538644,70.7821373 88.2745382,70.933921 C88.2892378,70.9547235 88.3009025,70.976906 88.3092859,71 L89.7321137,71 C90.0530167,70.8654166 90.350219,70.6949644 90.6154373,70.4933941 L90.6154373,70.4933941 Z" id="Path" fill="#6C63FF" fill-rule="nonzero"></path>
                    <ellipse id="Oval" fill="#6C63FF" fill-rule="nonzero" opacity="0.1" cx="8" cy="63.5" rx="4" ry="1"></ellipse>
                    <path d="M9.61581629,62.493452 C9.78312922,62.3643468 9.9403851,62.2124584 9.98792757,62.0271545 C10.03547,61.8418506 9.94129937,61.619334 9.72827252,61.5517436 C9.48964588,61.4757994 9.23456223,61.6132584 9.04073522,61.7522364 C8.84690821,61.8912143 8.62565286,62.0499377 8.37239776,62.0203195 C8.63768622,61.8209508 8.75715349,61.5203608 8.68690951,61.2289807 C8.67449516,61.169667 8.64289098,61.1142755 8.59548167,61.0687384 C8.46291132,60.9510248 8.22245612,61.001148 8.06337169,61.0945594 C7.55869005,61.389223 7.41789119,61.9588047 7.41514835,62.4706688 C7.36486304,62.2861243 7.40783412,62.0909476 7.40600557,61.9041248 C7.40417701,61.717302 7.34200608,61.5038988 7.15000764,61.4021335 C7.02987272,61.348692 6.89490194,61.3224974 6.75869651,61.3261893 C6.53195548,61.3193543 6.27870039,61.3383404 6.12418735,61.4780777 C5.93127462,61.6489522 5.98155993,61.9337431 6.14887286,62.1251225 C6.3161858,62.316502 6.57126945,62.4288994 6.80623898,62.5618018 C6.99430534,62.6549413 7.15463208,62.7821454 7.27526377,62.9339285 C7.28919636,62.9550465 7.30082368,62.9771587 7.31000634,63 L8.73536626,63 C9.05506051,62.8649779 9.35124117,62.6945768 9.61581629,62.493452 L9.61581629,62.493452 Z" id="Path" fill="#6C63FF" fill-rule="nonzero"></path>
                    <ellipse id="Oval" fill="#6C63FF" fill-rule="nonzero" opacity="0.1" cx="4" cy="70.5" rx="4" ry="1"></ellipse>
                    <path d="M5.61499724,70.493452 C5.78252644,70.3643468 5.93907011,70.2124584 5.9875895,70.0271545 C6.03610888,69.8418506 5.94090103,69.619334 5.72759883,69.5517436 C5.48774828,69.4757994 5.23233492,69.6132584 5.03917283,69.7522364 C4.84601075,69.8912143 4.62355395,70.0499377 4.3699715,70.0203195 C4.63695848,69.8215847 4.75830649,69.5210254 4.68946708,69.2289807 C4.67735219,69.1695843 4.64566864,69.1141253 4.59792107,69.0687384 C4.46517935,68.9510248 4.2253288,69.001148 4.06603875,69.0945594 C3.56070477,69.389223 3.41972391,69.9588047 3.41697753,70.4714282 C3.36571177,70.2861243 3.40873839,70.0917071 3.40782293,69.9041248 C3.40690747,69.7165426 3.34374073,69.5038988 3.15057865,69.4021335 C3.03077818,69.3483429 2.89581126,69.3221216 2.75967718,69.3261893 C2.53172762,69.3185949 2.27906063,69.3375809 2.12434787,69.4780777 C1.93118579,69.6489522 1.9815361,69.9337431 2.14906529,70.1251225 C2.31659449,70.316502 2.57200786,70.4288994 2.80636565,70.5618018 C2.99486822,70.6547304 3.15545416,70.7819757 3.27599668,70.9339285 C3.29071308,70.9547286 3.30239114,70.9769086 3.31078416,71 L4.73432462,71 C5.05411072,70.8649191 5.35036243,70.6945202 5.61499724,70.493452 L5.61499724,70.493452 Z" id="Path" fill="#6C63FF" fill-rule="nonzero"></path>
                </g>
            </g>
        </g>
    </g>
</svg>