<?xml version="1.0" encoding="UTF-8"?>
<svg width="41px" height="21px" viewBox="0 0 41 21" version="1.1" xmlns="http://www.w3.org/2000/svg" xmlns:xlink="http://www.w3.org/1999/xlink">
    <!-- Generator: Sketch 64 (93537) - https://sketch.com -->
    <title>noun_Gym_2160472 Copy</title>
    <desc>Created with Sketch.</desc>
    <g id="Page-1" stroke="none" stroke-width="1" fill="none" fill-rule="evenodd">
        <g id="All-excercise--option-1" transform="translate(-168.000000, -756.000000)" fill="#E68342" fill-rule="nonzero">
            <g id="Nav" transform="translate(39.000000, 752.000000)">
                <g id="All-exercises" transform="translate(105.500000, 4.000000)">
                    <g id="noun_Gym_2160472-Copy" transform="translate(23.500000, 0.000000)">
                        <path d="M40.3166667,6.77419355 L37.5833333,6.77419355 L37.5833333,4.74193548 C37.5833333,3.61955035 36.6655171,2.70967742 35.5333333,2.70967742 L34.1666667,2.70967742 C33.9333496,2.71192268 33.7021756,2.75409056 33.4833333,2.83432258 L33.4833333,2.03225806 C33.4833333,0.909872928 32.5655171,0 31.4333333,0 L30.0666667,0 C28.9344829,0 28.0166667,0.909872928 28.0166667,2.03225806 L28.0166667,6.77419355 L12.9833333,6.77419355 L12.9833333,2.70967742 C12.9833333,1.58729228 12.0655171,0.677419355 10.9333333,0.677419355 L9.56666667,0.677419355 C8.43448293,0.677419355 7.51666667,1.58729228 7.51666667,2.70967742 L7.51666667,3.51174194 C7.2978244,3.43150991 7.06665044,3.38934204 6.83333333,3.38709677 L5.46666667,3.38709677 C4.33448293,3.38709677 3.41666667,4.2969697 3.41666667,5.41935484 L3.41666667,6.77419355 L0.683333333,6.77419355 C0.305938754,6.77419355 0,7.07748452 0,7.4516129 L0,14.2258065 C0,14.5999348 0.305938754,14.9032258 0.683333333,14.9032258 L3.41666667,14.9032258 L3.41666667,16.9354839 C3.41666667,18.057869 4.33448293,18.9677419 5.46666667,18.9677419 L6.83333333,18.9677419 C7.06665044,18.9654967 7.2978244,18.9233288 7.51666667,18.8430968 L7.51666667,18.9677419 C7.51666667,20.0901271 8.43448293,21 9.56666667,21 L10.9333333,21 C12.0655171,21 12.9833333,20.0901271 12.9833333,18.9677419 L12.9833333,14.9032258 L28.0166667,14.9032258 L28.0166667,18.2903226 C28.0166667,19.4127077 28.9344829,20.3225806 30.0666667,20.3225806 L31.4333333,20.3225806 C32.5655171,20.3225806 33.4833333,19.4127077 33.4833333,18.2903226 L33.4833333,18.1656774 C33.7021756,18.2459094 33.9333496,18.2880773 34.1666667,18.2903226 L35.5333333,18.2903226 C36.6655171,18.2903226 37.5833333,17.3804497 37.5833333,16.2580645 L37.5833333,14.9032258 L40.3166667,14.9032258 C40.6940612,14.9032258 41,14.5999348 41,14.2258065 L41,7.4516129 C41,7.07748452 40.6940612,6.77419355 40.3166667,6.77419355 Z M1.36666667,13.5483871 L1.36666667,8.12903226 L3.41666667,8.12903226 L3.41666667,13.5483871 L1.36666667,13.5483871 Z M6.83333333,17.6129032 L5.46666667,17.6129032 C5.08927209,17.6129032 4.78333333,17.3096122 4.78333333,16.9354839 L4.78333333,5.41935484 C4.78333333,5.04522646 5.08927209,4.74193548 5.46666667,4.74193548 L6.83333333,4.74193548 C7.21072791,4.74193548 7.51666667,5.04522646 7.51666667,5.41935484 L7.51666667,16.9354839 C7.51666667,17.3096122 7.21072791,17.6129032 6.83333333,17.6129032 Z M11.6166667,18.9677419 C11.6166667,19.3418703 11.3107279,19.6451613 10.9333333,19.6451613 L9.56666667,19.6451613 C9.18927209,19.6451613 8.88333333,19.3418703 8.88333333,18.9677419 L8.88333333,2.70967742 C8.88333333,2.33554904 9.18927209,2.03225806 9.56666667,2.03225806 L10.9333333,2.03225806 C11.3107279,2.03225806 11.6166667,2.33554904 11.6166667,2.70967742 L11.6166667,18.9677419 Z M12.9833333,13.5483871 L12.9833333,8.12903226 L28.0166667,8.12903226 L28.0166667,13.5483871 L12.9833333,13.5483871 Z M32.1166667,18.2903226 C32.1166667,18.664451 31.8107279,18.9677419 31.4333333,18.9677419 L30.0666667,18.9677419 C29.6892721,18.9677419 29.3833333,18.664451 29.3833333,18.2903226 L29.3833333,2.03225806 C29.3833333,1.65812969 29.6892721,1.35483871 30.0666667,1.35483871 L31.4333333,1.35483871 C31.8107279,1.35483871 32.1166667,1.65812969 32.1166667,2.03225806 L32.1166667,18.2903226 Z M36.2166667,16.2580645 C36.2166667,16.6321929 35.9107279,16.9354839 35.5333333,16.9354839 L34.1666667,16.9354839 C33.7892721,16.9354839 33.4833333,16.6321929 33.4833333,16.2580645 L33.4833333,4.74193548 C33.4833333,4.3678071 33.7892721,4.06451613 34.1666667,4.06451613 L35.5333333,4.06451613 C35.9107279,4.06451613 36.2166667,4.3678071 36.2166667,4.74193548 L36.2166667,16.2580645 Z M39.6333333,13.5483871 L37.5833333,13.5483871 L37.5833333,8.12903226 L39.6333333,8.12903226 L39.6333333,13.5483871 Z" id="Shape"></path>
                    </g>
                </g>
            </g>
        </g>
    </g>
</svg>