<?xml version="1.0" encoding="UTF-8"?>
<svg width="130px" height="71px" viewBox="0 0 130 71" version="1.1" xmlns="http://www.w3.org/2000/svg" xmlns:xlink="http://www.w3.org/1999/xlink">
    <!-- Generator: Sketch 64 (93537) - https://sketch.com -->
    <title>undraw_Hamburger_8ge6</title>
    <desc>Created with Sketch.</desc>
    <g id="Page-1" stroke="none" stroke-width="1" fill="none" fill-rule="evenodd">
        <g id="All-excercise--option-1" transform="translate(-38.000000, -353.000000)">
            <g id="Diet-rec" transform="translate(28.000000, 306.000000)">
                <g id="undraw_Hamburger_8ge6" transform="translate(10.000000, 47.000000)">
                    <path d="M89.1276746,61.3726214 C101.259481,61.2382975 113.390875,61.3153222 125.521857,61.6036953 C126.565433,61.6285163 127.648333,61.6603949 128.569909,61.9198085 C129.491485,62.179222 130.200711,62.73572 129.948568,63.2703483 C125.213031,63.4018414 120.472605,63.4424711 115.727291,63.3922374 C114.693879,63.8673658 113.55933,64.5829917 114.194438,65.2237586 C114.633909,65.667146 115.718712,65.7991456 116.667384,65.8001842 C118.385603,65.8020665 120.110733,65.53734 121.803528,65.6926573 C123.496322,65.8479745 125.185432,66.6836896 124.689549,67.5512822 C124.31298,68.2101239 122.884342,68.5362652 121.584221,68.5945031 C120.284099,68.652741 118.952862,68.5316391 117.682041,68.6876567 C116.474374,68.8359186 115.428067,69.2211707 114.297822,69.4901015 C112.514933,69.9143214 110.538562,70.0453973 108.594072,70.1569019 C93.663079,71.0131029 78.6082692,71.0063092 63.5892779,70.9985547 C57.508964,70.9954138 51.3460629,70.9867706 45.4745769,70.1535975 C42.12771,69.678671 38.9205295,68.9411585 35.5314367,68.5584754 C31.4832091,68.1013665 27.2992997,68.1634129 23.1594028,68.177113 C15.8916771,68.2011638 8.63008017,68.0697018 1.37461196,67.7827271 C0.83468784,67.7613593 0.171944956,67.6889882 0.0262344201,67.4139788 C-0.143814471,67.0930308 0.546313718,66.8425932 1.12966409,66.714516 C4.43516909,65.9963362 7.79622856,65.5257535 11.1811307,65.3072078 C12.8953934,65.1940611 14.6618975,65.1364638 16.2385717,64.7639882 C17.8152458,64.3915126 19.1926859,63.6103825 19.1778837,62.6992999 C19.1733685,62.4213729 19.0484292,62.124055 19.2955409,61.8785649 C19.6236732,61.5525837 20.431014,61.477797 21.1275761,61.4422576 C28.8493863,61.0482777 36.6132794,60.8838132 44.3701319,60.9499015 C47.0986902,60.9731493 49.838493,61.0246172 52.5477291,60.8521037 C54.767598,60.7107516 56.9418973,60.4205376 59.1296471,60.1768914 C62.0662498,59.8498456 74.846271,58.1556243 76.7105816,59.5303265 C78.1061712,60.5594041 75.2248594,60.7814457 78.9679198,61.2013733 C82.2270427,61.567009 85.8221326,61.4092208 89.1276746,61.3726214 Z" id="Path" fill="#F2F2F2" fill-rule="nonzero"></path>
                    <path d="M42.1944965,55.2235593 C42.1944965,55.2235593 37.7349696,63.9966459 41.5303118,63.9966459 C45.325654,63.9966459 93.1469698,64.1853145 94.4753393,61.7326237 C95.4060125,60.0142371 94.8928812,53.8968961 94.5022103,50.3880148 C94.344688,48.9719919 93.1014271,47.9253061 91.6706719,48.0041783 C81.3282382,48.571721 42.6906593,50.6750192 42.8586812,50.4125173 C43.1907736,49.8936789 42.9535654,50.0351801 42.9535654,50.0351801 C42.9535654,50.0351801 41.4354276,54.8462233 42.1944965,55.2235593 Z" id="Path" fill="#3F3D56" fill-rule="nonzero"></path>
                    <path d="M94.4999044,50.4010805 C94.3416507,48.9773068 93.0926338,47.9248941 91.6552578,48.0042015 C81.2649676,48.5748571 42.4485696,50.6896632 42.6173632,50.4257184 C42.9509925,49.9040398 42.7126853,50.0463155 42.7126853,50.0463155 C42.7126853,50.0463155 42.3722602,51.1262385 42.0934832,52.3055499 C42.1329995,52.3016593 42.1625326,52.338675 42.0338367,52.5640124 C42.0223867,52.6148652 42.0111078,52.6657294 42,52.7166052 C43.5546719,52.8694528 80.8370164,50.8381178 90.9879991,50.2806151 C92.4253752,50.2013077 93.674392,51.2537204 93.8326458,52.6774942 C94.1244593,55.3005927 94.484079,59.3730227 94.2652045,62 C94.3496107,61.9543732 94.4210577,61.8882581 94.4729078,61.8077973 C95.4078906,60.080005 94.8923894,53.9291739 94.4999044,50.4010805 Z" id="Path" fill="#000000" fill-rule="nonzero" opacity="0.1"></path>
                    <path d="M46.978083,41.9053871 C46.4738884,41.7567823 45.8357681,41.564878 45.8932796,41.2519432 C45.9238349,41.0856763 46.155172,40.9559637 46.3227907,40.8165608 C46.6458957,40.5478507 46.7330199,40.169361 46.3859601,39.9098364 C46.0389004,39.6503119 45.2029547,39.6156092 44.8967616,39.8902398 C44.7392491,40.0315142 44.7487394,40.208692 44.6674202,40.3682558 C44.4137195,40.8660506 43.3872366,41.0846214 42.5152368,41.2780175 C41.643237,41.4714135 40.6676078,41.8312283 40.7495854,42.3462226 C40.8390102,42.9080116 42.184212,43.4063847 41.6429576,43.8854076 C41.4466846,44.0591136 41.0338098,44.1560383 40.9459544,44.3547485 C40.8841393,44.4945579 41.0083063,44.6367376 41.1288391,44.7644491 L41.9854599,45.6720881 C42.3262811,46.0332067 42.6774537,46.4261459 42.5633053,46.8281176 C42.3370492,47.6248755 40.4980081,47.929689 39.040356,47.8401637 C38.5065609,47.8073793 37.8791686,47.7625004 37.5123594,47.9782208 C37.2296728,48.1444678 37.2301538,48.403413 37.3241142,48.625055 C37.5659474,49.1955074 38.3395873,49.6895382 39.3296954,49.9057785 C38.2199801,50.116339 37.78416,51.0038418 38.5503356,51.4928634 C38.111887,51.637932 37.6378718,51.6509994 37.1915027,51.530323 C36.81256,51.865831 37.0353348,52.3262631 37.5159439,52.6197684 C37.9965529,52.9132736 38.6774216,53.078405 39.3366956,53.2351942 L38.7197119,53.7900231 C39.1662079,54.1253804 40.130402,54.0071675 40.7806108,53.7952029 C41.4308197,53.5832382 42.1363657,53.2986323 42.8648656,53.4095404 C43.548098,53.5135561 44.064879,53.9518461 44.7605558,53.876796 C45.2996858,53.8186347 45.5562421,53.4854246 45.7242106,53.1978187 L46.4382412,51.975204 C47.4546411,52.1281393 48.5233184,51.4583348 48.1151346,50.9241937 C49.2525082,51.0416647 50.3720235,50.3313048 49.9986489,49.7290574 C50.6043713,50.1783636 51.0308493,50.700318 51.2394999,51.2476972 C51.3327278,51.4922769 51.3894753,51.7508809 51.643414,51.9581342 C51.9799263,52.1988919 52.4141492,52.2744409 52.8170385,52.1623291 C52.6096378,52.5491481 52.4416463,53.0003316 52.8678595,53.328536 C53.2940727,53.6567404 54.5239722,53.5636603 54.4696759,53.1614911 C55.1196224,53.4301066 55.847951,53.6825507 56.6602311,53.70259 C57.4725111,53.7226294 58.3614655,53.4253322 58.4354201,52.9801392 C59.5801347,53.3432321 60.7776873,53.5286152 61.983053,53.5293186 C62.0855939,53.2313894 62.8016494,53.13505 63.3370126,53.2078629 C63.8723758,53.2806759 64.368981,53.455619 64.9204788,53.4559181 C65.4719767,53.4562171 66.0650725,53.1369986 65.7827236,52.8765371 C66.9440228,53.1101833 68.1361299,53.1680401 69.3159868,53.0480177 C70.4289586,52.9343865 71.4837327,52.6643061 72.6107632,52.6060607 C73.7540267,52.5391126 74.8987062,52.7129834 75.9648683,53.1155317 C76.3343462,53.264522 76.7935781,53.4520583 77.199488,53.3351866 C77.4297282,53.2688946 77.5416465,53.1257511 77.6980549,53.0116281 C78.371243,52.5204454 79.7477763,52.6146341 80.8098178,52.8077463 C81.8718593,53.0008585 83.1072503,53.2333438 84.0377977,52.8920287 C84.3889182,52.7632401 84.6476342,52.5642308 85.0211133,52.4561171 C86.3590659,52.0688028 87.9604778,53.0612219 89.3805659,52.7756814 C89.8430106,52.6826925 90.2182242,52.4602187 90.7080904,52.4327764 C91.5769891,52.3840997 92.1511881,52.9504739 92.9960107,53.0723 C93.8725972,53.1986996 94.8228528,52.6857286 94.6090338,52.2015422 C95.4515557,52.2195256 96.2916115,52.1072326 97.0970982,51.8689547 L96.6991567,51.180119 C97.6907661,51.1647571 98.4202378,50.4811 97.9607994,49.9977114 C98.9552074,49.8155734 99.741497,49.3253894 99.9458877,48.7601788 C100.150278,48.1949681 99.7648261,47.5766988 98.9727669,47.1992769 C98.5052994,46.976525 97.8913986,46.8198806 97.624181,46.5131385 C97.4317464,46.2922394 97.4597922,46.0352604 97.3849496,45.7938138 C97.2211342,45.2653384 96.5111083,44.7987206 95.59392,44.6167777 C95.1955679,44.5377569 94.7596712,44.5077294 94.3989924,44.385707 C94.0383136,44.2636847 93.7778047,43.9993623 93.9859609,43.7965961 C94.0961324,43.6892814 94.308325,43.6260816 94.4455268,43.5286406 C95.0018591,43.1335356 94.0479509,42.6334628 93.2336022,42.4116478 L95.1782745,42.350476 L95.5958477,40.5296068 C94.8264385,41.1314348 92.8305979,41.0048542 92.3306171,40.3225183 C92.9553116,40.5196631 93.7931558,40.2675742 94.0985849,39.9089217 C94.4040139,39.5502693 94.328943,39.1331705 94.2474185,38.739695 C94.2317355,38.5408778 94.1086883,38.3645705 93.9233089,38.2752968 C93.7329684,38.188101 93.4297185,38.1517009 93.3672779,38.0198879 C93.3035679,37.8853903 93.549797,37.7664613 93.5863273,37.6289369 C93.6564532,37.3649335 93.0254509,37.2485805 92.5993507,37.1209063 C91.5939995,36.8196688 91.1071774,35.9731372 89.963315,36.0006554 C88.8283344,36.0279598 88.5111071,36.8613538 88.5103297,37.4859699 C88.5095523,38.110586 88.1254667,38.9458736 86.9895896,38.9344813 C86.5360096,38.9299311 86.1405375,38.7730858 85.7783817,38.6228712 L82.5251886,37.2735087 C82.0953487,37.0811808 81.6481507,36.9269916 81.1891613,36.8128605 C80.5329799,36.6655886 79.8080524,36.6481929 79.099862,36.6327153 L74.5489952,36.5332557 C74.317205,36.5157485 74.0839991,36.5350338 73.8587189,36.5903388 C73.6196697,36.6671516 73.5035037,36.8183919 73.359513,36.9484188 C72.7258469,37.5206363 71.2359657,37.7447515 70.1607219,37.4296017 C69.8756424,37.3460448 69.620189,37.2308553 69.3180979,37.1678938 C68.366562,36.9695714 67.3680714,37.3364889 66.379433,37.4690473 C64.758749,37.6863518 62.744778,37.3123281 61.5764034,37.9669741 C61.1868808,38.185226 60.9802381,38.4836482 60.6192666,38.7162667 C60.2582951,38.9488852 59.6069383,39.1066195 59.1516894,38.9309743 C59.2088741,39.3578475 59.2609475,39.8032963 58.9604719,40.1981595 C58.6599963,40.5930228 57.889341,40.9152787 57.1321868,40.8157104 C56.7303582,40.7135521 56.7620359,40.388732 56.9520812,40.1688972 C57.1421265,39.9490624 57.4336049,39.7244507 57.3388574,39.4866863 C57.2448605,39.2508109 56.8146899,39.1136217 56.4930473,38.949196 C56.1714047,38.7847702 55.9568654,38.4731379 56.2984907,38.321386 C56.068282,38.0368373 55.2408548,38.071533 54.8768758,38.310156 C54.5128967,38.5487791 54.4765425,38.8848221 54.4368577,39.1954859 C54.3971728,39.5061498 54.310673,39.8464591 53.8889456,40.0543654 C53.170247,40.4086814 51.7904863,40.2248565 51.3138444,40.6863762 C51.1624332,40.8329857 51.1534992,41.0098412 51.0668694,41.1715661 C50.6801928,41.893434 49.0108815,42.0803687 47.6463772,42.1392754 C47.6176225,42.2894749 47.6112332,42.4428449 47.6274015,42.5947754 C48.0941389,42.4004868 47.3163642,42.0050897 46.978083,41.9053871 Z" id="Path" fill="#61AB43" fill-rule="nonzero"></path>
                    <path d="M94.1828301,41.2964154 C94.2322419,41.5080019 94.277731,41.7322941 94.0926388,41.9251555 C94.065165,41.9530049 94.0340879,41.9781126 94,42 C94.2489797,41.993048 94.4979619,41.9861 94.7469466,41.979156 C94.8313026,41.6527659 94.9156538,41.3263805 95,41 C94.8068326,41.1340697 94.4860903,41.2007163 94.1551094,41.2069404 C94.1669147,41.2361432 94.17618,41.2660494 94.1828301,41.2964154 Z" id="Path" fill="#000000" fill-rule="nonzero" opacity="0.1"></path>
                    <path d="M94,43.9559353 C93.9573508,43.6070804 93.5864703,43.2530415 93.1712998,43 C92.805822,43.2692582 92.3901296,43.3258444 92,43.1594434 C92.3030248,43.8263771 93.2312241,44.1185162 94,43.9559353 Z" id="Path" fill="#000000" fill-rule="nonzero" opacity="0.1"></path>
                    <path d="M95.7527254,44 C95.7432771,44.0459125 95.7338388,44.091818 95.7244106,44.1377166 C95.1496078,44.1578773 94.5748043,44.178046 94,44.1982229 C94.7221188,44.4176217 95.5679824,44.9122654 95.0746567,45.3030769 C94.9529951,45.3994642 94.7648377,45.461981 94.6671436,45.5681278 C94.4825686,45.7686894 94.7135666,46.0301479 95.0333941,46.1508391 C95.3532216,46.2715304 95.7397367,46.3012317 96.0929758,46.3793931 C96.9062765,46.5593634 97.5358821,47.0209086 97.6811441,47.5436475 C97.7475107,47.7824729 97.7226426,48.0366596 97.893281,48.2551583 C98.1302332,48.5585701 98.6745951,48.7135177 99.0891158,48.9338468 C99.1290471,48.9550736 99.1674661,48.9772837 99.2050408,49 C99.5797702,48.7726362 99.8491463,48.4794069 99.9520169,48.1620862 C100.133257,47.6030098 99.7914612,46.991458 99.0891158,46.6181353 C98.6745951,46.3978051 98.1302332,46.2428586 97.893281,45.9394468 C97.7226426,45.7209482 97.7475107,45.4667614 97.6811441,45.227936 C97.5358821,44.7051959 96.9062786,44.2436508 96.0929758,44.0636804 C95.9818223,44.0390876 95.8673471,44.0193514 95.7527254,44 Z" id="Path" fill="#000000" fill-rule="nonzero" opacity="0.1"></path>
                    <path d="M39.0609708,54 C39.1909147,53.7797482 39.522869,53.5841423 40,53.5092034 C39.5441397,53.4338399 39.1146618,53.2796295 38.7419679,53.0574883 C38.5468809,53.0620506 38.3520754,53.0426604 38.1644058,53 C37.8390836,53.2384071 38.0303335,53.5655835 38.4429321,53.7741449 C38.637511,53.8678562 38.8448589,53.943629 39.0609708,54 L39.0609708,54 Z" id="Path" fill="#000000" fill-rule="nonzero" opacity="0.1"></path>
                    <path d="M41.9114599,43.3313284 C42.1854256,43.2383954 42.4660963,43.1625945 42.7514984,43.1044587 C43.6141377,42.9241311 44.6296159,42.7203228 44.8805985,42.2561534 C44.9610502,42.1073738 44.9516533,41.9421568 45.1074833,41.8104322 C45.4103903,41.5543456 46.2373742,41.5867106 46.580706,41.8286975 C46.9240378,42.0706843 46.8378591,42.4236176 46.5182058,42.6741739 C46.3523961,42.804161 46.1235359,42.9251125 46.0933024,43.0801523 C46.0364115,43.3719469 46.667679,43.5508868 47.1664659,43.6894499 C47.4012523,43.7579448 47.6210609,43.8630362 47.8160105,44 C47.8201718,43.9690467 47.8243199,43.9381719 47.827604,43.9075509 C49.1774726,43.8526201 50.8288808,43.6783185 51.2114093,43.0052113 C51.2971073,42.8544144 51.3059431,42.6895013 51.4557311,42.5527976 C51.9272585,42.1224583 53.2922211,42.2938592 54.0032145,41.9634797 C54.4204045,41.7696165 54.5059848,41.4523009 54.5452415,41.162614 C54.5844982,40.8729271 54.6204575,40.5595972 54.9805464,40.3370934 C55.3406135,40.1145896 56.1591714,40.0822366 56.3868973,40.3475647 C56.0489417,40.4890635 56.2611843,40.779648 56.5793764,40.9329645 C56.8975685,41.0862809 57.3231159,41.2142017 57.4161068,41.4341468 C57.5098463,41.6558511 57.2214888,41.8652878 57.0334859,42.0702802 C56.8454829,42.2752726 56.8141391,42.5781399 57.2116485,42.673394 C57.9606946,42.7662374 58.7230741,42.4657524 59.020325,42.0975582 C59.317576,41.729364 59.2660721,41.3140134 59.2094852,40.9159792 C59.6598539,41.079755 60.3042219,40.9326769 60.6613186,40.7157676 C61.0184153,40.4988584 61.2228399,40.2206025 61.6081958,40.017097 C62.7640316,39.4066676 64.7563984,39.7554278 66.3596925,39.5528067 C67.3377262,39.4291974 68.3255064,39.0870623 69.2668333,39.2719932 C69.5656728,39.3306972 69.8183906,39.4381099 70.1004082,39.5160203 C71.1641291,39.8098857 72.6380164,39.6009065 73.2648895,39.0673417 C73.4073379,38.9461038 73.5222529,38.8050788 73.7587328,38.7334558 C73.9815974,38.6818845 74.2123036,38.6639016 74.4416088,38.6802277 C75.942294,38.7111388 77.4429793,38.7420521 78.9436646,38.7729676 C79.6442445,38.7873997 80.3613975,38.8036192 81.0105456,38.940946 C81.4646103,39.0473683 81.9070107,39.1911407 82.3322404,39.3704737 C83.4050061,39.7898744 84.4777722,40.2092794 85.5505387,40.6286887 C85.9088046,40.768754 86.3000282,40.9150086 86.7487495,40.9192481 C87.872446,40.9298709 88.2524028,40.1510078 88.2531743,39.5685818 C88.2539458,38.9861559 88.5677662,38.2090629 89.6905639,38.1836018 C90.8221576,38.1579469 91.3037692,38.9472933 92.298328,39.2281798 C92.7198547,39.3472294 93.3440974,39.4557227 93.2747142,39.7018946 C93.2425172,39.816135 93.0462397,39.9166459 93.048238,40.0258898 C93.328284,39.9661221 93.5830709,39.8337256 93.7814848,39.6448681 C94.0836324,39.310443 94.0093753,38.9215174 93.9287145,38.5546249 C93.9132014,38.3692366 93.791472,38.2048378 93.6080783,38.1215973 C93.4197798,38.0402905 93.1197867,38.0063569 93.0580098,37.8834381 C92.9949953,37.7580293 93.2385806,37.6471319 93.2747166,37.5189007 C93.3440998,37.2727288 92.7198571,37.1642366 92.2983304,37.045187 C91.3037716,36.7643005 90.8221636,35.9749508 89.6905663,36.0006112 C88.5677699,36.026069 88.2539482,36.8031663 88.2531767,37.385589 C88.2524052,37.9680117 87.8724484,38.7468748 86.7487519,38.7362542 C86.3000306,38.7320147 85.908807,38.5857601 85.5505411,38.4456959 C84.4777746,38.0262887 83.4050085,37.6068834 82.3322428,37.1874798 C81.9070123,37.008148 81.4646121,36.8643749 81.010548,36.7579499 C80.3613999,36.6206253 79.6442469,36.6044068 78.943667,36.5899748 C77.4429817,36.5590593 75.9422964,36.5281457 74.4416112,36.4972338 C74.2123061,36.4809092 73.9816004,36.4988913 73.7587352,36.5504598 C73.5222505,36.6220849 73.4073403,36.7631066 73.2648919,36.8843489 C72.6380188,37.4179115 71.1641315,37.6268918 70.1004106,37.3330275 C69.8183834,37.2551182 69.5656764,37.1477033 69.2668357,37.0889993 C68.3255088,36.9040695 67.3377286,37.2462035 66.3596949,37.3698128 C64.7564008,37.5724339 62.764034,37.2236737 61.6081982,37.8341042 C61.2228423,38.0376086 61.0184189,38.3158732 60.661321,38.5327748 C60.3042231,38.7496764 59.6598551,38.89676 59.2094876,38.7329863 C59.2660745,39.1310206 59.3175892,39.5463756 59.0203275,39.9145643 C58.7230657,40.2827531 57.960697,40.5832446 57.2116509,40.4904012 C56.8141451,40.3951471 56.8454842,40.0922656 57.0334883,39.8872874 C57.2214924,39.6823092 57.5098487,39.4728583 57.4161092,39.251154 C57.3231184,39.0312122 56.8975601,38.9032903 56.5793788,38.7499716 C56.2611975,38.596653 56.0489441,38.3060729 56.3868997,38.164573 C56.1591738,37.8992448 55.3406159,37.9315978 54.9805488,38.1541017 C54.6204599,38.3766055 54.5845114,38.6899474 54.5452439,38.9796223 C54.5059764,39.2692972 54.4204069,39.5866237 54.0032169,39.7804869 C53.2922235,40.1108685 51.9272669,39.9394666 51.4557335,40.3698048 C51.3059455,40.5065107 51.2971097,40.6714226 51.2114117,40.8222196 C50.8288832,41.4953257 49.177475,41.6696273 47.8276064,41.7245581 C47.8243223,41.7551791 47.8201742,41.7860539 47.8160129,41.8170083 C47.6210636,41.6800438 47.401255,41.574952 47.1664683,41.5064571 C46.6676814,41.3678994 46.0364139,41.1889541 46.0933048,40.8971606 C46.1235383,40.7421241 46.3523985,40.6211726 46.5182082,40.4911822 C46.8378627,40.2406248 46.9240402,39.8877046 46.5807084,39.6457057 C46.2373766,39.4037069 45.410394,39.3713539 45.1074857,39.6274394 C44.9516557,39.7591651 44.9610526,39.9243799 44.8806009,40.0731617 C44.6296183,40.537331 43.6141401,40.7411383 42.7515008,40.9214659 C41.8888616,41.1017935 40.923694,41.4373079 41.0047826,41.9175214 C41.0918517,42.4329985 42.3805647,42.8912084 41.9114599,43.3313284 Z" id="Path" fill="#000000" fill-rule="nonzero" opacity="0.1"></path>
                    <path d="M38.9387801,49.7780299 C38.7133175,49.810517 38.4978918,49.8763961 38.3041176,49.9721154 C38.4269513,49.9763222 38.5492517,49.9826017 38.6667195,49.9884654 C40.0373383,50.056838 41.7665832,49.8240354 41.979337,49.2155073 C42.0866739,48.9085033 41.7564636,48.6083934 41.4359949,48.3325822 C41.3071735,48.2217215 41.1783602,48.1108607 41.0495548,48 C40.3789576,48.1780078 39.4626267,48.2401152 38.6667195,48.2004105 C38.1648002,48.1753686 37.5748475,48.1410912 37.2299411,48.3058486 C36.964135,48.4328214 36.9645907,48.6305874 37.0529437,48.799871 C37.2803275,49.23556 38.0077861,49.6128799 38.9387801,49.7780299 Z" id="Path" fill="#000000" fill-rule="nonzero" opacity="0.1"></path>
                    <ellipse id="Oval" fill="#EA565C" fill-rule="nonzero" cx="68.5" cy="37.5" rx="14.5" ry="9.5"></ellipse>
                    <path d="M63.7532624,36.9342153 C63.7532624,36.9342153 57.4991863,37.5548065 59.3386203,34.9837854 C61.1780543,32.4127643 63.4773466,31.5262048 64.5810077,32.2354513 C65.6846688,32.9446979 66.144527,34.8951289 65.9605835,34.8951289 C65.77664,34.8951289 63.1094607,33.3879782 62.1897431,34.5405051 C61.2700255,35.693032 63.7532624,36.9342153 63.7532624,36.9342153 Z" id="Path" fill="#FFFFFF" fill-rule="nonzero" opacity="0.2"></path>
                    <path d="M68.9256354,37 C68.9256354,37 74.147923,40.7764075 70.9798228,41.645799 C67.8117226,42.5151905 65.4418598,41.6726281 65.0797667,40.3274358 C64.7176736,38.9822435 65.6976527,37.0498002 65.8387759,37.1760024 C65.979899,37.3022046 66.9963165,40.3815937 68.4894935,40.0571438 C69.9826704,39.7326939 68.9256354,37 68.9256354,37 Z" id="Path" fill="#FFFFFF" fill-rule="nonzero" opacity="0.2"></path>
                    <path d="M71,34.4383991 C71,34.4383991 71.4003572,28.2586679 73.6825,30.4830222 C75.9646428,32.7073765 76.4789962,35.091465 75.585674,36.0425634 C74.6923517,36.9936618 72.6573231,37.1081023 72.6874337,36.9294565 C72.7175444,36.7508108 74.6685616,34.4170918 73.6611082,33.3275654 C72.6536548,32.2380391 71,34.4383991 71,34.4383991 Z" id="Path" fill="#FFFFFF" fill-rule="nonzero" opacity="0.2"></path>
                    <ellipse id="Oval" fill="#EA565C" fill-rule="nonzero" cx="51.5" cy="36.5" rx="14.5" ry="9.5"></ellipse>
                    <path d="M46.7532625,35.9342153 C46.7532625,35.9342153 40.4991863,36.5548065 42.3386203,33.9837852 C44.1780544,31.4127639 46.4773478,30.5262042 47.5810077,31.2354519 C48.6846677,31.9446996 49.1445271,33.8951287 48.9605836,33.8951287 C48.77664,33.8951287 46.1094607,32.3879789 45.1897431,33.5405059 C44.2700255,34.6930329 46.7532625,35.9342153 46.7532625,35.9342153 Z" id="Path" fill="#FFFFFF" fill-rule="nonzero" opacity="0.2"></path>
                    <path d="M51.9256362,36 C51.9256362,36 57.1479221,39.776409 53.9798234,40.6457993 C50.8117247,41.5151897 48.4418598,40.6726296 48.0797667,39.327436 C47.7176737,37.9822424 48.6976527,36.0498002 48.8387769,36.1760024 C48.9799012,36.3022046 49.9963163,39.3815951 51.4894943,39.0571452 C52.9826722,38.7326953 51.9256362,36 51.9256362,36 Z" id="Path" fill="#FFFFFF" fill-rule="nonzero" opacity="0.2"></path>
                    <path d="M54,33.4383986 C54,33.4383986 54.4003572,27.2586687 56.6825,29.4830218 C58.9646428,31.7073749 59.4789962,34.0914633 58.585674,35.0425628 C57.6923517,35.9936623 55.6573242,36.1081017 55.6874394,35.929457 C55.7175546,35.7508124 57.6685662,33.4170912 56.6611127,32.3275649 C55.6536593,31.2380386 54,33.4383986 54,33.4383986 Z" id="Path" fill="#FFFFFF" fill-rule="nonzero" opacity="0.2"></path>
                    <path d="M58.9488636,29 C62.1291938,30.6801116 64.1505578,33.1959522 64.1505578,36.0083294 C64.1505578,41.0667186 57.6135419,45.1673609 49.5497113,45.1673609 C46.7866482,45.1673609 44.2029826,44.6857655 42,43.8492979 C44.5398681,45.1910786 47.8186656,46 51.3991523,46 C59.4629841,46 66,41.8993577 66,36.8409685 C66,33.5158325 63.1751308,30.6047001 58.9488636,29 Z" id="Path" fill="#000000" fill-rule="nonzero" opacity="0.1"></path>
                    <path d="M75.9488636,29 C79.1291938,30.6801127 81.150559,33.1959522 81.150559,36.0083294 C81.150559,41.0667186 74.6135431,45.1673609 66.5497113,45.1673609 C63.7866482,45.1673609 61.2029826,44.6857655 59,43.8492979 C61.5398681,45.1910786 64.8186669,46 68.3991535,46 C76.4629792,46 83,41.8993577 83,36.8409685 C83,33.5158325 80.1751369,30.6047013 75.9488636,29 Z" id="Path" fill="#000000" fill-rule="nonzero" opacity="0.1"></path>
                    <path d="M43.3134015,34.2200923 C43.3134015,34.2200923 55.5873552,20.7984527 85.6537861,26.3421734 C109.421527,30.724527 89.9041869,38.2672791 80.683621,41.2352497 C78.0084781,42.0959938 75.2372336,42.6060115 72.4363844,42.7530648 C62.0342316,43.3006272 35.8696323,43.7901104 43.3134015,34.2200923 Z" id="Path" fill="#714B4F" fill-rule="nonzero"></path>
                    <path d="M80.6839082,38.5470652 C78.0086918,39.3656185 75.2373703,39.8506354 72.4364434,39.9904777 C64.0093682,40.4123194 45.2384861,40.7976101 42.3706549,36.0903348 C38.749378,43.6988976 62.6163076,43.2567784 72.4364434,42.7652013 C75.2373692,42.6253584 78.0086894,42.140341 80.6839046,41.3217876 C87.4426116,39.2529565 99.7327899,34.8467681 96.4545681,31 C94.247328,34.018859 85.8499293,36.9657514 80.6839082,38.5470652 Z" id="Path" fill="#000000" fill-rule="nonzero" opacity="0.1"></path>
                    <line x1="68" y1="28" x2="72" y2="34" id="Path" stroke="#000000" stroke-width="2" opacity="0.1"></line>
                    <line x1="59" y1="30" x2="61" y2="35" id="Path" stroke="#000000" stroke-width="2" opacity="0.1"></line>
                    <line x1="75" y1="28" x2="80" y2="34" id="Path" stroke="#000000" stroke-width="2" opacity="0.1"></line>
                    <line x1="59" y1="35" x2="89" y2="31" id="Path" stroke="#000000" stroke-width="2" opacity="0.1"></line>
                    <line x1="88" y1="29" x2="90" y2="31" id="Path" stroke="#000000" stroke-width="2" opacity="0.1"></line>
                    <line x1="53" y1="33" x2="54" y2="35" id="Path" stroke="#000000" stroke-width="2" opacity="0.1"></line>
                    <path d="M58.1361649,22.5269854 C58.1361649,22.5269854 85.577059,22.4015612 85.8288104,22.150714 C86.0805617,21.8998668 91.8708417,21.7669753 93.0037222,23.3974825 C94.1366027,25.0279898 94.5142303,25.7805301 93.0037222,26.0313785 C91.4932141,26.2822268 41.7723292,51.9940628 41.7723292,51.9940628 C41.7723292,51.9940628 39.0030643,52.24491 40.3876974,49.485591 C41.7723304,46.7262721 58.1361649,22.5269854 58.1361649,22.5269854 Z" id="Path" fill="#F6C964" fill-rule="nonzero"></path>
                    <path d="M69,33.4423078 C69,34.4778417 64.0751318,37 58,37 C51.9248682,37 47,34.4778417 47,33.4423078 C47,32.4067739 51.9248682,32 58,32 C64.075139,32 69,32.4067739 69,33.4423078 Z" id="Path" fill="#61AB43" fill-rule="nonzero"></path>
                    <ellipse id="Oval" fill="#61AB43" fill-rule="nonzero" cx="58" cy="34" rx="11" ry="2"></ellipse>
                    <path d="M82,32.4423078 C82,33.4778417 77.0751318,36 71,36 C64.9248682,36 60,33.4778417 60,32.4423078 C60,31.4067739 64.924867,31 71,31 C77.075133,31 82,31.4067739 82,32.4423078 Z" id="Path" fill="#61AB43" fill-rule="nonzero"></path>
                    <ellipse id="Oval" fill="#61AB43" fill-rule="nonzero" cx="71" cy="32" rx="11" ry="2"></ellipse>
                    <path d="M96,30.4423081 C96,31.4778411 91.0751318,34 85,34 C78.9248682,34 74,31.4778411 74,30.4423081 C74,29.4067752 78.924867,29 85,29 C91.075133,29 96,29.406774 96,30.4423081 Z" id="Path" fill="#61AB43" fill-rule="nonzero"></path>
                    <ellipse id="Oval" fill="#61AB43" fill-rule="nonzero" cx="85" cy="31" rx="11" ry="2"></ellipse>
                    <path d="M43.8958923,31.4396998 C43.8958923,31.4396998 39.3288708,30.7096728 41.665487,27.0595369 C44.0021032,23.4094009 44.7880214,19.3176506 45.8076694,18.4034994 C46.947627,17.3814862 70.476467,-0.537400806 88.8065767,19.2908468 C90.7485123,21.4165441 92.3271075,23.8369702 93.4810791,26.4581612 C93.7028069,26.9537171 93.9472698,27.3984779 94.1862382,27.6331236 C94.9297066,28.3631505 95.5669653,30.448943 94.1862382,31.4918386 C92.8055111,32.5347343 52.1271533,36.6020344 43.8958923,31.4396998 Z" id="Path" fill="#3F3D56" fill-rule="nonzero"></path>
                    <path d="M65,15.5 C64.8527755,15.8071281 64.6792052,15.9806981 64.5,16 C64.2238575,16 64,15.7761423 64,15.5 C64,15.2238596 64.2238575,15 64.5,15 C64.6792053,15.0193022 64.8527756,15.1928728 65,15.5 Z" id="Path" fill="#F2F2F2" fill-rule="nonzero"></path>
                    <path d="M58,14.5 C57.8527755,14.8071277 57.6792052,14.980698 57.5,15 C57.2238575,15 57,14.7761418 57,14.5 C57,14.2238582 57.2238575,14 57.5,14 C57.6792052,14.019302 57.8527755,14.1928723 58,14.5 L58,14.5 Z" id="Path" fill="#F2F2F2" fill-rule="nonzero"></path>
                    <path d="M78,16.8952984 C77.8212403,17.0262687 77.6300962,17.0345421 77.4493754,16.9191316 C77.1739901,16.7182376 76.9740259,16.3818512 77.002744,16.1677933 C77.0314621,15.9537353 77.2779841,15.9430645 77.5533687,16.1439585 C77.7300747,16.2892943 77.8851185,16.5501149 78,16.8952984 L78,16.8952984 Z" id="Path" fill="#F2F2F2" fill-rule="nonzero"></path>
                    <path d="M64,10.8952979 C63.8212404,11.0262682 63.6300962,11.0345422 63.4493754,10.9191326 C63.1739901,10.7182372 62.9740259,10.3818509 63.002744,10.167793 C63.0314621,9.95373514 63.2779841,9.94306433 63.5533687,10.1439598 C63.7300747,10.2892947 63.8851186,10.5501147 64,10.8952979 L64,10.8952979 Z" id="Path" fill="#F2F2F2" fill-rule="nonzero"></path>
                    <path d="M79,13.8952984 C78.8212403,14.0262687 78.6300961,14.0345421 78.4493753,13.9191316 C78.17399,13.7182376 77.9740265,13.3818512 78.0027439,13.1677933 C78.0314614,12.9537353 78.2779834,12.9430645 78.5533686,13.1439585 C78.7300746,13.2892943 78.8851185,13.5501149 79,13.8952984 L79,13.8952984 Z" id="Path" fill="#F2F2F2" fill-rule="nonzero"></path>
                    <path d="M76,13.5 C75.8527753,13.8071276 75.6792049,13.9806979 75.5,14 C75.2238574,14 75,13.7761418 75,13.5 C75,13.2238582 75.2238574,13 75.5,13 C75.6792049,13.0193021 75.8527753,13.1928724 76,13.5 Z" id="Path" fill="#F2F2F2" fill-rule="nonzero"></path>
                    <path d="M67,10.5 C66.8527756,10.8071277 66.6792054,10.980698 66.5,11 C66.223858,11 66,10.7761437 66,10.5 C66,10.2238563 66.223858,10 66.5,10 C66.6792054,10.019302 66.8527756,10.1928723 67,10.5 L67,10.5 Z" id="Path" fill="#F2F2F2" fill-rule="nonzero"></path>
                    <path d="M75,10.5 C74.8527756,10.8071277 74.6792054,10.980698 74.5,11 C74.223858,11 74,10.7761437 74,10.5 C74,10.2238563 74.223858,10 74.5,10 C74.6792054,10.019302 74.8527756,10.1928723 75,10.5 L75,10.5 Z" id="Path" fill="#F2F2F2" fill-rule="nonzero"></path>
                    <path d="M71,15.5 C70.8527755,15.8071277 70.6792052,15.980698 70.5,16 C70.2238575,16 70,15.7761437 70,15.5 C70,15.2238563 70.2238575,15 70.5,15 C70.6792052,15.019302 70.8527755,15.1928723 71,15.5 L71,15.5 Z" id="Path" fill="#F2F2F2" fill-rule="nonzero"></path>
                    <path d="M65,14 C65.05469,13.7466239 65.1740387,13.5160259 65.3438052,13.3357214 C65.6140614,13.0686335 65.8983056,12.9330047 65.9786826,13.0327868 C66.0590596,13.1325688 65.9051335,13.4299767 65.6348773,13.6970654 C65.453874,13.86342 65.2334824,13.9685809 65,14 Z" id="Path" fill="#F2F2F2" fill-rule="nonzero"></path>
                    <path d="M60,13 C60.0546895,12.7466238 60.1740383,12.5160257 60.3438052,12.3357217 C60.6140606,12.0686328 60.8983056,11.9330047 60.9786826,12.0327869 C61.0590596,12.1325691 60.9051335,12.4299771 60.6348773,12.6970652 C60.4538743,12.8634203 60.2334825,12.9685813 60,13 Z" id="Path" fill="#F2F2F2" fill-rule="nonzero"></path>
                    <path d="M52,19 C52.0546898,18.7466239 52.1740385,18.516026 52.3438049,18.3357217 C52.6140607,18.0686328 52.8983046,17.9330047 52.9786824,18.0327869 C53.0590601,18.1325691 52.9051325,18.4299762 52.6348775,18.6970652 C52.4538743,18.8634203 52.2334825,18.9685813 52,19 Z" id="Path" fill="#F2F2F2" fill-rule="nonzero"></path>
                    <path d="M70,12 C70.0546895,11.7466238 70.1740383,11.5160257 70.3438051,11.3357217 C70.6140604,11.0686328 70.8983045,10.9330047 70.9786823,11.0327869 C71.0590601,11.1325691 70.9051332,11.4299771 70.6348772,11.6970652 C70.4538741,11.8634202 70.2334824,11.9685812 70,12 Z" id="Path" fill="#F2F2F2" fill-rule="nonzero"></path>
                    <path d="M68,16 C68.0546895,15.7466238 68.1740383,15.5160257 68.3438052,15.3357217 C68.6140614,15.0686328 68.8983056,14.9330047 68.9786826,15.0327869 C69.0590596,15.1325691 68.9051335,15.4299771 68.6348773,15.6970652 C68.4538743,15.8634203 68.2334825,15.9685813 68,16 L68,16 Z" id="Path" fill="#F2F2F2" fill-rule="nonzero"></path>
                    <path d="M103.16068,58 C103.16068,58 101.87008,58.454866 101.22478,59.3645966 C101.22478,59.3645966 100.06324,59.9710833 99.3534091,59.8194613 C98.6435785,59.6678393 97.3529795,61.1840567 98.3854591,61.6389227 C99.4179387,62.0937886 105.741881,63.306762 105.87094,62.9277077 C106,62.5486533 106,58.6822983 106,58.6822983 L103.16068,58 Z" id="Path" fill="#575A89" fill-rule="nonzero"></path>
                    <path d="M114.621465,58 C114.621465,58 113.421191,58.7552808 112.919825,59.8509407 C112.919825,59.8509407 111.86811,60.7381214 111.149795,60.7306927 C110.431481,60.723264 109.384846,62.5954632 110.463587,62.852862 C111.542329,63.1102607 117.921907,63.0313961 117.993649,62.6048361 C118.06539,62.1782761 117.505702,58.1094973 117.505702,58.1094973 L114.621465,58 Z" id="Path" fill="#575A89" fill-rule="nonzero"></path>
                    <circle id="Oval" fill="#FFB9B9" fill-rule="nonzero" cx="105" cy="5" r="3"></circle>
                    <path d="M108.003531,5 C108.003531,5 108.325544,7.74193514 108.905161,8.06451622 C109.308432,8.31309038 109.677908,8.6396752 110,9.03225811 L108.389943,10 L105.234232,9.75806353 C105.234232,9.75806353 105.491841,7.98387028 105.041025,7.09677432 C104.590209,6.20967837 108.003531,5 108.003531,5 Z" id="Path" fill="#FFB9B9" fill-rule="nonzero"></path>
                    <path d="M115.18584,17 C115.18584,17 117.0177,21.2142857 115.18584,25.2857141 C113.35398,29.3571425 112.557521,30 112.557521,30 L112,24.6428577 L112.641074,24.12127 C112.641074,24.12127 113.029275,22.4959923 112.713753,21.5337103 C112.398231,20.5714282 112.876107,17.5714283 112.876107,17.5714283 L115.18584,17 Z" id="Path" fill="#FFB9B9" fill-rule="nonzero"></path>
                    <path d="M101.861706,26.6708685 C101.861706,26.6708685 99.8024281,31.4351206 100.015458,33.7450609 C100.228487,36.0550012 101.861706,45.8000621 101.861706,45.8000621 C101.861706,45.8000621 101.648678,58.3603629 102.287764,58.3603629 C102.926851,58.3603629 105.980262,59.5153325 105.980262,58.7212911 C105.980262,57.9272496 106.619349,38.8702411 106.619349,38.8702411 C106.619349,38.8702411 110.240836,47.2437746 110.595884,47.8934446 C110.950932,48.5431145 113.223239,58.7212899 114.004345,58.7212899 C114.78545,58.7212899 117.199775,57.9994336 116.986747,57.494134 C116.773718,56.9888343 114.359392,45.7278758 113.01021,42.8404495 C111.661028,39.9530232 111.945065,29.0529951 111.945065,29.0529951 L109.67276,24 L101.861706,26.6708685 Z" id="Path" fill="#3F3D56" fill-rule="nonzero"></path>
                    <path d="M105.340295,3.27513687 C105.340295,3.27513687 103.443408,3.13533353 103.307912,2.64602243 C103.172417,2.15671133 102.901435,1.73730248 103.036928,1.73730248 C103.17242,1.73730248 103.240166,1.38779471 103.240166,1.38779471 C103.240166,1.38779471 103.375658,1.31789362 103.443405,1.38779471 C103.511152,1.4576958 103.578897,0.898484766 103.578897,0.898484766 C103.578897,0.898484766 103.646643,0.688780339 103.714389,0.828583675 C103.782134,0.968387012 103.782135,0.898484766 103.849881,0.688780339 C103.917627,0.479075911 104.256358,0.339272575 104.256358,0.339272575 C104.256358,0.339272575 105.543533,0.409173665 105.746772,0.129568147 C105.950011,-0.150037371 108.253377,0.0596659012 108.727599,0.409173665 C109.20182,0.75868143 111.301951,2.0169103 110.96322,3.0654336 C110.62449,4.11395689 109.405061,6.4207079 109.405061,6.77021567 C109.405061,7.11972343 108.930839,7.04982234 108.795346,6.70031458 C108.659852,6.35080681 107.575916,5.9313968 107.575916,5.72169468 C107.575916,5.51199257 106.966201,3.55474701 106.627473,3.69454919 C106.288745,3.83435137 105.882266,4.95277807 105.746774,4.74307364 C105.611283,4.53336921 105.340295,3.27513687 105.340295,3.27513687 Z" id="Path" fill="#3F3D56" fill-rule="nonzero"></path>
                    <path d="M114,13.4086379 C114,13.4086379 111.024131,9.02325862 110.153147,8.80398616 C109.282163,8.58471369 107.322441,8 107.322441,8 C107.322441,8 105.362722,8.29235805 104.782069,8.58471732 C104.201417,8.87707658 102.023945,9.38870347 101.951363,10.26578 C101.878782,11.1428566 102.532021,19.5481727 102.16911,20.3521589 C101.806199,21.156145 100.572301,28.8305654 101.152961,28.6843857 C101.733621,28.5382061 101.298126,26.6378782 103.838502,26.5647841 C106.378879,26.4916901 107.757941,24.9568106 108.70151,26.784053 C109.64508,28.6112953 112.33062,30 112.33062,30 C112.398118,29.4107489 112.495017,28.825291 112.620949,28.2458468 C112.838695,27.2225931 112.04029,24.7375417 112.04029,24.7375417 C112.04029,24.7375417 112.112873,18.9634554 112.403201,18.3056477 C112.693529,17.6478399 114,13.4086379 114,13.4086379 Z" id="Path" fill="#FF8763" fill-rule="nonzero"></path>
                    <path d="M112.78714,13 L113.481675,13.1369865 C113.481675,13.1369865 113.435373,14.5068496 113.620583,14.9178081 C113.805792,15.3287665 114.129908,17.452055 113.944698,17.5205488 C113.759489,17.5890427 112.092605,18 112.092605,18 L112,14.8493154 L112.78714,13 Z" id="Path" fill="#6C63FF" fill-rule="nonzero"></path>
                    <path d="M101.634226,16 C101.634226,16 100.986961,20.6953472 100.663329,21.2732358 C100.339697,21.8511245 98.7215367,29.9415703 98.7215367,29.9415703 C98.7215367,29.9415703 96.0606152,34.0712989 97.3551447,33.9990633 C98.6496743,33.9268277 100.016065,30.2305152 100.016065,30.2305152 C100.016065,30.2305152 104.029104,22.0678338 104.029104,21.2010014 C104.029104,20.334169 105,16 105,16 L101.634226,16 Z" id="Path" fill="#FFB9B9" fill-rule="nonzero"></path>
                    <path d="M103.749113,10 L102.401188,10.4977769 C102.401188,10.4977769 100.678839,16.3288885 101.053263,16.8266665 C101.427686,17.3244446 105.92077,16.6133334 105.995654,16.3999991 C106.070538,16.1866649 105.171919,10 103.749113,10 Z" id="Path" fill="#6C63FF" fill-rule="nonzero"></path>
                    <path d="M12,49 C12,55.6328125 16.472656,61 22,61" id="Path" fill="#46455B" fill-rule="nonzero"></path>
                    <path d="M22,62 C22,54.8144536 26.9199228,49 33,49" id="Path" fill="#6C63FF" fill-rule="nonzero"></path>
                    <path d="M16,49 C16,55.632814 18.6835943,61 22,61" id="Path" fill="#6C63FF" fill-rule="nonzero"></path>
                    <path d="M22,63 C22,53.6035153 27.3671875,46 34,46" id="Path" fill="#46455B" fill-rule="nonzero"></path>
                    <path d="M20,62.5719545 C20,62.5719545 21.343727,62.5393537 21.7486921,62.312198 C22.1536572,62.0850423 23.8156829,61.8138049 23.916145,62.1781136 C24.0166072,62.5424223 25.9355158,63.9900192 24.4184548,63.9996581 C22.9013938,64.009297 20.8934803,63.8135146 20.4892886,63.6195724 C20.0850968,63.4256303 20,62.5719545 20,62.5719545 Z" id="Path" fill="#A8A8A8" fill-rule="nonzero"></path>
                    <path d="M24.4458381,63.9110426 C22.928671,63.9177883 20.9206183,63.7808209 20.516404,63.6451416 C20.2085729,63.5418151 20.0859048,63.1710547 20.0448619,63 C20.0164378,63.0006731 20,63.0009635 20,63.0009635 C20,63.0009635 20.0851142,63.5981809 20.4893285,63.7338596 C20.8935428,63.8695383 22.9016024,64.0065064 24.4187637,63.9997606 C24.8567095,63.9978147 25.0079839,63.9119543 24.999678,63.7847879 C24.9388366,63.8616189 24.7718142,63.9095942 24.4458381,63.9110426 Z" id="Path" fill="#000000" fill-rule="nonzero" opacity="0.2"></path>
                </g>
            </g>
        </g>
    </g>
</svg>