<?xml version="1.0" encoding="UTF-8"?>
<svg width="17px" height="23px" viewBox="0 0 17 23" version="1.1" xmlns="http://www.w3.org/2000/svg" xmlns:xlink="http://www.w3.org/1999/xlink">
    <!-- Generator: Sketch 64 (93537) - https://sketch.com -->
    <title>noun_Lock_1076701</title>
    <desc>Created with Sketch.</desc>
    <g id="Page-1" stroke="none" stroke-width="1" fill="none" fill-rule="evenodd">
        <g id="Medition-" transform="translate(-315.000000, -640.000000)" fill="#686C83" fill-rule="nonzero">
            <g id="Basic-" transform="translate(25.000000, 623.000000)">
                <g id="noun_Lock_1076701" transform="translate(290.000000, 17.000000)">
                    <g id="Group">
                        <g id="Shape">
                            <path d="M3,9 L3,5.0412458 C3,2.25704262 5.461766,0 8.5,0 C11.5375661,0 14,2.25921045 14,5.0412458 L14,9 L15.115749,9 C16.1563921,9 17,9.89706015 17,10.9984194 L17,21.0015805 C17,22.1052771 16.1569673,23 15.115749,23 L1.884251,23 C0.843607905,23 0,22.1029398 0,21.0015805 L0,10.9984194 C0,9.89472285 0.843032645,9 1.884251,9 L3,9 Z M2,11 L2,21 L15,21 L15,11 L2,11 Z M12,9 L12,5.0412458 C12,3.40365122 10.469071,2 8.5,2 C6.5295897,2 5,3.40212444 5,5.0412458 L5,9 L12,9 Z M7.5,14.7844172 C7.5,14.2322387 7.9438648,13.7846097 8.5,13.7846097 C9.05228475,13.7846097 9.5,14.2283263 9.5,14.7844172 L9.5,17.7848022 C9.5,18.3369806 9.0561352,18.7846097 8.5,18.7846097 C7.94771525,18.7846097 7.5,18.340893 7.5,17.7848022 L7.5,14.7844172 Z"></path>
                        </g>
                    </g>
                </g>
            </g>
        </g>
    </g>
</svg>