<?xml version="1.0" encoding="UTF-8"?>
<svg width="123px" height="116px" viewBox="0 0 123 116" version="1.1" xmlns="http://www.w3.org/2000/svg" xmlns:xlink="http://www.w3.org/1999/xlink">
    <!-- Generator: Sketch 64 (93537) - https://sketch.com -->
    <title>undraw_Meditation_o89g</title>
    <desc>Created with Sketch.</desc>
    <defs>
        <linearGradient x1="49.999567%" y1="99.986128%" x2="49.999567%" y2="0.0113813981%" id="linearGradient-1">
            <stop stop-color="#808080" stop-opacity="0.25" offset="0%"></stop>
            <stop stop-color="#808080" stop-opacity="0.12" offset="54%"></stop>
            <stop stop-color="#808080" stop-opacity="0.1" offset="100%"></stop>
        </linearGradient>
    </defs>
    <g id="Page-1" stroke="none" stroke-width="1" fill="none" fill-rule="evenodd">
        <g id="All-excercise--option-1" transform="translate(-39.000000, -545.000000)">
            <g id="Mediation-" transform="translate(28.000000, 520.000000)">
                <g id="undraw_Meditation_o89g" transform="translate(11.000000, 25.000000)">
                    <rect id="Rectangle" fill="#FFFFFF" fill-rule="nonzero" opacity="0.05" x="0" y="104" width="123" height="1"></rect>
                    <rect id="Rectangle" fill="#FFFFFF" fill-rule="nonzero" opacity="0.05" x="0" y="107" width="123" height="1"></rect>
                    <rect id="Rectangle" fill="#FFFFFF" fill-rule="nonzero" opacity="0.05" x="0" y="115" width="123" height="1"></rect>
                    <g id="Group" opacity="0.5" transform="translate(101.000000, 33.000000)">
                        <path d="M2.38684211,0.369777778 C1.80705408,-0.190748343 1.01055712,-0.0907817164 0.517105263,0.604444444 C-0.0190975379,1.39325218 0.00656157651,2.61531027 0.575,3.36177778 L2.36184211,5.76177778 C2.47848156,5.91934465 2.66757107,5.91934465 2.78421053,5.76177778 L4.56052632,3.34755556 C5.12593281,2.59717957 5.1469247,1.37523379 4.60789474,0.590222222 C4.11272859,-0.101549717 3.31647291,-0.196253052 2.73947368,0.368 C2.63435358,0.470616656 2.49252606,0.471331674 2.38684211,0.369777778 Z" id="Path" fill="#F55F44" fill-rule="nonzero"></path>
                        <path d="M2.58552632,5.66755556 C2.54388795,5.77249089 2.54388795,5.89862022 2.58552632,6.00355556 C2.61078639,6.05401529 2.63406417,6.10623561 2.65526316,6.16 C2.70131579,6.31466667 2.62105263,6.48355556 2.53947368,6.60977778 C2.48815789,6.68977778 2.43157895,6.79644444 2.46447368,6.89422222 C2.48065333,6.92942116 2.50111651,6.96067547 2.525,6.98666667 C2.63610332,7.1309969 2.68312639,7.3434172 2.648922,7.54646739 C2.61471761,7.74951758 2.50428528,7.91351862 2.35789474,7.97866667" id="Path" stroke="#F55F44"></path>
                    </g>
                    <g id="Group" opacity="0.5" transform="translate(10.000000, 45.000000)">
                        <path d="M2.38684211,0.369777778 C1.80705408,-0.190748343 1.01055712,-0.0907817164 0.517105263,0.604444444 C-0.0190975379,1.39325218 0.00656157651,2.61531027 0.575,3.36177778 L2.36184211,5.76177778 C2.47848156,5.91934465 2.66757107,5.91934465 2.78421053,5.76177778 L4.56052632,3.34755556 C5.12593281,2.59717957 5.1469247,1.37523379 4.60789474,0.590222222 C4.11272859,-0.101549717 3.31647291,-0.196253052 2.73947368,0.368 C2.63435358,0.470616656 2.49252606,0.471331674 2.38684211,0.369777778 Z" id="Path" fill="#F55F44" fill-rule="nonzero"></path>
                        <path d="M2.58552632,5.66755556 C2.54388795,5.77249089 2.54388795,5.89862022 2.58552632,6.00355556 C2.61078639,6.05401529 2.63406417,6.10623561 2.65526316,6.16 C2.70131579,6.31466667 2.62105263,6.48355556 2.53947368,6.60977778 C2.48815789,6.68977778 2.43157895,6.79644444 2.46447368,6.89422222 C2.48065333,6.92942116 2.50111651,6.96067547 2.525,6.98666667 C2.63610332,7.1309969 2.68312639,7.3434172 2.648922,7.54646739 C2.61471761,7.74951758 2.50428528,7.91351862 2.35789474,7.97866667" id="Path" stroke="#F55F44"></path>
                    </g>
                    <g id="Group" opacity="0.5" transform="translate(70.000000, 0.000000)">
                        <path d="M2.38684211,0.369777778 C1.80705408,-0.190748343 1.01055712,-0.0907817164 0.517105263,0.604444444 C-0.0190975379,1.39325218 0.00656157651,2.61531027 0.575,3.36177778 L2.36184211,5.76177778 C2.47848156,5.91934465 2.66757107,5.91934465 2.78421053,5.76177778 L4.56052632,3.34755556 C5.12593281,2.59717957 5.1469247,1.37523379 4.60789474,0.590222222 C4.11272859,-0.101549717 3.31647291,-0.196253052 2.73947368,0.368 C2.63435358,0.470616656 2.49252606,0.471331674 2.38684211,0.369777778 L2.38684211,0.369777778 Z" id="Path" fill="#F55F44" fill-rule="nonzero"></path>
                        <path d="M2.58552632,5.66755556 C2.54388795,5.77249089 2.54388795,5.89862022 2.58552632,6.00355556 C2.61078639,6.05401529 2.63406417,6.10623561 2.65526316,6.16 C2.70131579,6.31466667 2.62105263,6.48355556 2.53947368,6.60977778 C2.48815789,6.68977778 2.43157895,6.78755556 2.46447368,6.89422222 C2.48065333,6.92942116 2.50111651,6.96067547 2.525,6.98666667 C2.63610332,7.1309969 2.68312639,7.3434172 2.648922,7.54646739 C2.61471761,7.74951758 2.50428528,7.91351862 2.35789474,7.97866667" id="Path" stroke="#F55F44"></path>
                    </g>
                    <g id="Group" opacity="0.5" transform="translate(86.000000, 22.000000)" fill="#47E6B1" fill-rule="nonzero">
                        <rect id="Rectangle" x="0.823529412" y="0.02" width="1" height="1.88888889"></rect>
                        <polygon id="Rectangle" transform="translate(1.000000, 0.964444) rotate(90.000000) translate(-1.000000, -0.964444) " points="0.833333333 -0.0355555556 1.16666667 -0.0355555556 1.16666667 1.96444444 0.833333333 1.96444444"></polygon>
                    </g>
                    <g id="Group" opacity="0.5" transform="translate(33.000000, 64.000000)" fill="#47E6B1" fill-rule="nonzero">
                        <rect id="Rectangle" x="0.823529412" y="0.02" width="1" height="1.88888889"></rect>
                        <polygon id="Rectangle" transform="translate(1.000000, 0.964444) rotate(90.000000) translate(-1.000000, -0.964444) " points="0.833333333 -0.0355555556 1.16666667 -0.0355555556 1.16666667 1.96444444 0.833333333 1.96444444"></polygon>
                    </g>
                    <g id="Group" opacity="0.5" transform="translate(20.000000, 20.000000)" fill="#47E6B1" fill-rule="nonzero">
                        <rect id="Rectangle" x="0.823529412" y="0.02" width="1" height="1.88888889"></rect>
                        <polygon id="Rectangle" transform="translate(1.000000, 0.964444) rotate(90.000000) translate(-1.000000, -0.964444) " points="0.833333333 -0.0355555556 1.16666667 -0.0355555556 1.16666667 1.96444444 0.833333333 1.96444444"></polygon>
                    </g>
                    <g id="Group" opacity="0.5" transform="translate(105.000000, 61.000000)" fill="#47E6B1" fill-rule="nonzero">
                        <rect id="Rectangle" x="0.823529412" y="0.02" width="1" height="1.88888889"></rect>
                        <polygon id="Rectangle" transform="translate(1.000000, 0.964444) rotate(90.000000) translate(-1.000000, -0.964444) " points="0.833333333 -0.0355555556 1.16666667 -0.0355555556 1.16666667 1.96444444 0.833333333 1.96444444"></polygon>
                    </g>
                    <path d="M86.8412618,40.0239999 C86.5877467,39.9099224 86.4591885,39.6258347 86.5413467,39.3612478 C86.5489396,39.3417115 86.553001,39.3209923 86.5533433,39.3000477 L86.5533433,39.3000477 C86.5649518,39.175487 86.4905346,39.0588545 86.3723355,39.0163578 C86.2541364,38.9738612 86.1220208,39.0162381 86.0509856,39.1194328 L86.0509856,39.1194328 C86.0392272,39.1363134 86.0291808,39.1543138 86.0209941,39.1731695 C85.90639,39.4255197 85.6209908,39.5534872 85.3551826,39.4717065 C85.3352038,39.4654405 85.3145796,39.4614348 85.2937,39.459765 L85.2937,39.459765 C85.1718249,39.4519408 85.0592818,39.5247984 85.0170453,39.6388641 C84.9748089,39.7529299 85.0129287,39.8810636 85.1107518,39.9538437 L85.1107518,39.9538437 C85.127554,39.965796 85.1456648,39.9758113 85.1647365,39.9836974 C85.4187582,40.0972706 85.5475249,40.381819 85.4646516,40.6464495 C85.4585175,40.6663768 85.4544967,40.6868887 85.452655,40.7076496 L85.452655,40.7076496 C85.4447947,40.8289646 85.5179886,40.9409906 85.6325809,40.983033 C85.7471731,41.0250753 85.8758984,40.9871307 85.9490144,40.8897571 L85.9490144,40.8897571 C85.961324,40.8732241 85.9714068,40.8551584 85.9790059,40.8360205 C86.0915069,40.5805342 86.3781279,40.449102 86.646317,40.5300201 C86.6657822,40.5362883 86.6859102,40.5402954 86.7063,40.5419616 L86.7063,40.5419616 C86.8281751,40.5497857 86.9407182,40.4769282 86.9829547,40.3628624 C87.0251911,40.2487967 86.9870713,40.1206629 86.8892482,40.0478828 L86.8892482,40.0478828 C86.8742128,40.0381391 86.8581141,40.0301267 86.8412618,40.0239999 L86.8412618,40.0239999 Z" id="Path" fill="#4D8AF0" fill-rule="nonzero" opacity="0.5"></path>
                    <path d="M28.8343848,35.0239999 C28.5818166,34.9099224 28.4537385,34.6258347 28.5355899,34.3612478 C28.5431544,34.3417115 28.5472006,34.3209923 28.5475417,34.3000477 L28.5475417,34.3000477 C28.5591068,34.175487 28.4849675,34.0588545 28.3672099,34.0163578 C28.2494522,33.9738612 28.1178301,34.0162381 28.0470602,34.1194328 L28.0470602,34.1194328 C28.0353457,34.1363134 28.0253369,34.1543138 28.0171807,34.1731695 C27.9030047,34.4255197 27.6186715,34.5534872 27.353856,34.4717065 C27.3339519,34.4654405 27.3134047,34.4614348 27.292603,34.459765 L27.292603,34.459765 C27.1711832,34.4519408 27.0590604,34.5247984 27.0169817,34.6388641 C26.974903,34.7529299 27.0128804,34.8810636 27.1103381,34.9538437 L27.1103381,34.9538437 C27.1270776,34.965796 27.1451208,34.9758113 27.1641212,34.9836974 C27.4201151,35.0945763 27.5519446,35.3798532 27.470386,35.6464495 C27.4642749,35.6663768 27.4602691,35.6868887 27.4584342,35.7076496 L27.4584342,35.7076496 C27.4506033,35.8289646 27.5235238,35.9409906 27.6376881,35.983033 C27.7518524,36.0250753 27.8800968,35.9871307 27.9529398,35.8897571 L27.9529398,35.8897571 C27.9652034,35.8732241 27.9752485,35.8551584 27.9828193,35.8360205 C28.0949001,35.5805342 28.3804505,35.449102 28.647638,35.5300201 C28.6670305,35.5362883 28.6870833,35.5402954 28.707397,35.5419616 L28.707397,35.5419616 C28.8288168,35.5497857 28.9409396,35.4769282 28.9830183,35.3628624 C29.025097,35.2487967 28.9871196,35.1206629 28.8896619,35.0478828 L28.8896619,35.0478828 C28.8723324,35.0375964 28.8537555,35.0295701 28.8343848,35.0239999 Z" id="Path" fill="#4D8AF0" fill-rule="nonzero" opacity="0.5"></path>
                    <path d="M51.8343848,4.02019282 C51.5818166,3.9065395 51.4537385,3.62350793 51.5355899,3.35990472 C51.5431544,3.34044102 51.5472006,3.31979886 51.5475417,3.29893217 L51.5475417,3.29893217 C51.5591068,3.17483454 51.4849675,3.05863566 51.3672099,3.01629701 C51.2494522,2.97395837 51.1178301,3.01617771 51.0470602,3.1189888 L51.0470602,3.1189888 C51.0353457,3.13580659 51.0253369,3.15374009 51.0171807,3.17252567 C50.9056885,3.42684395 50.6206331,3.55785489 50.353856,3.47738842 C50.3339519,3.47114579 50.3134047,3.46715493 50.292603,3.46549134 L50.292603,3.46549134 C50.1711832,3.45769626 50.0590604,3.53028294 50.0169817,3.64392461 C49.974903,3.75756627 50.0128804,3.88522363 50.1103381,3.95773314 L50.1103381,3.95773314 C50.1270776,3.96964098 50.1451208,3.97961908 50.1641212,3.98747585 C50.4201151,4.09794251 50.5519446,4.38215879 50.470386,4.64776395 C50.4642749,4.66761713 50.4602691,4.68805275 50.4584342,4.7087365 L50.4584342,4.7087365 C50.4506033,4.82960049 50.5235238,4.94121001 50.6376881,4.98309606 C50.7518524,5.02498211 50.8800968,4.98717856 50.9529398,4.89016701 L50.9529398,4.89016701 C50.9652034,4.87369541 50.9752485,4.85569694 50.9828193,4.83663014 C51.0949001,4.5820937 51.3804505,4.45115018 51.647638,4.53176739 C51.6670305,4.53801234 51.6870833,4.54200454 51.707397,4.54366447 L51.707397,4.54366447 C51.8288168,4.55145955 51.9409396,4.47887286 51.9830183,4.3652312 C52.025097,4.25158953 51.9871196,4.12393218 51.8896619,4.05142267 L51.8896619,4.05142267 C51.8727349,4.03857968 51.8541407,4.02807452 51.8343848,4.02019282 Z" id="Path" fill="#4D8AF0" fill-rule="nonzero" opacity="0.5"></path>
                    <path d="M88.8956054,96.7218602 L81.1887439,90.7683294 C81.1887439,90.7683294 80.567887,88.2894174 80.3192275,86.5529046 C80.070568,84.8163917 79.6967868,77.3764696 79.6967868,77.3764696 C79.8738246,76.7324174 79.9910027,76.0732155 80.0468107,75.4073596 C80.122834,75.3914283 80.2051926,75.3723108 80.2764644,75.3516001 C81.4450819,75.0527191 82.4063221,74.2191508 82.8723431,73.1005059 C83.6642525,71.1186508 82.6411056,68.7767482 81.345542,67.2059209 C80.0499783,65.6350937 78.4186451,64.3733339 77.5665507,62.4265277 C76.5148951,60.0288655 76.8744219,57.1277738 76.3375074,54.5022938 C76.2861578,54.1345997 76.150612,53.7839262 75.9415528,53.4779105 C75.607367,53.0621033 75.0862907,52.972888 74.6222318,52.8072024 C73.1524481,52.2814691 72.0501104,50.846058 71.1900968,49.3469217 C69.7979202,46.9173968 68.3566453,43.2213327 65.4883497,43.0110394 C64.4224398,42.932976 63.3105991,43.2946168 62.2320186,43.2914305 C60.5610899,43.2914305 58.9059994,43.3121412 57.2493251,43.5431452 C56.656977,43.6243949 56.0440391,43.7359141 55.5498877,44.1278243 C53.853618,45.4787994 54.62177,49.0458199 52.9872692,50.5003486 C52.5010368,50.930494 51.8785961,51.0866208 51.329011,51.3829432 C49.2573763,52.4981349 48.3371776,55.4725106 48.4591317,58.1473777 C48.517733,59.402765 48.7758954,60.7075393 49.5123711,61.6235897 C50.0968001,62.35643 50.9267211,62.7770166 51.4715547,63.5512783 C52.3474064,64.7971068 52.22862,66.4523699 52.1335909,68.1347163 C50.9615651,68.628587 50.0207768,69.1957416 49.7246028,69.8059108 C48.7204617,71.8562705 48.8503349,78.8660472 48.8503349,78.8660472 C48.8503349,78.8660472 49.2225323,90.3365909 46.3621558,91.7704088 L35.6682123,99.2103309 C35.6682123,99.2103309 28.081721,92.5765331 26.2159826,96.4828905 C24.9410086,99.1545713 29.5974354,100.666453 32.6700436,101.354685 C30.7330334,102.737523 29.6607882,105.292905 30.5683163,107.023046 C31.9937531,109.752079 35.9786408,111.611263 35.9786408,111.611263 C35.9786408,111.611263 51.1753806,112.348883 58.1996163,110.765311 L58.3152351,110.765311 C61.2975656,111.308568 65.5770436,111.880502 69.0091786,111.536386 C69.0756989,111.695699 69.1216297,111.797659 69.1216297,111.797659 C69.1216297,111.797659 91.1367088,113.658437 95.1136774,106.09425 C97.1536359,102.213383 95.0249836,100.422704 92.4655327,99.5974618 C95.3306606,99.3680509 98.593327,98.5619266 98.968692,96.1100978 C99.6529017,91.6365858 88.8956054,96.7218602 88.8956054,96.7218602 Z M86.6782593,99.0940323 C82.6490247,100.569272 79.380023,100.652115 77.6378225,100.542188 C76.7825605,98.6654801 73.2158009,90.5389185 73.1223556,85.0983759 C73.1461129,83.88441 73.3599284,82.8233848 73.8429931,82.0268192 C74.8788105,80.3110171 75.1860713,78.9648213 75.1512273,77.9436243 C75.1512273,77.8687471 75.1512273,77.79387 75.1512273,77.720586 C75.1563058,77.4086246 75.1265549,77.0970755 75.0625334,76.7917905 C75.2329169,77.2124533 75.283375,77.6725568 75.2082447,78.1204619 C74.8360474,80.0417779 75.8306855,92.5048422 75.8306855,92.5048422 C75.8306855,92.5048422 76.638433,95.2960079 78.3172807,96.1005391 L86.6782593,99.0940323 Z M47.2285046,98.2098446 L51.0961897,95.7293395 C51.0961897,95.7293395 52.9001591,94.8610831 53.0870497,92.7533707 L54.3620237,82.680003 C54.4482382,83.1117445 54.5619801,83.5374588 54.7025448,83.9545078 C54.927447,84.6156572 55.0193085,85.5842809 55.0383143,86.7377078 C54.9892159,92.3598673 53.0870497,101.68765 53.0870497,101.68765 L53.1092232,101.68765 C53.1092232,101.714733 53.0997203,101.737037 53.0965527,101.754561 L52.9619281,101.762527 C49.8338862,101.666939 42.543569,101.39292 38.4636522,100.824173 L47.2285046,98.2098446 Z M40.4846048,104.080533 L40.4846048,104.09965 L39.5343136,104.09965 L40.4846048,104.080533 Z" id="Shape" fill="url(#linearGradient-1)" fill-rule="nonzero"></path>
                    <path d="M72.2807659,51.2485221 C73.1221179,52.7243042 74.2075262,54.1422125 75.6525964,54.6518236 C76.1069907,54.8125841 76.6159765,54.9042177 76.9371032,55.3141571 C77.1429903,55.6155597 77.2765211,55.9605251 77.3272722,56.322126 C77.8523144,58.9039408 77.5006806,61.7574411 78.5314974,64.119014 C79.3664268,66.0304572 80.9640322,67.2747441 82.2340884,68.816438 C83.5041445,70.358132 84.4996373,72.6634387 83.7305389,74.6118568 C83.2766978,75.7094102 82.3342723,76.5297619 81.1856096,76.8271376 C80.1226802,77.1165066 79.0131874,76.9959362 77.9342017,76.8046311 C76.5116103,76.552237 75.0633289,76.1615888 73.8783713,75.1970254 C71.8279772,73.5283306 70.9609351,70.5349686 69.8883719,67.8711658 C69.3842029,66.6236638 68.7146537,65.3166803 67.6067666,64.8713735 C66.338316,64.3601548 64.9109078,65.2137935 64.0872178,66.4661184 C63.2635278,67.7184433 62.8990489,69.2922893 62.4992462,70.806654 C62.0496688,72.5171465 61.4812745,74.2919433 60.2979226,75.4108369 C59.250814,76.4334668 57.7007024,76.743366 56.3416415,76.201779 C55.0250219,75.6535854 53.9845714,74.2630064 53.6811066,72.6505778 C53.2154729,70.1668269 54.3329939,67.1847182 52.9601772,65.2202239 C52.4271068,64.4598264 51.6130506,64.0450641 51.0414451,63.3248567 C50.3269381,62.4229899 50.0668255,61.1385129 50.0106283,59.9054792 C49.8902058,57.272221 50.7909662,54.3383404 52.8220927,53.2483837 C53.3647968,52.9574071 53.9701207,52.8046845 54.4469938,52.3802766 C56.0526274,50.9511151 55.2947684,47.4417117 56.9565991,46.1106141 C57.4382892,45.7231811 58.0420074,45.6154715 58.6232468,45.5334836 C60.2513592,45.3084188 61.8682322,45.2826971 63.5043728,45.2875199 C64.5624853,45.2875199 65.6527105,44.9338467 66.6963723,45.0110117 C69.5062311,45.2216081 70.917583,48.8580123 72.2807659,51.2485221 Z" id="Path" fill="#965D7B" fill-rule="nonzero"></path>
                    <polygon id="Path" fill="#575988" fill-rule="nonzero" points="43 103.6431 43.5920065 111 85 110.740555 84.2101428 102.709097 70.210658 101 45.6617106 102.555051"></polygon>
                    <polygon id="Path" fill="#000000" fill-rule="nonzero" opacity="0.05" points="43 103.6431 43.5920065 111 85 110.740555 84.2101428 102.709097 70.210658 101 45.6617106 102.555051"></polygon>
                    <path d="M70.823499,108 L57,108.906525 C57,108.906525 66.4709104,110.595809 72,109.775051 L70.823499,108 Z" id="Path" fill="#F7C4A7" fill-rule="nonzero"></path>
                    <path d="M70.823499,108 L57,108.906525 C57,108.906525 66.4709104,110.595809 72,109.775051 L70.823499,108 Z" id="Path" fill="#000000" fill-rule="nonzero" opacity="0.1"></path>
                    <path d="M60.1573437,58 C60.1573437,58 62.7660013,65.323764 58.9097897,68.5917065 C55.0535782,71.8596491 58.2299849,81 58.2299849,81 L73.0855881,80.2727273 C73.0855881,80.2727273 74.5587475,69.984051 73.7653929,67.8054226 C73.7653929,67.8054226 70.2498308,68.8947368 69.4564761,66.5948963 C68.6631215,64.2950558 68.0953724,58 68.0953724,58 L60.1573437,58 Z" id="Path" fill="#F7C4A7" fill-rule="nonzero"></path>
                    <path d="M55.386916,102.388959 C55.386916,102.388959 42.6761954,102.089837 38.9389071,101.129496 C35.2016188,100.169155 31.9796095,104.778791 33.3026641,107.414218 C34.6257187,110.049644 38.3039015,111.834934 38.3039015,111.834934 C38.3039015,111.834934 57.2267651,112.790551 61.3095935,110.103172 C61.3095935,110.103172 62.8630081,105.502982 61.3095935,104.607189 L41.5835008,104.607189 L56.132555,104.308066 L55.386916,102.388959 Z" id="Path" fill="#575988" fill-rule="nonzero"></path>
                    <path d="M77.3406094,100.480219 C77.3406094,100.480219 81.7096166,101.464531 87.728861,99.0029389 C87.728861,99.0029389 99.003668,98.6348352 95.2256978,106.137989 C91.4477276,113.641143 70.553017,111.800625 70.553017,111.800625 C70.553017,111.800625 69.3087287,109.030928 70.553017,108.293099 C71.7973053,107.55527 82.5946166,102.815326 85.958861,103.06181 L76.6266991,104.968814 L77.3406094,100.480219 Z" id="Path" fill="#575988" fill-rule="nonzero"></path>
                    <path d="M69,60.7034217 C68.7645679,59.2139218 68.626556,58 68.626556,58 L60,58 C60.398461,58.9588019 60.674974,59.9510114 60.8248241,60.9597094 C63.3103659,62.4365772 66.649636,62.3318928 69,60.7034217 L69,60.7034217 Z" id="Path" fill="#000000" fill-rule="nonzero" opacity="0.1"></path>
                    <circle id="Oval" fill="#F7C4A7" fill-rule="nonzero" cx="64.5" cy="55.5" r="6.5"></circle>
                    <path d="M59.0210151,66.7161488 C59.0210151,66.7161488 51.0384895,68.2098305 50.0711521,70.1788461 C49.1038147,72.1478617 49.2249311,78.9001214 49.2249311,78.9001214 C49.2249311,78.9001214 49.5866866,89.9492737 46.8057908,91.323335 L36.4025313,98.4911184 C36.4025313,98.4911184 29.0255877,92.1008679 27.2104356,95.8626164 C25.3952836,99.6243648 35.9196594,101 35.9196594,101 L47.6520118,97.5373027 L51.4018386,95.1480416 C51.4018386,95.1480416 53.1548389,94.3122723 53.3365134,92.2802986 L54.9094327,79.9767055 L61.1995162,78.1839727 L71.3589493,78.1839727 L72.7199149,74.3466745 C72.7199149,74.3466745 75.2298925,76.3330036 74.8665434,78.1839727 C74.5031942,80.0349418 75.4721253,92.0347619 75.4721253,92.0347619 C75.4721253,92.0347619 76.2577881,94.7215002 77.8912656,95.4974592 L87.325594,98.84211 C87.325594,98.84211 97.3033525,99.7974997 97.9694926,95.4974592 C98.6356327,91.1974187 88.171815,96.109727 88.171815,96.109727 L80.6673805,90.3695193 C80.6673805,90.3695193 80.0633922,87.9802581 79.8211595,86.3071457 C79.5789267,84.6340334 79.2171712,77.4678239 79.2171712,77.4678239 C79.2171712,77.4678239 81.5151951,69.9411791 74.8617625,68.628502 L66.273655,66 L59.0210151,66.7161488 Z" id="Path" fill="#F7C4A7" fill-rule="nonzero"></path>
                    <path d="M53.3321854,68.9441427 L54.5687417,77.0584137 C54.5687417,77.0584137 53.2972185,80.8315023 54.5687417,84.5446256 C55.8402649,88.2577488 53,102.093985 53,102.093985 C53,102.093985 67.8990728,106.828099 77,101.3744 C77,101.3744 70.3054305,87.3614232 73.1393377,82.690431 C75.973245,78.0194388 73.1870199,76.1920709 73.1870199,76.1920709 L73.6225166,67.5996544 L71.5721854,67 L70.3658278,75.5040463 C70.3658278,75.5040463 62.0421192,81.2528385 55.8895364,76.2236316 L54.5623841,67 L53.3321854,68.9441427 Z" id="Path" fill="#000000" fill-rule="nonzero" opacity="0.1"></path>
                    <path d="M62,77.9764247 C60.9440272,76.1384487 58.7799973,75.4752778 57,76.4441657 C58.5967337,77.7518577 60.3580402,78.101032 62,77.9764247 Z" id="Path" fill="#FFFFFF" fill-rule="nonzero" opacity="0.07"></path>
                    <path d="M68,77.9785386 C69.0548001,76.13881 71.2197657,75.4746346 73,76.4446219 C71.4054326,77.7482455 69.6436117,78.0964268 68,77.9785386 Z" id="Path" fill="#FFFFFF" fill-rule="nonzero" opacity="0.07"></path>
                    <path d="M53.3321854,69.3655539 L54.5687417,77.0603112 C54.5687417,77.0603112 53.2972185,80.8335196 54.5687417,84.5467607 C55.8402649,88.2600019 53,102.093521 53,102.093521 C53,102.093521 67.8990728,106.827786 77,101.375491 C77,101.375491 70.3054305,87.3620698 73.1393377,82.6909292 C75.973245,78.0197887 73.1870199,76.1923627 73.1870199,76.1923627 L73.6225166,67.5980954 L71.5721854,67 L70.3658278,75.5043164 C70.3658278,75.5043164 62.0421192,81.253291 55.8895364,76.2223464 L54.5623841,67 L53.3321854,69.3655539 Z" id="Path" fill="#000000" fill-rule="nonzero" opacity="0.1"></path>
                    <path d="M53.2717881,69.1856519 L54.5687417,77.0603112 C54.5687417,77.0603112 53.2972185,80.8335196 54.5687417,84.5467607 C55.8402649,88.2600019 53,102.093521 53,102.093521 C53,102.093521 67.8990728,106.827786 77,101.375491 C77,101.375491 70.3054305,87.3604917 73.1393377,82.6893511 C75.973245,78.0182106 73.1870199,76.1923627 73.1870199,76.1923627 L73.6225166,67.5980954 L71.5721854,67 L70.3658278,75.5043164 C70.3658278,75.5043164 62.0421192,81.253291 55.8895364,76.2223464 L54.5623841,67 L53.2717881,69.1856519 Z" id="Path" fill="#FC6681" fill-rule="nonzero"></path>
                    <path d="M61,105.019996 L64.0201181,104.570634 C64.0201181,104.570634 67.5055762,99.6529006 70.0037175,103.421143 C70.0037175,103.421143 71.0492018,105.848033 72.3273562,106.294028 C73.2013437,106.585046 74.0950625,106.798906 75,106.933569 L69.829215,108.530739 C69.829215,108.530739 67.5637437,110 65.1819375,109.616275 C63.7799172,109.38056 62.3470896,109.512033 61,110 L61,105.019996 Z" id="Path" fill="#F7C4A7" fill-rule="nonzero"></path>
                    <path d="M56,84.7377459 C56,84.7377459 62.8366076,85.6771778 64,84" id="Path" fill="#000000" fill-rule="nonzero" opacity="0.1"></path>
                    <path d="M69,83 C69,83 69.8,84.8520699 73,83.5152171" id="Path" fill="#000000" fill-rule="nonzero" opacity="0.1"></path>
                    <path d="M57,67 C57,67 60.3663239,68.69 61,67.676" id="Path" fill="#000000" fill-rule="nonzero" opacity="0.1"></path>
                    <path d="M67,67 C67,67 70.3663239,68.69 71,67.676" id="Path" fill="#000000" fill-rule="nonzero" opacity="0.1"></path>
                    <path d="M60.5340182,105 C60.5340182,105 61.5824773,108.848156 60.5340182,108.983974 C59.4855591,109.119791 58,108.35016 58,108.264142 C58,108.178124 58.6607325,105.730018 58.6607325,105.730018 L60.5340182,105 Z" id="Path" fill="#000000" fill-rule="nonzero" opacity="0.1"></path>
                    <path d="M60.5347887,105 C60.5347887,105 61.5815141,108.848156 60.5347887,108.983974 C59.4880632,109.119791 58,108.35016 58,108.264142 C58,108.178124 58.6605549,105.730018 58.6605549,105.730018 L60.5347887,105 Z" id="Path" fill="#575988" fill-rule="nonzero"></path>
                    <path d="M56.3951848,67.1179746 C55.9740937,68.1794876 55.8249298,69.4320441 56.2711016,70.4806293 C56.6116706,71.2807141 57.2782881,71.9285387 57.4063315,72.799008 C57.5673758,73.8921221 56.8228761,75.0010368 57.1014035,76.0654226 C57.2070063,76.4719289 57.4538528,76.8166692 57.7046594,77.1398633 C58.4676395,78.1209368 59.4814263,79.0718456 60.6588974,78.9957154 C60.8463423,77.0163314 59.2728608,75.0958404 59.7876744,73.1868409 C59.9724792,72.5031059 60.4054507,71.9342843 60.6668176,71.2821505 C61.101109,70.2005277 61.0390674,68.9652082 60.8819832,67.7974004 C60.6536172,66.1024271 60.075442,64.0253666 58.5310012,63.2324638 C57.8221425,62.8676136 56.8149559,62.8403217 56.5628293,63.8314501 C56.4242256,64.360052 56.7476341,64.8570526 56.7911953,65.3741631 C56.8453167,66.0306062 56.628831,66.5290432 56.3951848,67.1179746 Z" id="Path" fill="#000000" fill-rule="nonzero" opacity="0.1"></path>
                    <path d="M56.3951848,65.1191161 C55.9740937,66.1806553 55.8249298,67.4318065 56.2711016,68.4818542 C56.6116706,69.2805224 57.2782881,69.9297995 57.4063315,70.798854 C57.5673758,71.8919952 56.8228761,73.0009375 57.1014035,74.0653497 C57.2070063,74.4718661 57.4538528,74.8180514 57.7046594,75.1412535 C58.4676395,76.1209149 59.4814263,77.0718473 60.6588974,76.9957152 C60.8463423,75.016282 59.2728608,73.0957434 59.7876744,71.1866965 C59.9724792,70.5029445 60.4054507,69.9341089 60.6668176,69.2819589 C61.101109,68.2003092 61.0390674,66.9649591 60.8819832,65.7971222 C60.6536172,64.1021068 60.075442,62.0249948 58.5310012,61.2320724 C57.8221425,60.8672131 56.8149559,60.841357 56.5628293,61.8310736 C56.4242256,62.3596885 56.7476341,62.8567015 56.7911953,63.3738248 C56.8453167,64.0302842 56.628831,64.5287336 56.3951848,65.1191161 Z" id="Path" fill="#965D7B" fill-rule="nonzero"></path>
                    <path d="M56,52.5757163 C56,52.5757163 64.2532588,51.3572992 64.479702,53.1841222 C64.7061453,55.0109452 72,58 72,58 L70.1899441,53.1841222 L66.8543762,47.214039 C66.8543762,47.214039 60.7463687,46.7324512 60.4662942,47.214039 C60.1862197,47.6956268 56.9594041,49.2848665 56.9594041,49.2848665 L56,52.5757163 Z" id="Path" fill="#000000" fill-rule="nonzero" opacity="0.1"></path>
                    <path d="M56,52.5757163 C56,52.5757163 64.2532588,51.3572992 64.479702,53.1841222 C64.7061453,55.0109452 72,58 72,58 L70.1899441,53.1841222 L66.8543762,47.214039 C66.8543762,47.214039 60.7463687,46.7324512 60.4662942,47.214039 C60.1862197,47.6956268 56.9594041,49.2848665 56.9594041,49.2848665 L56,52.5757163 Z" id="Path" fill="#965D7B" fill-rule="nonzero"></path>
                    <path d="M68.8909306,64.3629156 C69.4273446,64.9042725 69.8063637,65.5437112 69.9978033,66.2303073 C70.1809549,66.888005 70.1968812,67.5725475 70.3621158,68.2302452 C70.7324005,69.6312085 71.833301,70.8090242 72.9799893,71.869394 C73.3522858,72.2536898 73.8067246,72.5757923 74.3197831,72.819029 C74.8453486,73.037143 75.5142501,73.0824436 76,72.819029 C75.5381394,72.4985691 75.2873014,72.0103292 75.1220668,71.5271228 C74.8891704,70.8512245 74.7856772,70.1483458 74.8154869,69.4449726 C74.8652564,68.2705124 75.2733659,67.0306181 74.6940494,65.9601815 C74.3595987,65.3410732 73.736485,64.8712891 73.1014268,64.4501612 C72.6597174,64.1488327 72.1835729,63.8852416 71.680011,63.6632729 C70.7403637,63.2689899 69.6653434,63.0961764 68.6281478,63.0089308 C67.2784001,62.8931626 68.4589317,63.9333988 68.8909306,64.3629156 Z" id="Path" fill="#000000" fill-rule="nonzero" opacity="0.1"></path>
                    <path d="M68.8909306,64.3658282 C69.4280007,64.9061082 69.8071207,65.545051 69.9978033,66.2312753 C70.1809549,66.888879 70.1968812,67.5733236 70.3621158,68.2309273 C70.7324005,69.6316902 71.833301,70.8093375 72.9799893,71.8695557 C73.3522858,72.2537966 73.8067246,72.575853 74.3197831,72.8190548 C74.8453486,73.0371377 75.5142501,73.0824318 76,72.8190548 C75.5381394,72.4986408 75.2873014,72.0121483 75.1220668,71.5273334 C74.8891704,70.8515318 74.7856772,70.1487536 74.8154869,69.445481 C74.8652564,68.2711887 75.2733659,67.0314716 74.6940494,65.9611881 C74.3595987,65.3438459 73.736485,64.874129 73.1014268,64.4513838 C72.6602545,64.1489985 72.1840435,63.8848462 71.680011,63.6629304 C70.7403637,63.2687038 69.6653434,63.095915 68.6281478,63.0086819 C67.2784001,62.8946078 68.4589317,63.9346952 68.8909306,64.3658282 Z" id="Path" fill="#965D7B" fill-rule="nonzero"></path>
                </g>
            </g>
        </g>
    </g>
</svg>