<?xml version="1.0" encoding="UTF-8"?>
<svg width="312px" height="246px" viewBox="0 0 312 246" version="1.1" xmlns="http://www.w3.org/2000/svg" xmlns:xlink="http://www.w3.org/1999/xlink">
    <!-- Generator: Sketch 64 (93537) - https://sketch.com -->
    <title>Bg Banner </title>
    <desc>Created with Sketch.</desc>
    <g id="Page-1" stroke="none" stroke-width="1" fill="none" fill-rule="evenodd" opacity="0.0713076637">
        <g id="Medition-" transform="translate(0.000000, -42.000000)" fill="#6364FF" fill-rule="nonzero">
            <g id="Bg-Banner-" transform="translate(-55.000000, 42.000000)">
                <path d="M360,78.0964951 C356.376564,69.4234587 351.478928,61.3776398 345.479382,54.2420738 L144.023435,52.1968158 L309.889436,28.1797429 C299.175534,23.7787476 287.768286,21.4455583 276.236243,21.2964636 C243.652478,-5.56696894 197.822098,-7.16866661 163.548732,17.3582174 C150.209944,10.2908437 135.423621,6.61936663 120.426592,6.65089405 C75.6664361,6.65089405 38.3679842,38.613673 30,81 L360,78.0964951 Z" id="Path-Copy"></path>
                <path d="M367,109.550884 C367.009909,98.3986789 364.873639,87.3483107 360.707191,77 L10.6707949,113.660878 C7.07105514,120.172941 4.31645175,127.115634 2.47336305,134.321657 L110.867237,150.439281 L0,162.191715 C3.33483372,208.748142 43.3360128,245.513113 92.2042825,245.513113 C116.799943,245.513113 139.147704,236.195112 155.710823,221.000894 C172.321055,236.480529 194.884183,246 219.745688,246 C256.634131,246 288.468165,225.043731 303.294883,194.742599 C333.039176,185.340652 356.127263,161.67125 364.05212,132.081979 L226.967235,110.883946 L366.979775,110.883946 C366.979775,110.440711 367,109.997477 367,109.550884 Z" id="Path-Copy-2"></path>
            </g>
        </g>
    </g>
</svg>