<?xml version="1.0" encoding="UTF-8"?>
<svg width="72px" height="68px" viewBox="0 0 72 68" version="1.1" xmlns="http://www.w3.org/2000/svg" xmlns:xlink="http://www.w3.org/1999/xlink">
    <!-- Generator: Sketch 64 (93537) - https://sketch.com -->
    <title>undraw_Meditation_o89g Copy</title>
    <desc>Created with Sketch.</desc>
    <defs>
        <linearGradient x1="49.999567%" y1="99.986128%" x2="49.999567%" y2="0.0113813981%" id="linearGradient-1">
            <stop stop-color="#808080" stop-opacity="0.25" offset="0%"></stop>
            <stop stop-color="#808080" stop-opacity="0.12" offset="54%"></stop>
            <stop stop-color="#808080" stop-opacity="0.1" offset="100%"></stop>
        </linearGradient>
    </defs>
    <g id="Page-1" stroke="none" stroke-width="1" fill="none" fill-rule="evenodd">
        <g id="Medition-" transform="translate(-39.000000, -633.000000)">
            <g id="Basic-" transform="translate(25.000000, 623.000000)">
                <g id="undraw_Meditation_o89g-Copy" transform="translate(14.000000, 10.000000)">
                    <rect id="Rectangle" fill="#FFFFFF" fill-rule="nonzero" opacity="0.05" x="0" y="61" width="72" height="1"></rect>
                    <rect id="Rectangle" fill="#FFFFFF" fill-rule="nonzero" opacity="0.05" x="0" y="63" width="72" height="1"></rect>
                    <rect id="Rectangle" fill="#FFFFFF" fill-rule="nonzero" opacity="0.05" x="0" y="67" width="72" height="1"></rect>
                    <g id="Group" opacity="0.5" transform="translate(59.000000, 19.000000)">
                        <path d="M1.43210526,0.231111111 C1.08423245,-0.119217715 0.606334274,-0.0567385727 0.310263158,0.377777778 C-0.0114585227,0.870782614 0.00393694591,1.63456892 0.345,2.10111111 L1.41710526,3.60111111 C1.48708894,3.6995904 1.60054264,3.6995904 1.67052632,3.60111111 L2.73631579,2.09222222 C3.07555969,1.62323723 3.08815482,0.859521118 2.76473684,0.368888889 C2.46763715,-0.0634685731 1.98988375,-0.122658158 1.64368421,0.23 C1.58061215,0.29413541 1.49551564,0.294582296 1.43210526,0.231111111 Z" id="Path" fill="#F55F44" fill-rule="nonzero"></path>
                        <path d="M1.55131579,3.54222222 C1.52633277,3.60780681 1.52633277,3.68663764 1.55131579,3.75222222 C1.56647183,3.78375956 1.5804385,3.81639726 1.59315789,3.85 C1.62078947,3.94666667 1.57263158,4.05222222 1.52368421,4.13111111 C1.49289474,4.18111111 1.45894737,4.24777778 1.47868421,4.30888889 C1.488392,4.33088823 1.50066991,4.35042217 1.515,4.36666667 C1.58166199,4.45687306 1.60987583,4.58963575 1.5893532,4.71654212 C1.56883057,4.84344849 1.50257117,4.94594914 1.41473684,4.98666667" id="Path" stroke="#F55F44"></path>
                    </g>
                    <g id="Group" opacity="0.5" transform="translate(6.000000, 26.000000)">
                        <path d="M1.43210526,0.231111111 C1.08423245,-0.119217715 0.606334274,-0.0567385727 0.310263158,0.377777778 C-0.0114585227,0.870782614 0.00393694591,1.63456892 0.345,2.10111111 L1.41710526,3.60111111 C1.48708894,3.6995904 1.60054264,3.6995904 1.67052632,3.60111111 L2.73631579,2.09222222 C3.07555969,1.62323723 3.08815482,0.859521118 2.76473684,0.368888889 C2.46763715,-0.0634685731 1.98988375,-0.122658158 1.64368421,0.23 C1.58061215,0.29413541 1.49551564,0.294582296 1.43210526,0.231111111 Z" id="Path" fill="#F55F44" fill-rule="nonzero"></path>
                        <path d="M1.55131579,3.54222222 C1.52633277,3.60780681 1.52633277,3.68663764 1.55131579,3.75222222 C1.56647183,3.78375956 1.5804385,3.81639726 1.59315789,3.85 C1.62078947,3.94666667 1.57263158,4.05222222 1.52368421,4.13111111 C1.49289474,4.18111111 1.45894737,4.24777778 1.47868421,4.30888889 C1.488392,4.33088823 1.50066991,4.35042217 1.515,4.36666667 C1.58166199,4.45687306 1.60987583,4.58963575 1.5893532,4.71654212 C1.56883057,4.84344849 1.50257117,4.94594914 1.41473684,4.98666667" id="Path" stroke="#F55F44"></path>
                    </g>
                    <g id="Group" opacity="0.5" transform="translate(41.000000, 0.000000)">
                        <path d="M1.43210526,0.231111111 C1.08423245,-0.119217715 0.606334274,-0.0567385727 0.310263158,0.377777778 C-0.0114585227,0.870782614 0.00393694591,1.63456892 0.345,2.10111111 L1.41710526,3.60111111 C1.48708894,3.6995904 1.60054264,3.6995904 1.67052632,3.60111111 L2.73631579,2.09222222 C3.07555969,1.62323723 3.08815482,0.859521118 2.76473684,0.368888889 C2.46763715,-0.0634685731 1.98988375,-0.122658158 1.64368421,0.23 C1.58061215,0.29413541 1.49551564,0.294582296 1.43210526,0.231111111 L1.43210526,0.231111111 Z" id="Path" fill="#F55F44" fill-rule="nonzero"></path>
                        <path d="M1.55131579,3.54222222 C1.52633277,3.60780681 1.52633277,3.68663764 1.55131579,3.75222222 C1.56647183,3.78375956 1.5804385,3.81639726 1.59315789,3.85 C1.62078947,3.94666667 1.57263158,4.05222222 1.52368421,4.13111111 C1.49289474,4.18111111 1.45894737,4.24222222 1.47868421,4.30888889 C1.488392,4.33088823 1.50066991,4.35042217 1.515,4.36666667 C1.58166199,4.45687306 1.60987583,4.58963575 1.5893532,4.71654212 C1.56883057,4.84344849 1.50257117,4.94594914 1.41473684,4.98666667" id="Path" stroke="#F55F44"></path>
                    </g>
                    <g id="Group" opacity="0.5" transform="translate(50.000000, 12.000000)" fill="#47E6B1" fill-rule="nonzero">
                        <rect id="Rectangle" x="0.411764706" y="1.01" width="1" height="1"></rect>
                        <polygon id="Rectangle" transform="translate(0.500000, 1.482222) rotate(90.000000) translate(-0.500000, -1.482222) " points="0.416666667 0.982222222 0.583333333 0.982222222 0.583333333 1.98222222 0.416666667 1.98222222"></polygon>
                    </g>
                    <g id="Group" opacity="0.5" transform="translate(19.000000, 37.000000)" fill="#47E6B1" fill-rule="nonzero">
                        <rect id="Rectangle" x="0.411764706" y="1.01" width="1" height="1"></rect>
                        <polygon id="Rectangle" transform="translate(0.500000, 1.482222) rotate(90.000000) translate(-0.500000, -1.482222) " points="0.416666667 0.982222222 0.583333333 0.982222222 0.583333333 1.98222222 0.416666667 1.98222222"></polygon>
                    </g>
                    <g id="Group" opacity="0.5" transform="translate(12.000000, 11.000000)" fill="#47E6B1" fill-rule="nonzero">
                        <rect id="Rectangle" x="0.411764706" y="1.01" width="1" height="1"></rect>
                        <polygon id="Rectangle" transform="translate(0.500000, 1.482222) rotate(90.000000) translate(-0.500000, -1.482222) " points="0.416666667 0.982222222 0.583333333 0.982222222 0.583333333 1.98222222 0.416666667 1.98222222"></polygon>
                    </g>
                    <g id="Group" opacity="0.5" transform="translate(62.000000, 35.000000)" fill="#47E6B1" fill-rule="nonzero">
                        <rect id="Rectangle" x="0.411764706" y="1.01" width="1" height="1"></rect>
                        <polygon id="Rectangle" transform="translate(0.500000, 1.482222) rotate(90.000000) translate(-0.500000, -1.482222) " points="0.416666667 0.982222222 0.583333333 0.982222222 0.583333333 1.98222222 0.416666667 1.98222222"></polygon>
                    </g>
                    <path d="M50.9206309,23.5119999 C50.7938733,23.4549612 50.7295943,23.3129173 50.7706734,23.1806239 C50.7744698,23.1708557 50.7765005,23.1604961 50.7766717,23.1500239 L50.7766717,23.1500239 C50.7824759,23.0877435 50.7452673,23.0294272 50.6861677,23.0081789 C50.6270682,22.9869306 50.5610104,23.008119 50.5254928,23.0597164 L50.5254928,23.0597164 C50.5196136,23.0681567 50.5145904,23.0771569 50.510497,23.0865847 C50.453195,23.2127599 50.3104954,23.2767436 50.1775913,23.2358532 C50.1676019,23.2327203 50.1572898,23.2307174 50.14685,23.2298825 L50.14685,23.2298825 C50.0859125,23.2259704 50.0296409,23.2623992 50.0085227,23.3194321 C49.9874045,23.3764649 50.0064643,23.4405318 50.0553759,23.4769218 L50.0553759,23.4769218 C50.063777,23.482898 50.0728324,23.4879057 50.0823682,23.4918487 C50.2093791,23.5486353 50.2737624,23.6909095 50.2323258,23.8232248 C50.2292588,23.8331884 50.2272484,23.8434443 50.2263275,23.8538248 L50.2263275,23.8538248 C50.2223973,23.9144823 50.2589943,23.9704953 50.3162904,23.9915165 C50.3735866,24.0125377 50.4379492,23.9935654 50.4745072,23.9448786 L50.4745072,23.9448786 C50.480662,23.936612 50.4857034,23.9275792 50.489503,23.9180102 C50.5457535,23.7902671 50.6890639,23.724551 50.8231585,23.76501 C50.8328911,23.7681442 50.8429551,23.7701477 50.85315,23.7709808 L50.85315,23.7709808 C50.9140875,23.7748929 50.9703591,23.7384641 50.9914773,23.6814312 C51.0125955,23.6243983 50.9935357,23.5603315 50.9446241,23.5239414 L50.9446241,23.5239414 C50.9371064,23.5190695 50.9290571,23.5150634 50.9206309,23.5119999 L50.9206309,23.5119999 Z" id="Path" fill="#4D8AF0" fill-rule="nonzero" opacity="0.5"></path>
                    <path d="M16.9171924,20.5119999 C16.7909083,20.4549612 16.7268693,20.3129173 16.767795,20.1806239 C16.7715772,20.1708557 16.7736003,20.1604961 16.7737709,20.1500239 L16.7737709,20.1500239 C16.7795534,20.0877435 16.7424838,20.0294272 16.6836049,20.0081789 C16.6247261,19.9869306 16.5589151,20.008119 16.5235301,20.0597164 L16.5235301,20.0597164 C16.5176729,20.0681567 16.5126684,20.0771569 16.5085904,20.0865847 C16.4515023,20.2127599 16.3093357,20.2767436 16.176928,20.2358532 C16.1669759,20.2327203 16.1567023,20.2307174 16.1463015,20.2298825 L16.1463015,20.2298825 C16.0855916,20.2259704 16.0295302,20.2623992 16.0084908,20.3194321 C15.9874515,20.3764649 16.0064402,20.4405318 16.0551691,20.4769218 L16.0551691,20.4769218 C16.0635388,20.482898 16.0725604,20.4879057 16.0820606,20.4918487 C16.2100576,20.5472881 16.2759723,20.6899266 16.235193,20.8232248 C16.2321374,20.8331884 16.2301345,20.8434443 16.2292171,20.8538248 L16.2292171,20.8538248 C16.2253016,20.9144823 16.2617619,20.9704953 16.318844,20.9915165 C16.3759262,21.0125377 16.4400484,20.9935654 16.4764699,20.9448786 L16.4764699,20.9448786 C16.4826017,20.936612 16.4876243,20.9275792 16.4914096,20.9180102 C16.54745,20.7902671 16.6902253,20.724551 16.823819,20.76501 C16.8335152,20.7681442 16.8435416,20.7701477 16.8536985,20.7709808 L16.8536985,20.7709808 C16.9144084,20.7748929 16.9704698,20.7384641 16.9915092,20.6814312 C17.0125485,20.6243983 16.9935598,20.5603315 16.9448309,20.5239414 L16.9448309,20.5239414 C16.9361662,20.5187982 16.9268778,20.5147851 16.9171924,20.5119999 Z" id="Path" fill="#4D8AF0" fill-rule="nonzero" opacity="0.5"></path>
                    <path d="M29.9171924,2.51009641 C29.7909083,2.45326975 29.7268693,2.31175396 29.767795,2.17995236 C29.7715772,2.17022051 29.7736003,2.15989943 29.7737709,2.14946609 L29.7737709,2.14946609 C29.7795534,2.08741727 29.7424838,2.02931783 29.6836049,2.00814851 C29.6247261,1.98697919 29.5589151,2.00808886 29.5235301,2.0594944 L29.5235301,2.0594944 C29.5176729,2.0679033 29.5126684,2.07687005 29.5085904,2.08626283 C29.4528443,2.21342197 29.3103165,2.27892745 29.176928,2.23869421 C29.1669759,2.2355729 29.1567023,2.23357747 29.1463015,2.23274567 L29.1463015,2.23274567 C29.0855916,2.22884813 29.0295302,2.26514147 29.0084908,2.3219623 C28.9874515,2.37878314 29.0064402,2.44261182 29.0551691,2.47886657 L29.0551691,2.47886657 C29.0635388,2.48482049 29.0725604,2.48980954 29.0820606,2.49373792 C29.2100576,2.54897125 29.2759723,2.69107939 29.235193,2.82388197 C29.2321374,2.83380856 29.2301345,2.84402637 29.2292171,2.85436825 L29.2292171,2.85436825 C29.2253016,2.91480025 29.2617619,2.970605 29.318844,2.99154803 C29.3759262,3.01249105 29.4400484,2.99358928 29.4764699,2.94508351 L29.4764699,2.94508351 C29.4826017,2.93684771 29.4876243,2.92784847 29.4914096,2.91831507 C29.54745,2.79104685 29.6902253,2.72557509 29.823819,2.76588369 C29.8335152,2.76900617 29.8435416,2.77100227 29.8536985,2.77183224 L29.8536985,2.77183224 C29.9144084,2.77572977 29.9704698,2.73943643 29.9915092,2.6826156 C30.0125485,2.62579477 29.9935598,2.56196609 29.9448309,2.52571133 L29.9448309,2.52571133 C29.9363674,2.51928984 29.9270703,2.51403726 29.9171924,2.51009641 Z" id="Path" fill="#4D8AF0" fill-rule="nonzero" opacity="0.5"></path>
                    <path d="M52.0480964,56.1431073 L47.5084382,52.6917852 C47.5084382,52.6917852 47.142728,51.2547348 46.9962573,50.2480606 C46.8497866,49.2413865 46.6296141,44.9283882 46.6296141,44.9283882 C46.7338967,44.5550246 46.8029194,44.1728786 46.8357926,43.7868752 C46.8805734,43.7776396 46.929086,43.766557 46.9710681,43.7545508 C47.6594318,43.5812864 48.2256418,43.0980585 48.5001473,42.4495686 C48.9666145,41.3006671 48.3639389,39.9430424 47.6007987,39.0324179 C46.8376585,38.1217934 45.8767362,37.3903385 45.3748175,36.2617552 C44.7553492,34.8718061 44.9671253,33.1900138 44.6508605,31.6679964 C44.6206135,31.4548404 44.5407715,31.2515514 44.417627,31.074151 C44.2207778,30.8331034 43.9138425,30.7813843 43.6404927,30.6853347 C42.7747297,30.3805618 42.1254075,29.5484394 41.6188242,28.6793749 C40.7987749,27.2709547 39.9498048,25.1283088 38.2602608,25.0063997 C37.632396,24.9611455 36.9774762,25.1707923 36.3421479,25.1689452 C35.3579023,25.1689452 34.382986,25.1809514 33.4071367,25.3148668 C33.0582193,25.3619681 32.6971737,25.4266168 32.4060983,25.6538112 C31.4069257,26.4369852 31.8593988,28.5048231 30.8966106,29.3480282 C30.6101998,29.5973878 30.2435566,29.6878961 29.9198284,29.8596772 C28.6995504,30.5061652 28.1575156,32.2304409 28.2293515,33.7810885 C28.2638701,34.5088493 28.4159384,35.2652402 28.8497528,35.7962839 C29.1940056,36.2211188 29.6828631,36.4649371 30.0037925,36.9137845 C30.5197052,37.6360039 30.4497351,38.5955768 30.393759,39.57085 C29.7033877,39.8571519 29.1492247,40.1859372 28.974766,40.5396584 C28.3832857,41.7282728 28.4597863,45.7919114 28.4597863,45.7919114 C28.4597863,45.7919114 28.6790258,52.441502 26.9941466,53.2727008 L20.6949744,57.5856991 C20.6949744,57.5856991 16.2262192,53.7400192 15.1272227,56.0045742 C14.3762106,57.5533747 17.1190373,58.4298276 18.9289298,58.8288031 C17.7879512,59.6304482 17.1563547,61.1118292 17.690926,62.1148091 C18.5305669,63.6968575 20.8778295,64.7746453 20.8778295,64.7746453 C20.8778295,64.7746453 29.8293338,65.2022509 33.9668973,64.284238 L34.0350015,64.284238 C35.7917167,64.59917 38.3125051,64.930726 40.3341737,64.7312382 C40.3733569,64.8235937 40.400412,64.8827011 40.400412,64.8827011 C40.400412,64.8827011 53.3681983,65.9614125 55.7107963,61.5763769 C56.9124156,59.3265988 55.658552,58.2885239 54.1509302,57.8101228 C55.8386083,57.6771309 57.7604529,57.2098125 57.9815583,55.7884625 C58.3845859,53.1951222 52.0480964,56.1431073 52.0480964,56.1431073 Z M50.7419884,57.5182796 C48.3686036,58.3734908 46.4430273,58.4215157 45.4167996,58.3577904 C44.9130151,57.2698435 42.8120471,52.5587933 42.757004,49.4048556 C42.770998,48.7011073 42.8969441,48.0860202 43.1814891,47.624243 C43.7916281,46.6295751 43.9726173,45.8491718 43.9520928,45.2571735 C43.9520928,45.2137665 43.9520928,45.1703594 43.9520928,45.1278759 C43.9550842,44.9470287 43.9375597,44.7664206 43.8998485,44.5894438 C44.0002113,44.8333063 44.0299332,45.1000329 43.9856784,45.359688 C43.7664389,46.4734944 44.3523216,53.6984593 44.3523216,53.6984593 C44.3523216,53.6984593 44.828118,55.3165263 45.8170284,55.7829212 L50.7419884,57.5182796 Z M27.5044616,57.005707 L29.7826871,55.5677331 C29.7826871,55.5677331 30.8452992,55.064396 30.9553855,53.8425337 L31.7063976,48.0029003 C31.7571814,48.2531852 31.8241801,48.4999761 31.9069784,48.7417437 C32.0394551,49.1250187 32.0935653,49.6865397 32.1047605,50.3551929 C32.0758395,53.6144158 30.9553855,59.0218259 30.9553855,59.0218259 L30.9684465,59.0218259 C30.9684465,59.0375263 30.9628489,59.0504561 30.9609831,59.0606152 L30.8816837,59.065233 C29.0391385,59.0098197 24.744842,58.8509684 22.3416034,58.5212595 L27.5044616,57.005707 Z M23.5320275,60.412368 L23.5320275,60.424368 L22.9722669,60.424368 L23.5320275,60.412368 Z" id="Shape" fill="url(#linearGradient-1)" fill-rule="nonzero"></path>
                    <path d="M42.1063329,29.71006 C42.6012458,30.5863056 43.2397213,31.4281887 44.0897626,31.7307702 C44.3570533,31.8262218 44.6564568,31.8806292 44.8453548,32.1240308 C44.9664649,32.3029885 45.0450124,32.5078118 45.074866,32.7225123 C45.3837143,34.2554649 45.1768709,35.9497306 45.7832337,37.3519145 C46.2743687,38.486834 47.2141366,39.2256293 47.9612285,40.1410101 C48.7083203,41.0563909 49.2939043,42.4251667 48.8414934,43.58204 C48.5745281,44.2337123 48.0201602,44.7207962 47.3444763,44.897363 C46.7192237,45.0691758 46.0665808,44.9975871 45.4318833,44.8839997 C44.5950649,44.7341407 43.7431346,44.5021934 43.0461008,43.9294838 C41.8399866,42.9386963 41.3299618,41.1613876 40.6990423,39.5797547 C40.4024723,38.8390504 40.0086198,38.0630289 39.3569215,37.798628 C38.6107741,37.4950919 37.7711222,38.0019399 37.2865987,38.7455078 C36.8020752,39.4890757 36.5876759,40.4235468 36.3524978,41.3227008 C36.0880405,42.3383058 35.7536909,43.3920913 35.0576015,44.0564344 C34.4416553,44.6636209 33.5298249,44.8476236 32.7303773,44.5260563 C31.9558953,44.2005663 31.3438655,43.37491 31.1653568,42.4175306 C30.8914546,40.9428035 31.5488199,39.1721764 30.7412807,38.005758 C30.4277099,37.5542719 29.9488533,37.3080068 29.6126147,36.8803837 C29.1923165,36.3449002 29.0393091,35.582242 29.0062519,34.8501283 C28.9354152,33.2866312 29.4652742,31.5446396 30.6600545,30.8974778 C30.9792922,30.7247104 31.3353651,30.6340314 31.6158787,30.3820392 C32.5603691,29.5334746 32.1145696,27.4497663 33.0921171,26.6594271 C33.3754642,26.4293888 33.7305926,26.3654362 34.0724981,26.3167559 C35.0302113,26.1831237 35.9813131,26.1678514 36.9437487,26.170715 C37.5661678,26.170715 38.2074768,25.9607215 38.8213955,26.0065382 C40.4742536,26.1315798 41.3044606,28.2906948 42.1063329,29.71006 Z" id="Path" fill="#965D7B" fill-rule="nonzero"></path>
                    <polygon id="Path" fill="#575988" fill-rule="nonzero" points="25 60.5858602 25.3523848 65 50 64.8443327 49.5298469 60.0254581 41.1968203 59 26.5843515 59.9330306"></polygon>
                    <polygon id="Path" fill="#000000" fill-rule="nonzero" opacity="0.05" points="25 60.5858602 25.3523848 65 50 64.8443327 49.5298469 60.0254581 41.1968203 59 26.5843515 59.9330306"></polygon>
                    <path d="M41.2940994,63 L33,63.4532623 C33,63.4532623 38.6825462,64.2979045 42,63.8875256 L41.2940994,63 Z" id="Path" fill="#F7C4A7" fill-rule="nonzero"></path>
                    <path d="M41.2940994,63 L33,63.4532623 C33,63.4532623 38.6825462,64.2979045 42,63.8875256 L41.2940994,63 Z" id="Path" fill="#000000" fill-rule="nonzero" opacity="0.1"></path>
                    <path d="M34.857261,34 C34.857261,34 36.3917655,38.1395188 34.1234057,39.9866167 C31.855046,41.8337147 33.7235205,47 33.7235205,47 L42.4621106,46.5889328 C42.4621106,46.5889328 43.328675,40.7735941 42.8619958,39.5421954 C42.8619958,39.5421954 40.7940181,40.1578947 40.3273389,38.8579849 C39.8606597,37.558075 39.5266896,34 39.5266896,34 L34.857261,34 Z" id="Path" fill="#F7C4A7" fill-rule="nonzero"></path>
                    <path d="M32.1233645,59.7576141 C32.1233645,59.7576141 24.6722525,59.5944563 22.4814283,59.0706341 C20.2906041,58.5468119 18.40184,61.0611586 19.1774238,62.4986641 C19.9530075,63.9361697 22.1091836,64.9099638 22.1091836,64.9099638 C22.1091836,64.9099638 33.2018968,65.4312099 35.5952789,63.9653664 C35.5952789,63.9653664 36.5059013,61.456172 35.5952789,60.9675575 L24.0317074,60.9675575 L32.5604633,60.8043998 L32.1233645,59.7576141 Z" id="Path" fill="#575988" fill-rule="nonzero"></path>
                    <path d="M45.234967,58.9109038 C45.234967,58.9109038 47.755548,59.5166346 51.2281891,58.0018085 C51.2281891,58.0018085 57.7328854,57.7752832 55.5532872,62.3926088 C53.373689,67.0099343 41.3190483,65.8773075 41.3190483,65.8773075 C41.3190483,65.8773075 40.6011897,64.1728787 41.3190483,63.71883 C42.0369069,63.2647813 48.266125,60.3478929 50.2070352,60.4995751 L44.8230956,61.6731163 L45.234967,58.9109038 Z" id="Path" fill="#575988" fill-rule="nonzero"></path>
                    <path d="M40,35.3517108 C39.8692044,34.6069609 39.7925311,34 39.7925311,34 L35,34 C35.2213672,34.4794009 35.3749856,34.9755057 35.4582356,35.4798547 C36.8390922,36.2182886 38.6942422,36.1659464 40,35.3517108 L40,35.3517108 Z" id="Path" fill="#000000" fill-rule="nonzero" opacity="0.1"></path>
                    <circle id="Oval" fill="#F7C4A7" fill-rule="nonzero" cx="38" cy="33" r="4"></circle>
                    <path d="M34.9420089,38.4296893 C34.9420089,38.4296893 30.2199515,39.3258983 29.6477238,40.5073076 C29.075496,41.688717 29.1471423,45.7400729 29.1471423,45.7400729 C29.1471423,45.7400729 29.3611386,52.3695642 27.7161016,53.194001 L21.5620608,57.494671 C21.5620608,57.494671 17.198235,53.6605208 16.1244831,55.9175698 C15.0507311,58.1746189 21.2764183,59 21.2764183,59 L28.216683,56.9223816 L30.4348905,55.4888249 C30.4348905,55.4888249 31.4718765,54.9873634 31.579346,53.7681792 L32.5098053,46.3860233 L36.2306997,45.3103836 L42.2405052,45.3103836 L43.0455835,43.0080047 C43.0455835,43.0080047 44.530359,44.1998021 44.31542,45.3103836 C44.1004811,46.4209651 44.6736516,53.6208571 44.6736516,53.6208571 C44.6736516,53.6208571 45.1384099,55.2329001 46.1046923,55.6984755 L51.6855627,57.705266 C51.6855627,57.705266 57.5878987,58.2784998 57.9819534,55.6984755 C58.3760081,53.1184512 52.1861441,56.0658362 52.1861441,56.0658362 L47.7469011,52.6217116 C47.7469011,52.6217116 47.3896123,51.1881549 47.2463197,50.1842874 C47.1030271,49.18042 46.8890308,44.8806943 46.8890308,44.8806943 C46.8890308,44.8806943 48.2484253,40.3647075 44.3125919,39.5771012 L39.232303,38 L34.9420089,38.4296893 Z" id="Path" fill="#F7C4A7" fill-rule="nonzero"></path>
                    <path d="M31.1937748,40.1559767 L31.9150993,44.9806784 C31.9150993,44.9806784 31.1733775,47.2241365 31.9150993,49.4319395 C32.6568212,51.6397425 31,59.8666939 31,59.8666939 C31,59.8666939 39.6911258,62.6815724 45,59.4388324 C45,59.4388324 41.0948344,51.1067922 42.747947,48.3294455 C44.4010596,45.5520987 42.7757616,44.4655556 42.7757616,44.4655556 L43.0298013,39.3565513 L41.8337748,39 L41.1300662,44.05646 C41.1300662,44.05646 36.2745695,47.4746607 32.6855629,44.4843215 L31.9113907,39 L31.1937748,40.1559767 Z" id="Path" fill="#000000" fill-rule="nonzero" opacity="0.1"></path>
                    <path d="M36,45.9882124 C35.3664163,45.0692243 34.0679984,44.7376389 33,45.2220829 C33.9580402,45.8759289 35.0148241,46.050516 36,45.9882124 Z" id="Path" fill="#FFFFFF" fill-rule="nonzero" opacity="0.07"></path>
                    <path d="M40,45.9892693 C40.63288,45.069405 41.9318594,44.7373173 43,45.222311 C42.0432596,45.8741228 40.986167,46.0482134 40,45.9892693 Z" id="Path" fill="#FFFFFF" fill-rule="nonzero" opacity="0.07"></path>
                    <path d="M31.1937748,40.4065456 L31.9150993,44.9818066 C31.9150993,44.9818066 31.1733775,47.225336 31.9150993,49.4332091 C32.6568212,51.6410822 31,59.8664182 31,59.8664182 C31,59.8664182 39.6911258,62.681386 45,59.4394814 C45,59.4394814 41.0948344,51.1071766 42.747947,48.3297417 C44.4010596,45.5523068 42.7757616,44.4657292 42.7757616,44.4657292 L43.0298013,39.3556243 L41.8337748,39 L41.1300662,44.0566205 C41.1300662,44.0566205 36.2745695,47.4749298 32.6855629,44.4835573 L31.9113907,39 L31.1937748,40.4065456 Z" id="Path" fill="#000000" fill-rule="nonzero" opacity="0.1"></path>
                    <path d="M31.158543,40.2995768 L31.9150993,44.9818066 C31.9150993,44.9818066 31.1733775,47.225336 31.9150993,49.4332091 C32.6568212,51.6410822 31,59.8664182 31,59.8664182 C31,59.8664182 39.6911258,62.681386 45,59.4394814 C45,59.4394814 41.0948344,51.1062383 42.747947,48.3288034 C44.4010596,45.5513685 42.7757616,44.4657292 42.7757616,44.4657292 L43.0298013,39.3556243 L41.8337748,39 L41.1300662,44.0566205 C41.1300662,44.0566205 36.2745695,47.4749298 32.6855629,44.4835573 L31.9113907,39 L31.158543,40.2995768 Z" id="Path" fill="#FC6681" fill-rule="nonzero"></path>
                    <path d="M36,61.8874972 L37.7257818,61.6066462 C37.7257818,61.6066462 39.7174721,58.5330629 41.1449814,60.8882145 C41.1449814,60.8882145 41.742401,62.4050205 42.472775,62.6837678 C42.9721964,62.865654 43.4828928,62.9993161 44,63.0834809 L41.0452657,64.0817118 C41.0452657,64.0817118 39.7507107,65 38.3896785,64.7601721 C37.5885241,64.6128501 36.7697655,64.6950207 36,65 L36,61.8874972 Z" id="Path" fill="#F7C4A7" fill-rule="nonzero"></path>
                    <path d="M33,49.7377459 C33,49.7377459 37.2728797,50.6771778 38,49" id="Path" fill="#000000" fill-rule="nonzero" opacity="0.1"></path>
                    <path d="M41,48 C41,48 41.4,49.8520699 43,48.5152171" id="Path" fill="#000000" fill-rule="nonzero" opacity="0.1"></path>
                    <path d="M34,39 C34,39 35.683162,40.69 36,39.676" id="Path" fill="#000000" fill-rule="nonzero" opacity="0.1"></path>
                    <path d="M39,39 C39,39 40.683162,40.69 41,39.676" id="Path" fill="#000000" fill-rule="nonzero" opacity="0.1"></path>
                    <path d="M35.6893455,62 C35.6893455,62 36.3883182,63.9240782 35.6893455,63.9919868 C34.9903727,64.0598955 34,63.6750798 34,63.632071 C34,63.5890622 34.4404884,62.365009 34.4404884,62.365009 L35.6893455,62 Z" id="Path" fill="#000000" fill-rule="nonzero" opacity="0.1"></path>
                    <path d="M35.6898591,62 C35.6898591,62 36.3876761,63.9240782 35.6898591,63.9919868 C34.9920422,64.0598955 34,63.6750798 34,63.632071 C34,63.5890622 34.4403699,62.365009 34.4403699,62.365009 L35.6898591,62 Z" id="Path" fill="#575988" fill-rule="nonzero"></path>
                    <path d="M33.2371109,39.3163607 C32.9844562,39.9134618 32.8949579,40.6180248 33.1626609,41.207854 C33.3670023,41.6579017 33.7669729,42.022303 33.8437989,42.511942 C33.9404255,43.1268187 33.4937257,43.7505832 33.6608421,44.3493002 C33.7242038,44.57796 33.8723117,44.7718765 34.0227956,44.9536731 C34.4805837,45.505527 35.0888558,46.0404131 35.7953384,45.9975899 C35.9078054,44.8841864 34.9637165,43.8039102 35.2726046,42.730098 C35.3834875,42.3454971 35.6432704,42.0255349 35.8000905,41.6587097 C36.0606654,41.0502969 36.0234404,40.3554296 35.9291899,39.6985377 C35.7921703,38.7451152 35.4452652,37.5767687 34.5186007,37.1307609 C34.0932855,36.9255327 33.4889736,36.910181 33.3376976,37.4676907 C33.2545354,37.7650292 33.4485805,38.0445921 33.4747172,38.3354668 C33.50719,38.704716 33.3772986,38.9850868 33.2371109,39.3163607 Z" id="Path" fill="#000000" fill-rule="nonzero" opacity="0.1"></path>
                    <path d="M33.2371109,38.3170028 C32.9844562,38.9141186 32.8949579,39.6178912 33.1626609,40.208543 C33.3670023,40.6577939 33.7669729,41.0230122 33.8437989,41.5118554 C33.9404255,42.1267473 33.4937257,42.7505273 33.6608421,43.3492592 C33.7242038,43.5779247 33.8723117,43.7726539 34.0227956,43.9544551 C34.4805837,44.5055146 35.0888558,45.0404141 35.7953384,44.9975898 C35.9078054,43.8841586 34.9637165,42.8038557 35.2726046,41.7300168 C35.3834875,41.3454063 35.6432704,41.0254362 35.8000905,40.6586019 C36.0606654,40.050174 36.0234404,39.3552895 35.9291899,38.6983812 C35.7921703,37.7449351 35.4452652,36.5765596 34.5186007,36.1305407 C34.0932855,35.9253074 33.4889736,35.9107633 33.3376976,36.4674789 C33.2545354,36.7648248 33.4485805,37.0443946 33.4747172,37.3352765 C33.50719,37.7045348 33.3772986,37.9849126 33.2371109,38.3170028 Z" id="Path" fill="#965D7B" fill-rule="nonzero"></path>
                    <path d="M33,31.0412998 C33,31.0412998 37.6424581,30.3767087 37.7698324,31.3731576 C37.8972067,32.3696065 42,34 42,34 L40.9818436,31.3731576 L39.1055866,28.1167486 C39.1055866,28.1167486 35.6698324,27.8540643 35.5122905,28.1167486 C35.3547486,28.3794328 33.5396648,29.2462908 33.5396648,29.2462908 L33,31.0412998 Z" id="Path" fill="#000000" fill-rule="nonzero" opacity="0.1"></path>
                    <path d="M33,31.0412998 C33,31.0412998 37.6424581,30.3767087 37.7698324,31.3731576 C37.8972067,32.3696065 42,34 42,34 L40.9818436,31.3731576 L39.1055866,28.1167486 C39.1055866,28.1167486 35.6698324,27.8540643 35.5122905,28.1167486 C35.3547486,28.3794328 33.5396648,29.2462908 33.5396648,29.2462908 L33,31.0412998 Z" id="Path" fill="#965D7B" fill-rule="nonzero"></path>
                    <path d="M40.5568316,37.8177494 C40.8920904,38.1425635 41.1289773,38.5262267 41.2486271,38.9381844 C41.3630968,39.332803 41.3730507,39.7435285 41.4763224,40.1381471 C41.7077503,40.9787251 42.3958131,41.6854145 43.1124933,42.3216364 C43.3451786,42.5522139 43.6292029,42.7454754 43.9498644,42.8914174 C44.2783429,43.0222858 44.6964063,43.0494662 45,42.8914174 C44.7113371,42.6991415 44.5545633,42.4061975 44.4512917,42.1162737 C44.3057315,41.7107347 44.2410482,41.2890075 44.2596793,40.8669836 C44.2907852,40.1623075 44.5458537,39.4183708 44.1837809,38.7761089 C43.9747492,38.4046439 43.5853031,38.1227735 43.1883917,37.8700967 C42.9123234,37.6892996 42.6147331,37.531145 42.3000069,37.3979638 C41.7127273,37.1613939 41.0408396,37.0577059 40.3925924,37.0053585 C39.5490001,36.9358976 40.2868323,37.5600393 40.5568316,37.8177494 Z" id="Path" fill="#000000" fill-rule="nonzero" opacity="0.1"></path>
                    <path d="M40.5568316,37.8194969 C40.8925004,38.1436649 41.1294504,38.5270306 41.2486271,38.9387652 C41.3630968,39.3333274 41.3730507,39.7439942 41.4763224,40.1385564 C41.7077503,40.9790141 42.3958131,41.6856025 43.1124933,42.3217334 C43.3451786,42.5522779 43.6292029,42.7455118 43.9498644,42.8914329 C44.2783429,43.0222826 44.6964063,43.0494591 45,42.8914329 C44.7113371,42.6991845 44.5545633,42.407289 44.4512917,42.1164 C44.3057315,41.7109191 44.2410482,41.2892521 44.2596793,40.8672886 C44.2907852,40.1627132 44.5458537,39.418883 44.1837809,38.7767129 C43.9747492,38.4063076 43.5853031,38.1244774 43.1883917,37.8708303 C42.9126591,37.6893991 42.6150272,37.5309077 42.3000069,37.3977583 C41.7127273,37.1612223 41.0408396,37.057549 40.3925924,37.0052091 C39.5490001,36.9367647 40.2868323,37.5608171 40.5568316,37.8194969 Z" id="Path" fill="#965D7B" fill-rule="nonzero"></path>
                </g>
            </g>
        </g>
    </g>
</svg>