<?xml version="1.0" encoding="UTF-8"?>
<svg width="21px" height="21px" viewBox="0 0 21 21" version="1.1" xmlns="http://www.w3.org/2000/svg" xmlns:xlink="http://www.w3.org/1999/xlink">
    <!-- Generator: Sketch 64 (93537) - https://sketch.com -->
    <title>Shape</title>
    <desc>Created with Sketch.</desc>
    <g id="Page-1" stroke="none" stroke-width="1" fill="none" fill-rule="evenodd">
        <g id="All-excercise--option-1" transform="translate(-61.000000, -223.000000)" fill="#393C50" fill-rule="nonzero">
            <g id="Search-" transform="translate(34.000000, 210.000000)">
                <path d="M47.8446186,32.9068836 L42.1705273,27.2221965 C45.1798211,23.7035166 44.8718219,18.4360153 41.4729514,15.2920311 C38.074081,12.1480469 32.7985827,12.2507652 29.524674,15.524674 C26.2507652,18.7985827 26.1480469,24.074081 29.2920311,27.4729514 C32.4360153,30.8718219 37.7035166,31.1798211 41.2221965,28.1705273 L46.9068836,33.8446186 C47.0062561,33.9441017 47.1411005,34 47.2817127,34 C47.4223248,34 47.5571693,33.9441017 47.6565418,33.8446186 L47.8446186,33.6565418 C47.9441017,33.5571693 48,33.4223248 48,33.2817127 C48,33.1411005 47.9441017,33.0062561 47.8446186,32.9068836 Z M28,21.5 C28,17.3578644 31.3578644,14 35.5,14 C39.6421356,14 43,17.3578644 43,21.5 C43,25.6421356 39.6421356,29 35.5,29 C31.3603556,28.9939918 28.0060082,25.6396444 28,21.5 Z" id="Shape"></path>
            </g>
        </g>
    </g>
</svg>