<?xml version="1.0" encoding="UTF-8"?>
<svg width="26px" height="26px" viewBox="0 0 26 26" version="1.1" xmlns="http://www.w3.org/2000/svg" xmlns:xlink="http://www.w3.org/1999/xlink">
    <!-- Generator: Sketch 64 (93537) - https://sketch.com -->
    <title>noun_Settings_2637866</title>
    <desc>Created with Sketch.</desc>
    <g id="Page-1" stroke="none" stroke-width="1" fill="none" fill-rule="evenodd">
        <g id="All-excercise--option-1" transform="translate(-295.000000, -753.000000)" fill="#4A4E64" fill-rule="nonzero">
            <g id="Nav" transform="translate(39.000000, 752.000000)">
                <g id="Settings-" transform="translate(240.000000, 1.000000)">
                    <g id="noun_Settings_2637866" transform="translate(16.000000, 0.000000)">
                        <g id="Group">
                            <path d="M24.6855556,10.6888889 L23.2642222,10.6888889 C23.192,10.6888889 23.1284444,10.6397778 23.1111111,10.5704444 C22.8568889,9.51022222 22.438,8.49911111 21.8688889,7.56888889 C21.8313333,7.50822222 21.84,7.42733333 21.892,7.37533333 L22.8973333,6.37 C23.4086667,5.85577778 23.4086667,5.02377778 22.8973333,4.50955556 L21.4904444,3.10266667 C20.9791111,2.59133333 20.1442222,2.59133333 19.63,3.10266667 L18.6246667,4.108 C18.5726667,4.16 18.4946667,4.16866667 18.4311111,4.13111111 C17.5008889,3.55911111 16.4897778,3.14311111 15.4295556,2.88888889 C15.3602222,2.87155556 15.3111111,2.808 15.3111111,2.73577778 L15.3111111,1.31444444 C15.3111111,0.589333333 14.7217778,0 13.9966667,0 L12.0062222,0 C11.2782222,0 10.6888889,0.589333333 10.6888889,1.31444444 L10.6888889,2.73577778 C10.6888889,2.808 10.6397778,2.87155556 10.5704444,2.88888889 C9.51022222,3.14311111 8.49911111,3.562 7.56888889,4.13111111 C7.50822222,4.16866667 7.42733333,4.16 7.37533333,4.108 L6.37,3.10266667 C5.85577778,2.59133333 5.02088889,2.59133333 4.50955556,3.10266667 L3.10266667,4.50955556 C2.59133333,5.02377778 2.59133333,5.85577778 3.10266667,6.37 L4.108,7.37533333 C4.16,7.42733333 4.16866667,7.50533333 4.13111111,7.56888889 C3.55911111,8.49911111 3.14311111,9.51022222 2.88888889,10.5704444 C2.87155556,10.6397778 2.808,10.6888889 2.73577778,10.6888889 L1.31444444,10.6888889 C0.589333333,10.6888889 0,11.2782222 0,12.0033333 L0,13.9937778 C0,14.7217778 0.589333333,15.3111111 1.31444444,15.3111111 L2.73577778,15.3111111 C2.808,15.3111111 2.87155556,15.3602222 2.88888889,15.4295556 C3.14311111,16.4897778 3.562,17.5008889 4.13111111,18.4311111 C4.16866667,18.4917778 4.16,18.5726667 4.108,18.6246667 L3.10266667,19.63 C2.59133333,20.1442222 2.59133333,20.9762222 3.10266667,21.4904444 L4.50955556,22.8973333 C5.02377778,23.4086667 5.85866667,23.4086667 6.37,22.8973333 L7.37533333,21.892 C7.42733333,21.84 7.50533333,21.8313333 7.56888889,21.8688889 C8.49911111,22.4408889 9.51022222,22.8568889 10.5704444,23.1111111 C10.6397778,23.1284444 10.6888889,23.1891111 10.6888889,23.2642222 L10.6888889,24.6855556 C10.6888889,25.4106667 11.2782222,26 12.0033333,26 L13.9937778,26 C14.7188889,26 15.3082222,25.4106667 15.3082222,24.6855556 L15.3082222,23.2642222 C15.3082222,23.192 15.3573333,23.1284444 15.4266667,23.1111111 C16.4868889,22.8568889 17.498,22.438 18.4282222,21.8688889 C18.4888889,21.8313333 18.5697778,21.84 18.6217778,21.892 L19.6271111,22.8973333 C20.1384444,23.4086667 20.9733333,23.4086667 21.4875556,22.8973333 L22.8944444,21.4904444 C23.4057778,20.9762222 23.4057778,20.1442222 22.8944444,19.63 L21.8891111,18.6246667 C21.8371111,18.5726667 21.8284444,18.4946667 21.866,18.4311111 C22.438,17.5008889 22.854,16.4897778 23.1082222,15.4295556 C23.1255556,15.3602222 23.1862222,15.3111111 23.2613333,15.3111111 L24.6826667,15.3111111 C25.4077778,15.3111111 25.9971217,14.7217778 25.9971217,13.9966667 L25.9971217,12.0062222 C26,11.2782222 25.4106667,10.6888889 24.6855556,10.6888889 Z M24.8444444,13.9966667 C24.8444444,14.0862222 24.7722222,14.1555556 24.6855556,14.1555556 L23.2642222,14.1555556 C22.6546667,14.1555556 22.1288889,14.5686667 21.9873333,15.1608889 C21.762,16.1026667 21.3893333,17.0011111 20.8837778,17.8273333 C20.566,18.3473333 20.644,19.0088889 21.0744444,19.4422222 L22.0797778,20.4475556 C22.1433333,20.5111111 22.1433333,20.6122222 22.0797778,20.6757778 L20.6728889,22.0826667 C20.6093333,22.1462222 20.5082222,22.1462222 20.4446667,22.0826667 L19.4393333,21.0773333 C19.0088889,20.6468889 18.3444444,20.566 17.8244444,20.8866667 C16.9982222,21.3951111 16.0997778,21.7648889 15.158,21.9902222 C14.5686667,22.1288889 14.1555556,22.6546667 14.1555556,23.2642222 L14.1555556,24.6855556 C14.1555556,24.7751111 14.0833333,24.8444444 13.9966667,24.8444444 L12.0062222,24.8444444 C11.9166667,24.8444444 11.8444444,24.7722222 11.8444444,24.6855556 L11.8444444,23.2642222 C11.8444444,22.6546667 11.4313333,22.1288889 10.8391111,21.9873333 C9.89733333,21.762 8.99888889,21.3893333 8.17266667,20.8837778 C7.95888889,20.7537778 7.722,20.6902222 7.48511111,20.6902222 C7.14711111,20.6902222 6.812,20.8231111 6.55777778,21.0773333 L5.55244444,22.0826667 C5.48888889,22.1462222 5.38777778,22.1462222 5.32422222,22.0826667 L3.91733333,20.6757778 C3.85377778,20.6122222 3.85377778,20.5111111 3.91733333,20.4475556 L4.92266667,19.4422222 C5.35311111,19.0117778 5.434,18.3473333 5.11333333,17.8273333 C4.60488889,17.0011111 4.23511111,16.1026667 4.00977778,15.1608889 C3.87111111,14.5686667 3.34533333,14.1555556 2.73577778,14.1555556 L1.31444444,14.1555556 C1.22777778,14.1555556 1.15555556,14.0833333 1.15555556,13.9966667 L1.15555556,12.0062222 C1.15555556,11.9166667 1.22777778,11.8444444 1.31444444,11.8444444 L2.73577778,11.8444444 C3.34533333,11.8444444 3.87111111,11.4313333 4.01266667,10.8391111 C4.238,9.89733333 4.61066667,8.99888889 5.11622222,8.17266667 C5.434,7.65266667 5.356,6.99111111 4.92555556,6.55777778 L3.92022222,5.55244444 C3.85666667,5.48888889 3.85666667,5.38777778 3.92022222,5.32422222 L5.32711111,3.91733333 C5.39066667,3.85377778 5.49177778,3.85377778 5.55533333,3.91733333 L6.56066667,4.92266667 C6.99111111,5.35311111 7.65555556,5.43111111 8.17555556,5.11333333 C9.00177778,4.60488889 9.90022222,4.23511111 10.842,4.00977778 C11.4313333,3.87111111 11.8444444,3.34533333 11.8444444,2.73577778 L11.8444444,1.31444444 C11.8444444,1.22777778 11.9166667,1.15555556 12.0033333,1.15555556 L13.9937778,1.15555556 C14.0833333,1.15555556 14.1555556,1.22777778 14.1555556,1.31444444 L14.1555556,2.73577778 C14.1555556,3.34533333 14.5686667,3.87111111 15.1608889,4.01266667 C16.1026667,4.238 17.0011111,4.61066667 17.8273333,5.11622222 C18.3473333,5.434 19.0088889,5.356 19.4422222,4.92555556 L20.4475556,3.92022222 C20.5111111,3.85666667 20.6122222,3.85666667 20.6757778,3.92022222 L22.0826667,5.32711111 C22.1462222,5.39066667 22.1462222,5.49177778 22.0826667,5.55533333 L21.0773333,6.56066667 C20.6468889,6.99111111 20.566,7.65555556 20.8866667,8.17555556 C21.3951111,9.00177778 21.7648889,9.90022222 21.9902222,10.842 C22.1288889,11.4313333 22.6546667,11.8444444 23.2642222,11.8444444 L24.6855556,11.8444444 C24.7751111,11.8444444 24.8444444,11.9166667 24.8444444,12.0033333 L24.8444444,13.9966667 Z" id="Shape"></path>
                            <path d="M13,6.93333333 C9.65466667,6.93333333 6.93333333,9.65466667 6.93333333,13 C6.93333333,16.3453333 9.65466667,19.0666667 13,19.0666667 C16.3453333,19.0666667 19.0666667,16.3453333 19.0666667,13 C19.0666667,9.65466667 16.3453333,6.93333333 13,6.93333333 Z M13,17.9111111 C10.2931111,17.9111111 8.08888889,15.7068889 8.08888889,13 C8.08888889,10.2931111 10.2931111,8.08888889 13,8.08888889 C15.7068889,8.08888889 17.9111111,10.2931111 17.9111111,13 C17.9111111,15.7068889 15.7068889,17.9111111 13,17.9111111 Z" id="Shape"></path>
                        </g>
                    </g>
                </g>
            </g>
        </g>
    </g>
</svg>