<?xml version="1.0" encoding="UTF-8"?>
<svg width="85px" height="85px" viewBox="0 0 85 85" version="1.1" xmlns="http://www.w3.org/2000/svg" xmlns:xlink="http://www.w3.org/1999/xlink">
    <!-- Generator: Sketch 64 (93537) - https://sketch.com -->
    <title>undraw_meditating_0nae</title>
    <desc>Created with Sketch.</desc>
    <g id="Page-1" stroke="none" stroke-width="1" fill="none" fill-rule="evenodd">
        <g id="All-excercise--option-1" transform="translate(-234.000000, -573.000000)" fill-rule="nonzero">
            <g id="Yoga" transform="translate(197.000000, 520.000000)">
                <g id="undraw_meditating_0nae" transform="translate(37.000000, 53.000000)">
                    <g id="Group" opacity="0.2">
                        <path d="M5.48718431,37.1607487 C5.34795497,37.4138806 5.18732691,37.6552434 5.00697034,37.8823272 C3.41384341,36.7944088 1.79188847,35.7235122 0.141105528,34.6696376 L0.248072621,34.4631551 C0.629696431,33.7440409 1.20080404,33.1370857 1.90264873,32.7047237 C2.81300697,32.1585443 3.83943589,32.0386512 4.68379316,32.4826995 C5.52815043,32.9267479 5.99926082,33.8148445 6.04933052,34.8516974 C6.07347758,35.6562268 5.87956718,36.452726 5.48718431,37.1607487 L5.48718431,37.1607487 Z" id="Path" fill="#3F3D56"></path>
                        <ellipse id="Oval" fill="#3F3D56" transform="translate(5.090752, 31.738932) rotate(-62.090000) translate(-5.090752, -31.738932) " cx="5.0907524" cy="31.7389323" rx="3.80642317" ry="2.94760638"></ellipse>
                        <ellipse id="Oval" fill="#3F3D56" transform="translate(7.310934, 27.650725) rotate(-62.090000) translate(-7.310934, -27.650725) " cx="7.31093363" cy="27.6507246" rx="3.80642317" ry="2.94760638"></ellipse>
                        <ellipse id="Oval" fill="#3F3D56" transform="translate(9.531115, 23.564737) rotate(-62.090000) translate(-9.531115, -23.564737) " cx="9.53111487" cy="23.5647371" rx="3.80642317" ry="2.94760638"></ellipse>
                        <ellipse id="Oval" fill="#3F3D56" transform="translate(11.749020, 19.476529) rotate(-62.090000) translate(-11.749020, -19.476529) " cx="11.7490202" cy="19.4765294" rx="3.80642317" ry="2.94760638"></ellipse>
                        <path d="M35.4220392,5.56893048 C33.9357474,8.31559191 31.5429248,10.4926639 28.6307667,11.7478629 C29.9515165,18.8542985 25.4518957,25.7576205 18.2948956,27.6051649 C11.1378956,29.4527092 3.72721539,25.6239728 1.27216458,18.8103514 C-1.18288624,11.99673 2.1422282,4.48659794 8.9101313,1.55917409 C8.35936456,-1.39152704 36.168533,4.19460091 35.4220392,5.56893048 Z" id="Path" fill="#000000" opacity="0.1"></path>
                    </g>
                    <path d="M51,43.800112 L45.7450387,48.6990136 L45.3549424,49.7254283 L45.0895861,50.4112288 L22.8858439,51.4719336 L21.6928747,49.5654082 L21.3095823,48.9550458 L20.2594973,52 L15,48.6990136 C15,48.6990136 15.6554527,44.1978763 16.1816292,41.9461647 C16.6828577,39.7950371 18.2659233,38.4897302 23.8021168,36.875813 L24.028917,36.804947 L24.5823096,36.6494989 C24.7002457,36.6174948 24.8091098,36.5832048 24.9293139,36.5443428 C27.6055566,35.6688041 28.7985258,33.6982707 29.3088263,31.8328934 C29.6652366,30.4673557 29.7553545,29.045081 29.5741826,27.6449383 C29.5741826,27.6449383 37.6550747,25.0640424 37.3919864,30.2281202 C37.360341,30.7553416 37.400017,31.2844515 37.5099225,31.8008893 C37.990739,33.9383009 39.7643168,35.0012917 41.8985069,35.6870922 C42.2840673,35.8120602 42.6786997,35.9271223 43.0824041,36.0322784 L43.1685882,36.0551384 C44.3728974,36.3683206 45.6248346,36.6152088 46.7973918,36.907817 C51,37.9730938 51,43.800112 51,43.800112 Z" id="Path" fill="#DB8B8B"></path>
                    <path d="M31.557553,8.17226842 C32.0213108,7.570816 32.7462136,7.21431874 33.4643626,6.92999578 C36.8592491,5.58274235 41.1388772,5.51931646 43.8201171,7.94699715 C44.6283162,8.67748846 45.2406565,9.58513484 45.9745643,10.3878004 C49.4392396,14.1867927 55.3847934,15.2103553 60.4073343,13.8106115 C61.5689798,13.4869207 62.7486353,13.0451266 63.9463009,13.1960365 C64.6266612,13.3012003 65.2777895,13.54009 65.8598642,13.8980955 C68.6919379,15.5340461 70.2970799,18.5500566 72.4200095,20.9996083 C73.9531115,22.768972 75.832906,24.2955676 78.021122,25.2141495 C80.2093379,26.1327313 82.721734,26.4039317 85,25.7346792 C83.4960125,26.7550486 81.8603107,27.5786405 80.1350466,28.1842309 C78.3025283,28.8272382 76.30792,29.218729 74.4011104,28.8687931 C72.0170356,28.4313731 70.020176,26.9244614 68.0368239,25.5706467 C66.0260572,24.1969429 63.9323965,22.9414864 61.7670899,21.8110223 C59.8107528,20.7874596 57.6473006,19.8426325 55.4455772,20.1400781 C53.5747876,20.3915946 51.9493844,21.5113896 50.1303736,22.0100484 C48.3068832,22.5094976 46.3609079,22.3725256 44.6305675,21.6229317 C39.9772317,19.567058 37.8475483,13.5044175 32.8655299,12.3868096 C31.5913218,12.1024866 31.3571917,12.5399066 31.0960466,11.0242465 C30.9272028,10.0488 30.9249515,8.99243082 31.557553,8.17226842 Z" id="Path" fill="#35323E"></path>
                    <path d="M82.1394471,23.1941179 C80.307433,23.8385983 78.3133733,24.2309861 76.4070883,23.8802484 C74.0236693,23.4418264 72.027359,21.9336545 70.0445525,20.5745461 C68.034339,19.1976951 65.9412542,17.9393624 63.7765433,16.8063085 C61.8207444,15.7804008 59.6578873,14.8334092 57.4567696,15.1315362 C55.5864946,15.3836289 53.9615386,16.5059893 52.1430282,17.0079826 C50.3197784,17.5078878 48.3743313,17.3698259 46.644735,16.617787 C41.9926793,14.5572033 39.8635817,8.48067348 34.8829338,7.36269722 C33.6090763,7.07553077 33.3750106,7.51395283 33.1116867,5.99482039 C32.9749171,5.33521428 32.9872049,4.65451543 33.1476968,4 C32.5273437,4.23418839 31.9788077,4.61904597 31.5542496,5.11797626 C30.9218221,5.93782552 30.9240727,6.9966148 31.1041233,7.96771967 C31.3674472,9.48685212 31.5992622,9.04843005 32.8731198,9.3334044 C37.8537677,10.4535728 39.9828652,16.5301026 44.6349209,18.5906863 C46.3629078,19.3470935 48.3083983,19.4898124 50.1332141,18.9940346 C51.9517245,18.4942334 53.5766805,17.3718729 55.4469555,17.1197802 C57.6480732,16.8216532 59.8109303,17.7774133 61.7667292,18.7945525 C63.9318763,19.9280922 66.0256807,21.1864057 68.0369891,22.5627901 C70.0197956,23.9197064 72.0161059,25.4344547 74.3972742,25.8684925 C76.3125617,26.2192301 78.2976189,25.8268424 80.1296331,25.182362 C81.8570046,24.5745374 83.4945684,23.7475635 85,22.7228142 C84.1816139,22.9599287 83.3330879,23.083898 82.4792925,23.0910887 L82.1394471,23.1941179 Z" id="Path" fill="#000000" opacity="0.1"></path>
                    <circle id="Oval" fill="#35323E" cx="32.5" cy="21.5" r="9.5"></circle>
                    <path d="M32.498914,28.5620468 C27.6456458,28.5607985 23.5735588,24.4376045 23.0553887,19 C23.0197436,19.3763902 23.0016194,19.7546259 23.0010906,20.1331527 C22.9492558,23.9958139 24.7483155,27.5903196 27.7085963,29.5387084 C30.6688772,31.4870972 34.3311228,31.4870972 37.2914037,29.5387084 C40.2516845,27.5903196 42.0507442,23.9958139 41.9989094,20.1331527 C41.9983806,19.7546259 41.9802564,19.3763902 41.9446113,19 C41.4263525,24.4385346 37.3530126,28.5620488 32.498914,28.5620468 Z" id="Path" fill="#000000" opacity="0.1"></path>
                    <path d="M37,32.9519237 C34.5863355,34.3397036 31.4262262,34.3501101 29,32.9782683 C29.3476709,31.8542055 29.435579,30.6834389 29.2588496,29.5308906 C29.2588496,29.5308906 37.1415929,27.4063876 36.8849558,31.6572753 C36.8540863,32.0912654 36.8927894,32.5268102 37,32.9519237 L37,32.9519237 Z" id="Path" fill="#000000" opacity="0.1"></path>
                    <circle id="Oval" fill="#DB8B8B" cx="32" cy="27" r="7"></circle>
                    <path d="M31,46.0294828 C31.3652282,46.4383274 31.6745372,46.8986871 31.9190121,47.3972934 C32.3072947,48.1996133 32.520965,49.1735138 32.1740379,50 C31.9131601,48.9589975 32.0959953,47.8501111 32.6748995,46.9623006 C33.2592267,46.091383 34.0650567,45.4112916 35,45" id="Path" fill="#000000" opacity="0.05"></path>
                    <path d="M63.8953039,80.8575549 C62.4703424,83.2527349 59.5460146,85 54.4504241,85 L13.3114227,85 C13.3114227,85 13.0431151,84.9040992 12.5921779,84.7216539 C11.061246,84.1111637 7.43120153,82.5252926 5.10211086,80.4365272 C2.96015912,78.5161729 1.91623949,76.1677738 4.61960804,73.7538815 C6.13282263,72.4231753 8.0633895,71.7134179 10.0466373,71.7586779 L23.8904096,71.9925822 L45.438444,71.0335745 C45.438444,71.0335745 64.2447803,70.3552521 64.8986392,75.0964921 C65.1692015,77.0870177 64.9189314,79.1383584 63.8953039,80.8575549 Z" id="Path" fill="#35323E"></path>
                    <path d="M46.9390384,74.5383076 C46.7080572,75.0445465 46.084408,75.1653007 45.5531513,75.3208879 C43.3680693,75.9641363 42.0191392,78.1075237 40.2775411,79.5728298 C39.3993043,80.3138939 38.4017961,80.898959 37.3279115,81.3028662 C34.8887502,82.2317449 32.1701017,82.1458236 29.6362381,81.5513413 C27.1023746,80.9568589 24.2197294,80.4552645 22.3141347,78.6718175 C20.7900009,77.2479756 19.4845841,75.6045205 18.4405803,73.7952047 C18.2299917,73.4826264 18.0983817,73.1231425 18.0571515,72.7478941 C18.0548466,72.707676 18.0548466,72.6673579 18.0571515,72.6271398 C18.0548815,72.6039739 18.0548815,72.5806398 18.0571515,72.5574739 C18.0548816,72.535084 18.0548816,72.5125201 18.0571515,72.4901302 C18.0571515,72.4599417 18.0571515,72.4297531 18.0733202,72.4018868 C18.0785698,72.3680768 18.0862901,72.3347016 18.0964183,72.3020323 C18.0964183,72.2671994 18.112587,72.2346886 18.1218262,72.1998557 C18.1310655,72.1650227 18.1426145,72.1348342 18.1518538,72.1023234 C18.19805,71.9490584 18.2534855,71.8004378 18.2996817,71.6378841 C18.3158504,71.5867958 18.3297093,71.5357074 18.3412584,71.4869413 L18.3412584,71.4869413 C18.3854599,71.3292125 18.4034107,71.1652201 18.394384,71.0016022 C18.3463123,70.7076073 18.2649397,70.4201075 18.1518538,70.1447117 C18.1518538,70.1122009 18.1310655,70.077368 18.1218262,70.0448572 C18.112587,70.0123465 18.1010379,69.9682248 18.0917987,69.9310696 C18.07563,69.8567593 18.0594613,69.782449 18.0456024,69.69885 C18.0317436,69.6152509 18.0248141,69.5479072 18.0178847,69.4666303 C18.0067937,69.3539645 18.0013972,69.2408054 18.001716,69.1275896 C18.001716,69.0648903 18.001716,69.002191 18.001716,68.9418139 C17.999428,68.9350372 17.999428,68.9276908 18.001716,68.9209141 C18.001716,68.8582148 18.001716,68.7978377 18.0132651,68.7374606 C18.027124,68.6074176 18.0456024,68.4750524 18.0710104,68.3450093 C18.0710104,68.2730213 18.0964183,68.2033554 18.112587,68.1290451 C18.1218262,68.0949862 18.1310655,68.057831 18.1403047,68.0175796 C18.1392657,68.0090969 18.1392657,68.0005182 18.1403047,67.9920355 L18.1403047,67.9920355 C18.3712859,67.0631568 18.8193894,66.1598224 19.1889593,65.2797099 C20.0233899,63.2926285 20.4801422,61.1659672 20.5355796,59.0097791 C20.5502315,58.5857996 20.5347936,58.1613093 20.4893833,57.7395376 L20.4893833,57.7395376 C20.4893833,57.6930937 20.4778343,57.6489719 20.4732147,57.602528 C20.468595,57.5560841 20.4524264,57.4539074 20.4362577,57.3703083 C20.420089,57.2867093 20.4062301,57.2077546 20.3877516,57.1380887 C20.3692731,57.0684228 20.3623437,57.035912 20.346175,56.9848237 C20.3300063,56.9337354 20.309218,56.8501363 20.2884297,56.7827926 C20.0574485,56.0443341 19.5954862,55.3894747 19.3991522,54.6324386 C19.376054,54.5395507 19.3552657,54.4466629 19.3367872,54.353775 C19.3206186,54.2724981 19.3067597,54.1935434 19.2975204,54.1215553 C19.2975204,54.093689 19.2975204,54.0658226 19.2975204,54.0356341 C19.2836616,53.9148798 19.2767321,53.8034144 19.2744223,53.6710492 C19.2744223,53.6176387 19.2744223,53.5665504 19.2744223,53.5108176 C19.2744223,53.4550849 19.2744223,53.3900634 19.2744223,53.3296863 C19.2744223,53.2693092 19.2744223,53.1648103 19.2859714,53.0812113 C19.2975204,52.9976122 19.2859714,52.9697458 19.2859714,52.9140131 C19.2859714,52.8118365 19.3044499,52.711982 19.3183088,52.6144498 C19.3321676,52.5169175 19.3414069,52.4147409 19.3552657,52.3148864 C19.3806737,52.1221441 19.4107012,51.9270796 19.4407288,51.7343373 C19.4707563,51.5415949 19.5054035,51.3186641 19.5400507,51.1119886 C19.7017375,50.1622102 19.91655,49.214754 20.4016105,48.3903742 C21.1130325,47.1851542 22.3857388,46.2539533 22.605171,44.8699242 C22.6642079,44.3156231 22.6211423,43.75513 22.4781313,43.2165202 C22.4504136,43.095766 22.4250056,42.9843006 22.3995977,42.8565798 C22.0615774,41.3259641 21.8254528,39.7743912 21.6927953,38.2121866 L21.9237765,38.1401985 L22.4873706,37.9822892 C22.6074808,37.9497784 22.7183517,37.9149454 22.8407718,37.8754681 C22.9215398,39.4375091 23.1262235,40.9905741 23.4528719,42.5198613 C23.7069512,43.7134703 24.0418739,44.9117237 24.6770722,45.9567122 C25.3122704,47.0017006 26.2754619,47.8841353 27.4488463,48.1976319 C28.2272529,48.4066296 29.0518557,48.3555412 29.8556702,48.2858753 C31.4725385,48.1442214 33.0778577,47.9212905 34.6693181,47.6217271 C35.824224,47.3895075 36.9952986,47.136388 38.0300942,46.5674499 C38.3036387,46.4319362 38.5477846,46.2433068 38.7484457,46.0124449 C38.9713694,45.6946033 39.1248696,45.3329331 39.198859,44.9512011 C39.8680906,42.3559441 40.1789805,39.6804577 40.1227837,37 C40.5154518,37.1269467 40.917359,37.2438306 41.3285055,37.3506517 L41.4162784,37.3738736 C41.4162784,37.8127688 41.3954901,38.2493418 41.3747018,38.6859147 C41.3631527,38.9506451 41.346984,39.2153755 41.3308153,39.4824281 C41.3308153,39.6310487 41.310027,39.7819915 41.2961681,39.9306121 C41.2961681,40.0374331 41.2753798,40.1465764 41.2661406,40.2533974 C41.2661406,40.2859082 41.2661406,40.3184189 41.2545915,40.3509297 C41.2407327,40.4809727 41.2268738,40.6110157 41.2107051,40.7387365 C41.1899168,40.9129012 41.1645089,41.087066 41.1391009,41.2612307 L41.1044538,41.4934504 C41.0559477,41.8278467 41.0051319,42.1645652 40.9635552,42.5012837 L40.9635552,42.5012837 C40.8959743,43.0014173 40.8673995,43.5060984 40.8780922,44.0107115 C40.9150492,45.1114326 41.5294591,46.1982206 42.1854457,47.0806553 C42.9730915,48.1418992 43.1786648,49.3238972 43.495109,50.6080719 C43.5459249,50.8193918 43.5921211,51.0330339 43.6313879,51.246676 C43.6960626,51.5857167 43.7445687,51.9270796 43.776906,52.2684425 C43.776906,52.333464 43.776906,52.3984855 43.7930747,52.463507 C43.8092434,52.5285285 43.7930747,52.5610392 43.7930747,52.6074832 C43.7930747,52.6539271 43.7930747,52.7143042 43.7930747,52.7677147 C43.7930747,52.8211253 43.7930747,52.8791802 43.7930747,52.9372351 C43.7930747,52.99529 43.7930747,53.0649559 43.7930747,53.1276552 C43.7930747,53.3064643 43.7930747,53.4875957 43.7930747,53.6664048 C43.7930747,53.7291041 43.7930747,53.7964478 43.7930747,53.8614693 L43.7930747,53.8963023 C43.7930747,53.9497128 43.7930747,54.0031233 43.7930747,54.058856 C43.7930747,54.1145887 43.7930747,54.1958656 43.776906,54.2678537 C43.7607374,54.3398418 43.776906,54.3514528 43.776906,54.3909301 L43.7630472,54.5256175 C43.7630472,54.5929612 43.7468785,54.6626271 43.7376392,54.7299708 C43.7284,54.7973145 43.7168509,54.8948468 43.7053019,54.9761237 C43.6937528,55.0574006 43.6798939,55.1409996 43.6660351,55.2222765 C43.6406271,55.3755415 43.6105996,55.5311287 43.5759524,55.6867158 C43.5343758,55.8794581 43.4881796,56.0698783 43.4350539,56.2602984 C43.421195,56.3183533 43.4050263,56.374086 43.3888577,56.4298187 C43.3288025,56.6388164 43.261818,56.8454919 43.187904,57.0521674 C42.9268953,57.7790149 42.6450982,58.5058625 42.3794699,59.2350322 C42.3355835,59.3557864 42.291697,59.4672518 42.2501204,59.5996171 C42.2085438,59.7319823 42.1646574,59.8318367 42.1253906,59.9595575 L42.1253906,59.9595575 C42.083814,60.0826339 42.0445472,60.2057104 42.0029706,60.3264646 C41.961394,60.4472188 41.9267468,60.5586842 41.8897898,60.6933716 C41.813566,60.9441689 41.7442716,61.1949661 41.6795969,61.4480855 C41.6611184,61.5223958 41.6403301,61.5967061 41.6241614,61.6803052 C41.6241614,61.7128159 41.6079927,61.7499711 41.6010633,61.7824818 C41.5941339,61.8149926 41.5848946,61.8498255 41.5779652,61.8846585 C41.543318,62.0425678 41.5109806,62.2004772 41.4809531,62.3607088 L41.4463059,62.5604177 C41.4255176,62.6927829 41.4070391,62.8228259 41.3885606,62.9528689 L41.3885606,62.9528689 C41.3700821,63.0922007 41.3562233,63.2361769 41.3423644,63.3778309 C41.1575794,65.5723066 41.8851702,68.022224 43.7584275,69.1647447 C44.3081628,69.5014632 45.0103455,69.8126376 45.1142871,70.4512416 C45.1720324,70.8204709 45.0011063,71.1897002 45.0380633,71.5612516 C45.0981184,72.1789559 45.6825008,72.5783737 46.1675613,72.9545695 L46.1675613,72.9545695 C46.7080572,73.3539874 47.1700196,73.9716916 46.9390384,74.5383076 Z" id="Path" fill="#B346C4"></path>
                    <g id="Group" opacity="0.1" transform="translate(18.000000, 37.000000)" fill="#000000">
                        <path d="M23.3611111,23.9992228 C23.3124973,24.5773256 23.3271632,25.1591023 23.4048413,25.7339378 C23.662619,23.6891192 24.5096032,21.7702073 25.2000794,19.811658 C25.7417862,18.2746034 25.9406508,16.635067 25.782381,15.0108808 C25.6970715,15.9117313 25.501469,16.798332 25.2000794,17.6502591 C24.4497619,19.7323834 23.5337302,21.7935233 23.3611111,23.9992228 Z" id="Path"></path>
                        <path d="M23.4186508,0.0512953368 C23.4186508,0.491968912 23.3979365,0.930310881 23.3772222,1.36865285 C23.3657143,1.63445596 23.3519048,1.90025907 23.3334921,2.16839378 C23.3334921,2.31761658 23.3127778,2.46917098 23.2989683,2.61839378 C23.2989683,2.72564767 23.278254,2.83523316 23.2690476,2.94248705 C23.2690476,2.97512953 23.2690476,3.00777202 23.2575397,3.04041451 C23.2437302,3.17098446 23.2299206,3.3015544 23.2138095,3.42979275 C23.1930952,3.60466321 23.1677778,3.77953368 23.1424603,3.95440415 L23.1079365,4.18756477 C23.0596032,4.52331606 23.0089683,4.86139896 22.9675397,5.19948187 C22.9187211,4.98747139 22.8902028,4.77118492 22.882381,4.55362694 C22.8455556,3.4507772 23.0780159,2.35958549 23.2138095,1.26139896 C23.2644444,0.851036269 23.3035714,0.436010363 23.3311905,0.020984456 L23.4186508,0.0512953368 Z" id="Path"></path>
                        <path d="M2.3568254,19.5341969 C2.45562626,19.8490658 2.52271419,20.1732568 2.55706349,20.5018135 C2.58007937,20.2080311 2.59619048,19.9119171 2.60309524,19.6181347 C2.64766257,18.8609472 2.56437767,18.1016068 2.3568254,17.3727979 C2.12666667,16.6313472 1.66634921,15.9738342 1.47071429,15.2160622 C1.45690476,15.1554404 1.44079365,15.0971503 1.42928571,15.0388601 C1.28918136,15.8110601 1.30326829,16.6038744 1.47071429,17.3704663 C1.67325397,18.1282383 2.11746032,18.7927461 2.3568254,19.5341969 Z" id="Path"></path>
                        <path d="M28.1599206,35.7854922 L28.1599206,35.7854922 C27.945873,35.8647668 27.7157143,35.923057 27.5039683,35.9860104 C25.3266667,36.6318653 23.9825397,38.7839378 22.2471429,40.2551813 C21.3721247,40.9999634 20.3781784,41.5881818 19.3080159,41.9945596 C16.8775397,42.9132124 14.1685714,42.838601 11.6437302,42.2417098 C9.11888889,41.6448187 6.24650794,41.1411917 4.34769841,39.3528497 C2.83035861,37.921954 1.52976169,36.2720575 0.487936508,34.4564767 L0.407380952,34.3119171 C0.303809524,34.7292746 0.0943650794,35.1373057 0.108174603,35.5663212 C0.147557449,35.9431235 0.277989858,36.3042887 0.487936508,36.6178756 C1.52900873,38.4339785 2.82968956,40.0839814 4.34769841,41.5142487 C6.24650794,43.3049223 9.11888889,43.8085492 11.6437302,44.4054404 C14.1685714,45.0023316 16.8775397,45.076943 19.3080159,44.1559585 C20.3785043,43.7513279 21.3726075,43.1638053 22.2471429,42.4189119 C23.9825397,40.938342 25.3266667,38.7955959 27.5039683,38.1497409 C28.0287302,37.9935233 28.6547619,37.8722798 28.8849206,37.3639896 C29.1150794,36.7880829 28.6547619,36.1702073 28.1599206,35.7854922 Z" id="Path"></path>
                        <path d="M0.455714286,31.653886 C0.412620263,31.3627111 0.335353539,31.077792 0.225555556,30.8051813 C0.0355469508,31.4733516 0.0244258982,32.1807018 0.193333333,32.8546632 C0.296904762,32.4606218 0.483333333,32.0642487 0.455714286,31.653886 Z" id="Path"></path>
                        <path d="M4.66761905,5.41398964 C4.64013043,5.58454958 4.59776882,5.75230478 4.54103175,5.91528497 C4.5134127,5.79404145 4.48809524,5.68212435 4.46277778,5.55388601 C4.12596103,4.01706825 3.8906772,2.45920832 3.75849206,0.890673575 L3.98865079,0.818393782 C4.11293651,1.68419689 4.26637566,2.53911917 4.44896825,3.38316062 C4.60777778,4.04766839 4.77349206,4.73082902 4.66761905,5.41398964 Z" id="Path"></path>
                    </g>
                    <path d="M15.2609554,48 L13.8251053,49.0418159 C13.8251053,49.0418159 10.7895543,55.7238078 11.0116152,59.4705413 C11.0461101,60.0664685 11.0633576,60.6645089 11.0525779,61.2625493 C11.0288627,62.4755358 11.3845913,64.4323746 14.0126713,63.9146365 C17.7575235,63.179237 27,59.8741658 27,59.8741658 L26.37478,56.9367943 C26.37478,56.9367943 18.5077875,58.8936331 17.1452391,58.0483464 C17.1452391,58.0483464 18.9562212,53.0907395 18.7061332,52.4800198 C18.4560452,51.8693001 15.2609554,48 15.2609554,48 Z" id="Path" fill="#DB8B8B"></path>
                    <path d="M47.8472781,43 L48.660265,44.9977811 C48.660265,44.9977811 51.0158946,50.6161363 51.4853946,52.7367583 C51.9548945,54.8573803 52.7821087,60.3528947 52.7821087,60.3528947 C52.7821087,60.3528947 54.6641735,64.2320813 47.3655833,62.5985127 C40.0669932,60.9649441 37,58.9800937 37,58.9800937 L38.4227271,56.2323365 C38.4227271,56.2323365 45.3676679,57.6051375 46.3107328,56.8573165 C46.3107328,56.8573165 43.4856032,49.9911563 43.719337,49.4911722 C43.9530707,48.9911882 47.8472781,43 47.8472781,43 Z" id="Path" fill="#DB8B8B"></path>
                    <path d="M26,57.6672372 L27.151058,56.4371062 C27.151058,56.4371062 29.3378693,44.395517 31.2980474,46.1805055 C33.2582256,47.9654941 30.4909153,58.2220948 30.4909153,58.2220948 L27.7275809,60 L26,57.6672372 Z" id="Path" fill="#DB8B8B"></path>
                    <path d="M37,56.9530646 L36.4001209,56.0021999 C36.4001209,56.0021999 34.2962222,44.200704 32.4948561,46.2359293 C30.69349,48.2711545 34.3895751,58.0491353 34.3895751,58.0491353 L35.1917189,59 L36.792549,58.4566487 L37,56.9530646 Z" id="Path" fill="#DB8B8B"></path>
                    <path d="M45.9043278,79 C45.9043278,79 35.4114974,79.8710668 34.5119741,80.3795088 C33.6124509,80.8879509 34.1719399,84 34.1719399,84 L48,83.3342287 L45.9043278,79 Z" id="Path" fill="#DB8B8B"></path>
                    <path d="M45.9043278,79 C45.9043278,79 35.4114974,79.8710668 34.5119741,80.3795088 C33.6124509,80.8879509 34.1719399,84 34.1719399,84 L48,83.3342287 L45.9043278,79 Z" id="Path" fill="#000000" opacity="0.1"></path>
                    <path d="M61,81.2391424 C59.5922534,83.6566679 59.1311719,85 54.094914,85 L43,85 L43,77.8890753 L44.4188838,77.0674944 C50.4842222,74.1966828 57.1932929,75.1528331 57.1932929,75.1528331 L61,81.2391424 Z" id="Path" fill="#000000" opacity="0.1"></path>
                    <path d="M64,80.8198954 C62.6217424,83.2368503 59.7932614,85 54.8646822,85 L44,85 L44,77.8883934 L45.3869807,77.0670064 C51.3252644,74.1968724 57.8937957,75.152797 57.8937957,75.152797 L64,80.8198954 Z" id="Path" fill="#35323E"></path>
                    <path d="M40.0252888,79.9008635 C40.4688787,79.8049873 40.945738,79.6925171 41.4070715,79.7533616 C41.9693345,79.8445061 42.4555248,80.1355071 42.7378414,80.5498715 C42.8313296,80.7154189 42.9623659,80.8644151 43.1237647,80.9886895 C43.3135622,81.0850195 43.5312928,81.1366423 43.7536625,81.1380351 C45.2729581,81.2578803 46.8210871,81.2560365 48.2982417,81.5786968 C49.7753963,81.9013571 51.2237176,82.6148972 51.866923,83.7672552 C51.9492258,83.8977859 51.9947328,84.0421696 52,84.1894792 C51.9471503,84.4996302 51.690413,84.7592969 51.334615,84.8624563 C50.2810889,85.2441173 49.1033575,84.7315484 47.9788569,84.5305772 C46.7101896,84.3037931 45.3971633,84.4881704 44.1063165,84.6098594 C42.8334196,84.7330756 41.5529788,84.7946387 40.2714812,84.7942367 C39.2182501,84.8014497 38.1668193,84.7205306 37.1330822,84.5527025 C36.5541973,84.451295 35.9841841,84.3093245 35.3986454,84.2447924 C34.840431,84.1943964 34.2786051,84.1771442 33.7174394,84.1931668 C31.1194808,84.2177504 28.5244795,84.1851771 25.9324354,84.0954468 C25.109576,84.0677902 24.271191,84.0327585 23.5059983,83.7820054 C23.3387082,83.7410124 23.193205,83.6538719 23.0934596,83.5349398 C23.0373922,83.4417164 23.0092393,83.338615 23.0113955,83.2344049 C22.9413743,82.1906906 23.1949239,81.1495138 23.7477548,80.2106173 C23.9274088,79.9027072 24.2800628,79.1873234 24.6792938,79.036134 C25.0785247,78.8849446 26.129833,79.2518554 26.5756409,79.3348252 C29.4123987,79.8695193 32.2979515,80.3286188 35.2256453,80.3452127 C36.8416557,80.3657662 38.4543129,80.2164669 40.0252888,79.9008635 Z" id="Path" fill="#DB8B8B"></path>
                    <path d="M26,77.5683778 L24.2868526,85 L13.7556441,84.7067762 C12.2527667,84.063655 16.042054,82.2747433 13.7556441,80.0767967 L11,73 C11,73 14.4617087,73.5716632 16.7702523,74.5720739 C19.0787959,75.5724846 20.4887118,75.4271047 20.4887118,75.4271047 C20.4887118,75.4271047 25.4887118,76.8537988 26,77.5683778 Z" id="Path" fill="#000000" opacity="0.1"></path>
                    <path d="M25,77.5782341 L23.2516377,85 L12.503953,84.7067762 C10.970183,84.063655 7.33340863,82.3930185 5,80.1926078 L9.69166478,73 C9.69166478,73 13.2245313,73.5716632 15.5805286,74.5696099 C17.9365259,75.5675565 19.3754235,75.4271047 19.3754235,75.4271047 C19.3754235,75.4271047 24.4782019,76.863655 25,77.5782341 Z" id="Path" fill="#35323E"></path>
                    <ellipse id="Oval" fill="#35323E" transform="translate(32.357275, 20.032197) rotate(-83.230000) translate(-32.357275, -20.032197) " cx="32.3572748" cy="20.0321974" rx="3.76112573" ry="7.76800192"></ellipse>
                    <circle id="Oval" fill="#35323E" cx="32.5" cy="12.5" r="2.5"></circle>
                    <path d="M30,12.186999 C30,12.186999 33.1958265,11.5538015 34.7528751,12.6177457 C36.3099236,13.6816899 30,12.186999 30,12.186999 Z" id="Path" fill="#000000" opacity="0.1"></path>
                    <path d="M42,19.7658569 C42,19.9526355 41.8536782,20.1711665 41.3448276,19.7901381 C40.0606897,18.8319636 37.1058621,16.3067163 33.045977,16.3067163 C28.8135632,16.3067163 25.3826437,18.8973361 23.8735632,19.7901381 C23.3625287,20.0927195 23,19.9283543 23,19.7658569 C23,19.1289417 27.3678161,14 33.045977,14 C38.7241379,14 42,19.1289417 42,19.7658569 Z" id="Path" fill="#6C63FF"></path>
                    <path d="M41.7510345,20.0509312 C41.6855172,20.187787 41.5064368,20.2467402 41.1264368,19.9267082 C39.8422989,18.8466003 36.8874713,16 32.8275862,16 C28.5951724,16 25.1642529,18.9202919 23.6551724,19.9267082 C23.5474055,20.0016173 23.4269541,20.057899 23.2991954,20.0930406 C23.1545031,20.2871963 23.0526715,20.5079095 23,20.7415265 C23,20.9247027 23.3625287,21.1099844 23.8735632,20.7688977 C25.3826437,19.7624813 28.8135632,16.8421894 33.045977,16.8421894 C37.1058621,16.8421894 40.0606897,19.6887897 41.3448276,20.7688977 C41.8536782,21.1899924 42,20.9457574 42,20.7415265 C41.9586481,20.4992806 41.8744347,20.2656845 41.7510345,20.0509312 L41.7510345,20.0509312 Z" id="Path" fill="#000000" opacity="0.1"></path>
                    <rect id="Rectangle" fill="#6A5C99" x="43" y="20" width="1" height="4"></rect>
                    <path d="M41,24 L41,24 C41.5522847,24 42,25.0841146 42,26.4214378 L42,26.5785622 C42,27.9158854 41.5522847,29 41,29 L41,29 L41,24 Z" id="Path" fill="#6C63FF"></path>
                    <rect id="Rectangle" fill="#6A5C99" x="40" y="24" width="1" height="5" rx="0.5"></rect>
                    <rect id="Rectangle" fill="#6A5C99" transform="translate(23.500000, 22.000000) rotate(-180.000000) translate(-23.500000, -22.000000) " x="23" y="20" width="1" height="4"></rect>
                    <path d="M23,24 L23,24 C23.5522847,24 24,25.0841146 24,26.4214378 L24,26.5785622 C24,27.9158854 23.5522847,29 23,29 L23,29 L23,24 L23,24 Z" id="Path" fill="#6C63FF" transform="translate(23.500000, 26.500000) rotate(-180.000000) translate(-23.500000, -26.500000) "></path>
                    <rect id="Rectangle" fill="#6A5C99" transform="translate(23.500000, 26.500000) rotate(-180.000000) translate(-23.500000, -26.500000) " x="23" y="24" width="1" height="5" rx="0.5"></rect>
                    <path d="M76.0064285,57.0656787 C76.003391,58.0609333 76.3024139,59.0282829 76.8552216,59.8115545 C75.5662001,61.6331309 75.7538323,64.2491591 77.2862486,65.8210682 C78.8186648,67.3929773 81.1813352,67.3929773 82.7137514,65.8210682 C84.2461677,64.2491591 84.4337999,61.6331309 83.1447784,59.8115545 C83.685884,59.0573225 76.0064285,56.5660001 76.0064285,57.0656787 Z" id="Path" fill="#000000" opacity="0.1"></path>
                </g>
            </g>
        </g>
    </g>
</svg>