<?xml version="1.0" encoding="UTF-8"?>
<svg width="180px" height="251px" viewBox="0 0 180 251" version="1.1" xmlns="http://www.w3.org/2000/svg" xmlns:xlink="http://www.w3.org/1999/xlink">
    <!-- Generator: Sketch 64 (93537) - https://sketch.com -->
    <title>Illustration </title>
    <desc>Created with Sketch.</desc>
    <defs>
        <linearGradient x1="49.999567%" y1="99.986128%" x2="49.999567%" y2="0.0113813981%" id="linearGradient-1">
            <stop stop-color="#808080" stop-opacity="0.25" offset="0%"></stop>
            <stop stop-color="#808080" stop-opacity="0.12" offset="54%"></stop>
            <stop stop-color="#808080" stop-opacity="0.1" offset="100%"></stop>
        </linearGradient>
    </defs>
    <g id="Page-1" stroke="none" stroke-width="1" fill="none" fill-rule="evenodd">
        <g id="Medition-" transform="translate(-195.000000, -46.000000)">
            <g id="Illustration-" transform="translate(195.000000, 46.000000)">
                <rect id="Rectangle" fill="#FFFFFF" fill-rule="nonzero" opacity="0.05" x="0" y="226" width="266" height="2"></rect>
                <rect id="Rectangle" fill="#FFFFFF" fill-rule="nonzero" opacity="0.05" x="0" y="232" width="266" height="2"></rect>
                <rect id="Rectangle" fill="#FFFFFF" fill-rule="nonzero" opacity="0.05" x="0" y="249" width="266" height="2"></rect>
                <g id="Group" opacity="0.5" transform="translate(22.000000, 97.000000)">
                    <path d="M5.25105263,0.785777778 C3.97551897,-0.405340229 2.22322567,-0.192911147 1.13763158,1.28444444 C-0.0420145833,2.96066089 0.0144354683,5.55753432 1.265,7.14377778 L5.19605263,12.2437778 C5.45265943,12.5786074 5.86865636,12.5786074 6.12526316,12.2437778 L10.0331579,7.11355556 C11.2770522,5.51900659 11.3232343,2.9223718 10.1373684,1.25422222 C9.04800289,-0.215793148 7.2962404,-0.417037736 6.02684211,0.782 C5.79557788,1.00006039 5.48355734,1.00157981 5.25105263,0.785777778 Z" id="Path" fill="#794BD8" fill-rule="nonzero"></path>
                    <path d="M5.68815789,12.0435556 C5.5965535,12.2665431 5.5965535,12.534568 5.68815789,12.7575556 C5.74373005,12.8647825 5.79494117,12.9757507 5.84157895,13.09 C5.94289474,13.4186667 5.76631579,13.7775556 5.58684211,14.0457778 C5.47394737,14.2157778 5.34947368,14.4424444 5.42184211,14.6502222 C5.45743732,14.72502 5.50245632,14.7914354 5.555,14.8466667 C5.7994273,15.1533684 5.90287806,15.6047615 5.8276284,16.0362432 C5.75237874,16.4677249 5.50942761,16.8162271 5.18736842,16.9546667" id="Path" stroke="#F55F44"></path>
                </g>
                <g id="Group" opacity="0.5" transform="translate(151.000000, 0.000000)">
                    <path d="M5.25105263,0.785777778 C3.97551897,-0.405340229 2.22322567,-0.192911147 1.13763158,1.28444444 C-0.0420145833,2.96066089 0.0144354683,5.55753432 1.265,7.14377778 L5.19605263,12.2437778 C5.45265943,12.5786074 5.86865636,12.5786074 6.12526316,12.2437778 L10.0331579,7.11355556 C11.2770522,5.51900659 11.3232343,2.9223718 10.1373684,1.25422222 C9.04800289,-0.215793148 7.2962404,-0.417037736 6.02684211,0.782 C5.79557788,1.00006039 5.48355734,1.00157981 5.25105263,0.785777778 L5.25105263,0.785777778 Z" id="Path" fill="#794BD8" fill-rule="nonzero"></path>
                    <path d="M5.68815789,12.0435556 C5.5965535,12.2665431 5.5965535,12.534568 5.68815789,12.7575556 C5.74373005,12.8647825 5.79494117,12.9757507 5.84157895,13.09 C5.94289474,13.4186667 5.76631579,13.7775556 5.58684211,14.0457778 C5.47394737,14.2157778 5.34947368,14.4235556 5.42184211,14.6502222 C5.45743732,14.72502 5.50245632,14.7914354 5.555,14.8466667 C5.7994273,15.1533684 5.90287806,15.6047615 5.8276284,16.0362432 C5.75237874,16.4677249 5.50942761,16.8162271 5.18736842,16.9546667" id="Path" stroke="#F55F44"></path>
                </g>
                <g id="Group" opacity="0.5" transform="translate(71.000000, 139.000000)" fill="#47E6B1" fill-rule="nonzero">
                    <rect id="Rectangle" x="1.64705882" y="0.04" width="1" height="3.77777778"></rect>
                    <polygon id="Rectangle" transform="translate(2.000000, 1.928889) rotate(90.000000) translate(-2.000000, -1.928889) " points="1.66666667 -0.0711111111 2.33333333 -0.0711111111 2.33333333 3.92888889 1.66666667 3.92888889"></polygon>
                </g>
                <g id="Group" opacity="0.5" transform="translate(44.000000, 44.000000)" fill="#47E6B1" fill-rule="nonzero">
                    <rect id="Rectangle" x="1.64705882" y="0.04" width="1" height="3.77777778"></rect>
                    <polygon id="Rectangle" transform="translate(2.000000, 1.928889) rotate(90.000000) translate(-2.000000, -1.928889) " points="1.66666667 -0.0711111111 2.33333333 -0.0711111111 2.33333333 3.92888889 1.66666667 3.92888889"></polygon>
                </g>
                <path d="M61.6687697,76.0479998 C61.1636331,75.8198449 60.9074771,75.2516694 61.0711798,74.7224956 C61.0863087,74.6834229 61.0944013,74.6419845 61.0950834,74.6000954 L61.0950834,74.6000954 C61.1182135,74.3509739 60.9699351,74.1177089 60.7344198,74.0327157 C60.4989045,73.9477224 60.2356603,74.0324762 60.0941204,74.2388657 L60.0941204,74.2388657 C60.0706915,74.2726268 60.0506737,74.3086276 60.0343614,74.346339 C59.8060094,74.8510395 59.2373429,75.1069744 58.7077119,74.9434129 C58.6679038,74.9308811 58.6268094,74.9228696 58.585206,74.91953 L58.585206,74.91953 C58.3423663,74.9038817 58.1181207,75.0495968 58.0339634,75.2777283 C57.949806,75.5058597 58.0257608,75.7621272 58.2206762,75.9076874 L58.2206762,75.9076874 C58.2541552,75.931592 58.2902415,75.9516226 58.3282424,75.9673948 C58.8402303,76.1891526 59.1038892,76.7597064 58.940772,77.292899 C58.9285497,77.3327535 58.9205382,77.3737773 58.9168684,77.4152992 L58.9168684,77.4152992 C58.9012065,77.6579292 59.0470476,77.8819812 59.2753762,77.966066 C59.5037047,78.0501507 59.7601936,77.9742614 59.9058796,77.7795143 L59.9058796,77.7795143 C59.9304068,77.7464482 59.9504971,77.7103169 59.9656386,77.672041 C60.1898001,77.1610684 60.7609011,76.8982041 61.295276,77.0600402 C61.334061,77.0725767 61.3741666,77.0805909 61.414794,77.0839231 L61.414794,77.0839231 C61.6576337,77.0995714 61.8818793,76.9538563 61.9660366,76.7257248 C62.050194,76.4975934 61.9742392,76.2413259 61.7793238,76.0957657 L61.7793238,76.0957657 C61.7446648,76.0751928 61.7075111,76.0591402 61.6687697,76.0479998 Z" id="Path" fill="#4D8AF0" fill-rule="nonzero" opacity="0.5"></path>
                <path d="M111.66877,8.04038565 C111.163633,7.81307899 110.907477,7.24701585 111.07118,6.71980945 C111.086309,6.68088205 111.094401,6.63959773 111.095083,6.59786435 L111.095083,6.59786435 C111.118214,6.34966908 110.969935,6.11727132 110.73442,6.03259403 C110.498904,5.94791674 110.23566,6.03235542 110.09412,6.23797759 L110.09412,6.23797759 C110.070691,6.27161318 110.050674,6.30748019 110.034361,6.34505134 C109.811377,6.8536879 109.241266,7.11570979 108.707712,6.95477684 C108.667904,6.94229158 108.626809,6.93430987 108.585206,6.93098267 L108.585206,6.93098267 C108.342366,6.91539252 108.118121,7.06056589 108.033963,7.28784922 C107.949806,7.51513255 108.025761,7.77044726 108.220676,7.91546628 L108.220676,7.91546628 C108.254155,7.93928196 108.290242,7.95923816 108.328242,7.97495169 C108.84023,8.19588502 109.103889,8.76431758 108.940772,9.29552789 C108.92855,9.33523425 108.920538,9.3761055 108.916868,9.41747299 L108.916868,9.41747299 C108.901207,9.65920099 109.047048,9.88242001 109.275376,9.96619212 C109.503705,10.0499642 109.760194,9.97435712 109.90588,9.78033402 L109.90588,9.78033402 C109.930407,9.74739082 109.950497,9.71139388 109.965639,9.67326028 C110.1898,9.1641874 110.760901,8.90230037 111.295276,9.06353478 C111.334061,9.07602468 111.374167,9.08400908 111.414794,9.08732894 L111.414794,9.08732894 C111.657634,9.10291909 111.881879,8.95774573 111.966037,8.7304624 C112.050194,8.50317907 111.974239,8.24786435 111.779324,8.10284534 L111.779324,8.10284534 C111.74547,8.07715936 111.708281,8.05614904 111.66877,8.04038565 Z" id="Path" fill="#4D8AF0" fill-rule="nonzero" opacity="0.5"></path>
                <path d="M192.130215,209.008075 L175.44961,196.1519 C175.44961,196.1519 174.105838,190.798887 173.567643,187.049026 C173.029448,183.299165 172.220443,167.233246 172.220443,167.233246 C172.60362,165.842467 172.857239,164.418973 172.978029,162.98111 C173.142572,162.946708 173.320828,162.905425 173.475087,162.860702 C176.004424,162.215292 178.084916,160.415268 179.093565,157.999643 C180.80756,153.719985 178.593078,148.662833 175.788981,145.270757 C172.984885,141.878681 169.454054,139.154011 167.609795,134.950038 C165.333609,129.772478 166.111763,123.507801 164.949674,117.838287 C164.838533,117.044281 164.54516,116.287029 164.092676,115.626213 C163.36937,114.72831 162.241561,114.535657 161.237159,114.177872 C158.055984,113.042593 155.670102,109.942937 153.808703,106.705671 C150.795499,101.459306 147.676027,93.4779504 141.467935,93.0238388 C139.160897,92.855267 136.754447,93.6362014 134.419985,93.6293209 C130.803455,93.6293209 127.221204,93.674044 123.635526,94.1728788 C122.353457,94.348331 121.026824,94.5891478 119.957291,95.4354467 C116.285913,98.3527698 117.948489,106.055466 114.410802,109.196405 C113.358409,110.12527 112.011208,110.462413 110.821695,111.102298 C106.337883,113.510465 104.34622,119.933393 104.610175,125.709555 C104.737011,128.420463 105.295774,131.23802 106.889789,133.216157 C108.154718,134.798668 109.950985,135.706891 111.130214,137.378847 C113.025893,140.069115 112.768794,143.643523 112.563115,147.276416 C110.026401,148.342891 107.990175,149.567616 107.34914,150.885228 C105.175794,155.312816 105.456889,170.44987 105.456889,170.44987 C105.456889,170.44987 106.262467,195.219595 100.071515,198.31581 L76.9257198,214.381729 C76.9257198,214.381729 60.5056427,200.056572 56.4674693,208.492039 C53.7079365,214.261321 63.7862301,217.526108 70.4365328,219.012291 C66.2440997,221.998419 63.9233498,227.516564 65.8875886,231.252664 C68.9727806,237.145794 77.597606,241.160554 77.597606,241.160554 C77.597606,241.160554 110.48918,242.753385 125.69232,239.333786 L125.942564,239.333786 C132.397471,240.506908 141.659903,241.741954 149.088359,240.998862 C149.232335,241.342886 149.331746,241.563062 149.331746,241.563062 C149.331746,241.563062 196.980822,245.581262 205.588507,229.247004 C210.00376,220.866581 205.39654,216.999751 199.856906,215.217707 C206.058142,214.722313 213.119804,212.981552 213.932238,207.687023 C215.41313,198.02683 192.130215,209.008075 192.130215,209.008075 Z M187.331027,214.130592 C178.610218,217.316253 171.534844,217.495146 167.764054,217.257769 C165.912939,213.205167 158.193103,195.656505 157.990852,183.908087 C158.042272,181.286625 158.50505,178.995425 159.550588,177.275305 C161.792494,173.570167 162.457524,170.663165 162.382108,168.457971 C162.382108,168.29628 162.382108,168.134589 162.382108,167.976338 C162.3931,167.302682 162.328708,166.629917 162.190141,165.970678 C162.558916,166.879066 162.668127,167.872623 162.505516,168.839838 C161.699938,172.988767 163.852716,199.901761 163.852716,199.901761 C163.852716,199.901761 165.600992,205.92906 169.234662,207.666381 L187.331027,214.130592 Z M101.946626,212.221259 L110.31778,206.864806 C110.31778,206.864806 114.222262,204.989875 114.626765,200.438438 L117.386298,178.685804 C117.572899,179.618115 117.81908,180.537411 118.123316,181.437995 C118.610091,182.865695 118.808914,184.95736 118.85005,187.448094 C118.743782,199.588699 114.626765,219.731302 114.626765,219.731302 L114.674757,219.731302 C114.674757,219.789786 114.654189,219.837949 114.647333,219.875792 L114.355954,219.892993 C107.585672,219.686578 91.8066289,219.094857 82.976124,217.866692 L101.946626,212.221259 Z M87.3502405,224.898541 L87.3502405,224.939824 L85.2934459,224.939824 L87.3502405,224.898541 Z" id="Shape" fill="url(#linearGradient-1)" fill-rule="nonzero"></path>
                <path d="M155.838115,110.473376 C157.644547,113.655531 159.974983,116.712896 163.077633,117.811745 C164.053245,118.158385 165.146067,118.355969 165.835545,119.239901 C166.277597,119.889801 166.564295,120.633632 166.673261,121.413334 C167.800557,126.980372 167.045579,133.133232 169.258803,138.225374 C171.051446,142.346923 174.481599,145.029917 177.208484,148.354195 C179.935369,151.678472 182.072751,156.64929 180.421451,160.850566 C179.447028,163.217166 177.423585,164.986049 174.957338,165.627265 C172.675166,166.251217 170.29302,165.991237 167.976374,165.578736 C164.921987,165.034511 161.812441,164.192176 159.268268,162.112336 C154.865951,158.514213 153.004361,152.059776 150.701504,146.315951 C149.619024,143.626025 148.181462,140.807842 145.802764,139.847649 C143.079326,138.745334 140.014596,140.585992 138.246085,143.286318 C136.477574,145.986643 135.695017,149.380249 134.836617,152.645598 C133.871348,156.333847 132.650972,160.160753 130.110246,162.573367 C127.862042,164.778413 124.533861,165.446633 121.615877,164.278836 C118.789018,163.096794 116.555109,160.098358 115.903552,156.621558 C114.903809,151.26597 117.303193,144.835799 114.355674,140.599858 C113.211141,138.960251 111.463315,138.065919 110.236044,136.512972 C108.701955,134.568322 108.143478,131.798668 108.02282,129.13994 C107.764265,123.461976 109.698251,117.135797 114.059199,114.785577 C115.224417,114.158159 116.524083,113.828851 117.547957,112.913721 C120.995347,109.832092 119.368179,102.264941 122.936228,99.3947616 C123.970444,98.5593592 125.266663,98.3271104 126.514618,98.150324 C130.010271,97.665028 133.481793,97.6095656 136.994683,97.6199648 C139.266513,97.6199648 141.60729,96.8573569 143.848094,97.023744 C149.881026,97.4778424 152.911281,105.318839 155.838115,110.473376 Z" id="Path" fill="#965D7B" fill-rule="nonzero"></path>
                <polygon id="Path" fill="#575988" fill-rule="nonzero" points="93 224.550511 94.2826807 240 184 239.455165 182.288643 222.589103 151.956426 219 98.7670396 222.265607"></polygon>
                <polygon id="Path" fill="#000000" fill-rule="nonzero" opacity="0.05" points="93 224.550511 94.2826807 240 184 239.455165 182.288643 222.589103 151.956426 219 98.7670396 222.265607"></polygon>
                <path d="M153.411698,234 L123,235.813049 C123,235.813049 143.836003,239.191618 156,237.550103 L153.411698,234 Z" id="Path" fill="#F7C4A7" fill-rule="nonzero"></path>
                <path d="M153.411698,234 L123,235.813049 C123,235.813049 143.836003,239.191618 156,237.550103 L153.411698,234 Z" id="Path" fill="#000000" fill-rule="nonzero" opacity="0.1"></path>
                <path d="M129.871866,125 C129.871866,125 135.549532,140.921226 127.156601,148.025449 C118.76367,155.129672 125.677026,175 125.677026,175 L158.009809,173.418972 C158.009809,173.418972 161.216098,151.052285 159.489385,146.316136 C159.489385,146.316136 151.837867,148.684211 150.111154,143.684557 C148.384441,138.684904 147.148752,125 147.148752,125 L129.871866,125 Z" id="Path" fill="#F7C4A7" fill-rule="nonzero"></path>
                <path d="M119.633645,221.904187 C119.633645,221.904187 92.0207003,221.278749 83.9017636,219.270764 C75.782827,217.262779 68.7832895,226.901108 71.6575116,232.411546 C74.5317337,237.921984 82.5222687,241.654861 82.5222687,241.654861 C82.5222687,241.654861 123.630559,243.652971 132.500151,238.033904 C132.500151,238.033904 135.874811,228.415326 132.500151,226.542304 L89.6469155,226.542304 L121.253482,225.916866 L119.633645,221.904187 Z" id="Path" fill="#575988" fill-rule="nonzero"></path>
                <path d="M167.810543,217.302026 C167.810543,217.302026 177.220713,219.497801 190.185239,214.006556 C190.185239,214.006556 214.469439,213.185402 206.332272,229.923207 C198.195106,246.661012 153.191114,242.55524 153.191114,242.55524 C153.191114,242.55524 150.511108,236.376685 153.191114,234.730759 C155.871119,233.084832 179.126867,222.511112 186.372931,223.06096 L166.27289,227.315046 L167.810543,217.302026 Z" id="Path" fill="#575988" fill-rule="nonzero"></path>
                <path d="M149,131.406843 C148.502977,128.427844 148.211618,126 148.211618,126 L130,126 C130.841195,127.917604 131.424945,129.902023 131.741295,131.919419 C136.98855,134.873154 144.03812,134.663786 149,131.406843 L149,131.406843 Z" id="Path" fill="#000000" fill-rule="nonzero" opacity="0.1"></path>
                <circle id="Oval" fill="#F7C4A7" fill-rule="nonzero" cx="139.5" cy="120.5" r="14.5"></circle>
                <path d="M127.454033,144.555066 C127.454033,144.555066 110.139822,147.798489 108.041654,152.074066 C105.943485,156.349642 106.206189,171.011692 106.206189,171.011692 C106.206189,171.011692 106.990841,195.004137 100.959039,197.987813 L78.3942229,213.552143 C78.3942229,213.552143 62.3935282,199.67617 58.4564379,207.844538 C54.5193475,216.012906 77.346867,219 77.346867,219 L102.794505,211.481 L110.927932,206.29289 C110.927932,206.29289 114.730214,204.478077 115.124269,200.065791 L118.535953,173.349418 L132.179232,169.456626 L154.215186,169.456626 L157.167139,161.124207 C157.167139,161.124207 162.611316,165.437379 161.823207,169.456626 C161.035097,173.475874 163.136722,199.532626 163.136722,199.532626 C163.136722,199.532626 164.840836,205.366686 168.383872,207.051626 L188.847063,214.314296 C188.847063,214.314296 210.488962,216.388856 211.933829,207.051626 C213.378696,197.714395 190.682528,208.381122 190.682528,208.381122 L174.405304,195.91667 C174.405304,195.91667 173.095245,190.728561 172.569839,187.095516 C172.044433,183.462472 171.25978,167.90156 171.25978,167.90156 C171.25978,167.90156 176.244226,151.557989 161.812837,148.707604 L143.185111,143 L127.454033,144.555066 Z" id="Path" fill="#F7C4A7" fill-rule="nonzero"></path>
                <path d="M114.719735,149.203552 L117.39894,166.747921 C117.39894,166.747921 114.643974,174.905951 117.39894,182.934326 C120.153907,190.9627 114,220.878887 114,220.878887 C114,220.878887 146.281325,231.114809 166,219.323027 C166,219.323027 151.495099,189.024699 157.635232,178.925256 C163.775364,168.825814 157.738543,164.874748 157.738543,164.874748 L158.682119,146.29655 L154.239735,145 L151.62596,163.387127 C151.62596,163.387127 133.591258,175.816948 120.260662,164.942987 L117.385166,145 L114.719735,149.203552 Z" id="Path" fill="#000000" fill-rule="nonzero" opacity="0.1"></path>
                <path d="M134,167.952849 C131.67686,164.276897 126.915994,162.950556 123,164.888331 C126.512814,167.503715 130.387688,168.202064 134,167.952849 Z" id="Path" fill="#FFFFFF" fill-rule="nonzero" opacity="0.07"></path>
                <path d="M147,167.957077 C149.32056,164.27762 154.083484,162.949269 158,164.889244 C154.491952,167.496491 150.615946,168.192854 147,167.957077 Z" id="Path" fill="#FFFFFF" fill-rule="nonzero" opacity="0.07"></path>
                <path d="M114.719735,150.114711 L117.39894,166.752024 C117.39894,166.752024 114.643974,174.910313 117.39894,182.938942 C120.153907,190.967572 114,220.877884 114,220.877884 C114,220.877884 146.281325,231.114131 166,219.325387 C166,219.325387 151.495099,189.026097 157.635232,178.926333 C163.775364,168.82657 157.738543,164.875379 157.738543,164.875379 L158.682119,146.293179 L154.239735,145 L151.62596,163.387711 C151.62596,163.387711 133.591258,175.817927 120.260662,164.940208 L117.385166,145 L114.719735,150.114711 Z" id="Path" fill="#000000" fill-rule="nonzero" opacity="0.1"></path>
                <path d="M114.588874,149.725734 L117.39894,166.752024 C117.39894,166.752024 114.643974,174.910313 117.39894,182.938942 C120.153907,190.967572 114,220.877884 114,220.877884 C114,220.877884 146.281325,231.114131 166,219.325387 C166,219.325387 151.495099,189.022685 157.635232,178.922921 C163.775364,168.823158 157.738543,164.875379 157.738543,164.875379 L158.682119,146.293179 L154.239735,145 L151.62596,163.387711 C151.62596,163.387711 133.591258,175.817927 120.260662,164.940208 L117.385166,145 L114.588874,149.725734 Z" id="Path" fill="#FC6681" fill-rule="nonzero"></path>
                <path d="M131,227.417491 L137.687404,226.462597 C137.687404,226.462597 145.405204,216.012414 150.936803,224.019929 C150.936803,224.019929 153.251804,229.17707 156.082003,230.124811 C158.017261,230.743224 159.99621,231.197675 162,231.483835 L150.550405,234.87782 C150.550405,234.87782 145.534004,238 140.260004,237.184585 C137.155531,236.68369 133.982841,236.96307 131,238 L131,227.417491 Z" id="Path" fill="#F7C4A7" fill-rule="nonzero"></path>
                <path d="M121,183.475492 C121,183.475492 135.527791,185.354356 138,182" id="Path" fill="#000000" fill-rule="nonzero" opacity="0.1"></path>
                <path d="M150,180 C150,180 151.6,183.70414 158,181.030434" id="Path" fill="#000000" fill-rule="nonzero" opacity="0.1"></path>
                <path d="M123,145 C123,145 129.732648,148.38 131,146.352" id="Path" fill="#000000" fill-rule="nonzero" opacity="0.1"></path>
                <path d="M145,145 C145,145 151.732648,148.38 153,146.352" id="Path" fill="#000000" fill-rule="nonzero" opacity="0.1"></path>
                <path d="M130.068036,228 C130.068036,228 132.164955,235.696313 130.068036,235.967947 C127.971118,236.239582 125,234.700319 125,234.528284 C125,234.356249 126.321465,229.460036 126.321465,229.460036 L130.068036,228 Z" id="Path" fill="#000000" fill-rule="nonzero" opacity="0.1"></path>
                <path d="M130.069577,228 C130.069577,228 132.163028,235.696313 130.069577,235.967947 C127.976126,236.239582 125,234.700319 125,234.528284 C125,234.356249 126.32111,229.460036 126.32111,229.460036 L130.069577,228 Z" id="Path" fill="#575988" fill-rule="nonzero"></path>
                <path d="M121.869407,146.00807 C120.943006,148.330129 120.614846,151.070096 121.596423,153.363877 C122.345675,155.114062 123.812234,156.531178 124.093929,158.43533 C124.448227,160.826517 122.810327,163.252268 123.423088,165.580612 C123.655414,166.469845 124.198476,167.223964 124.750251,167.930951 C126.428807,170.077049 128.659138,172.157162 131.249574,171.990627 C131.661953,167.660725 128.200294,163.459651 129.332884,159.283714 C129.739454,157.788044 130.691991,156.543747 131.266999,155.117204 C132.22244,152.751154 132.085948,150.048893 131.740363,147.494313 C131.237958,143.786559 129.965972,139.242989 126.568203,137.508515 C125.008713,136.710405 122.792903,136.650704 122.238224,138.818797 C121.933296,139.975114 122.644795,141.062303 122.74063,142.193482 C122.859697,143.629451 122.383428,144.719782 121.869407,146.00807 Z" id="Path" fill="#000000" fill-rule="nonzero" opacity="0.1"></path>
                <path d="M121.869407,140.010566 C120.943006,142.332684 120.614846,145.069577 121.596423,147.366556 C122.345675,149.113643 123.812234,150.533936 124.093929,152.434993 C124.448227,154.82624 122.810327,157.252051 123.423088,159.580452 C123.655414,160.469707 124.198476,161.226987 124.750251,161.933992 C126.428807,164.077001 128.659138,166.157166 131.249574,165.990627 C131.661953,161.660617 128.200294,157.459439 129.332884,153.283399 C129.739454,151.787691 130.691991,150.543363 131.266999,149.116785 C132.22244,146.750676 132.085948,144.048348 131.740363,141.493705 C131.237958,137.785859 129.965972,133.242176 126.568203,131.507658 C125.008713,130.709529 122.792903,130.652968 122.238224,132.817973 C121.933296,133.974319 122.644795,135.061535 122.74063,136.192742 C122.859697,137.628747 122.383428,138.719105 121.869407,140.010566 Z" id="Path" fill="#965D7B" fill-rule="nonzero"></path>
                <path d="M121,113.658316 C121,113.658316 139.054004,111.110717 139.549348,114.930437 C140.044693,118.750158 156,125 156,125 L152.040503,114.930437 L144.743948,102.447536 C144.743948,102.447536 131.382682,101.44058 130.770019,102.447536 C130.157356,103.454492 123.098696,106.777448 123.098696,106.777448 L121,113.658316 Z" id="Path" fill="#000000" fill-rule="nonzero" opacity="0.1"></path>
                <path d="M121,113.658316 C121,113.658316 139.054004,111.110717 139.549348,114.930437 C140.044693,118.750158 156,125 156,125 L152.040503,114.930437 L144.743948,102.447536 C144.743948,102.447536 131.382682,101.44058 130.770019,102.447536 C130.157356,103.454492 123.098696,106.777448 123.098696,106.777448 L121,113.658316 Z" id="Path" fill="#965D7B" fill-rule="nonzero"></path>
                <path d="M148.893227,139.862123 C150.033107,140.998972 150.838523,142.341794 151.245332,143.783645 C151.634529,145.164811 151.668372,146.60235 152.019496,147.983515 C152.806351,150.925538 155.145765,153.398951 157.582477,155.625727 C158.373607,156.432749 159.33929,157.109164 160.429539,157.619961 C161.546366,158.078 162.967781,158.173132 164,157.619961 C163.018546,156.946995 162.485515,155.921691 162.134392,154.906958 C161.639487,153.487571 161.419564,152.011526 161.48291,150.534443 C161.58867,148.068076 162.455903,145.464298 161.224855,143.216381 C160.514147,141.916254 159.190031,140.929707 157.840532,140.045339 C156.9019,139.412549 155.890092,138.859007 154.820023,138.392873 C152.823273,137.564879 150.538855,137.201971 148.334814,137.018755 C145.4666,136.775641 147.97523,138.960137 148.893227,139.862123 Z" id="Path" fill="#000000" fill-rule="nonzero" opacity="0.1"></path>
                <path d="M148.893227,139.868239 C150.034501,141.002827 150.840131,142.344607 151.245332,143.785678 C151.634529,145.166646 151.668372,146.60398 152.019496,147.984947 C152.806351,150.926549 155.145765,153.399609 157.582477,155.626067 C158.373607,156.432973 159.33929,157.109291 160.429539,157.620015 C161.546366,158.077989 162.967781,158.173107 164,157.620015 C163.018546,156.947146 162.485515,155.925511 162.134392,154.9074 C161.639487,153.488217 161.419564,152.012383 161.48291,150.53551 C161.58867,148.069496 162.455903,145.46609 161.224855,143.218495 C160.514147,141.922076 159.190031,140.935671 157.840532,140.047906 C156.903041,139.412897 155.891092,138.858177 154.820023,138.392154 C152.823273,137.564278 150.538855,137.201422 148.334814,137.018232 C145.4666,136.778676 147.97523,138.96286 148.893227,139.868239 Z" id="Path" fill="#965D7B" fill-rule="nonzero"></path>
            </g>
        </g>
    </g>
</svg>